G04 ================== begin FILE IDENTIFICATION RECORD ==================*
G04 Layout Name:  D:/6089-127_CM_V3/Orcad/allegro/6089-127-reva_20.brd*
G04 Film Name:    PASTEMASK_BOTTOM*
G04 File Format:  Gerber RS274X*
G04 File Origin:  Cadence Allegro 17.4-S030*
G04 Origin Date:  Tue Jan  2 10:29:28 2024*
G04 *
G04 Layer:  BOARD GEOMETRY/DESIGN_OUTLINE*
G04 Layer:  DRAWING FORMAT/TITLE_DATA*
G04 Layer:  PIN/PASTEMASK_BOTTOM*
G04 Layer:  PACKAGE GEOMETRY/PASTEMASK_BOTTOM*
G04 Layer:  MANUFACTURING/PHOTOPLOT_OUTLINE*
G04 *
G04 Offset:    (0.0000 0.0000)*
G04 Mirror:    No*
G04 Mode:      Positive*
G04 Rotation:  0*
G04 FullContactRelief:  No*
G04 UndefLineWidth:     0.1270*
G04 ================== end FILE IDENTIFICATION RECORD ====================*
%FSLAX25Y25*MOMM*%
%IR0*IPPOS*OFA0.00000B0.00000*MIA0B0*SFA1.00000B1.00000*%
%ADD14R,1.016X.9652*%
%ADD22R,.9652X1.016*%
%ADD19R,2.755X.56*%
%ADD18R,.8128X1.8034*%
%ADD17R,.7X.61*%
%ADD10R,.61X.7*%
%ADD24R,2.54X1.524*%
%ADD15R,1.397X1.143*%
%ADD20R,1.4478X1.143*%
%ADD21R,1.143X1.4478*%
%ADD16R,.6096X.508*%
%ADD12R,.508X.6096*%
%ADD23R,2.2352X1.8288*%
%ADD11R,.9906X.8128*%
%ADD13R,.8128X.9906*%
%ADD25C,.2*%
%ADD26C,.127*%
G75*
%LPD*%
G75*
G54D10*
X233960Y340000D03*
Y27440000D03*
X366040Y340000D03*
Y27440000D03*
X533960Y340000D03*
Y27440000D03*
X666040Y340000D03*
Y27440000D03*
X833960Y340000D03*
Y27440000D03*
X966040Y340000D03*
Y27440000D03*
X9233960Y27190000D03*
Y27390000D03*
Y27590000D03*
X9366040Y27190000D03*
Y27390000D03*
Y27590000D03*
X10833960Y490000D03*
X10966040D03*
X11133960D03*
X11266040D03*
X11433960D03*
X11566040D03*
G54D11*
X210000Y5393600D03*
Y5566400D03*
X260000Y5843600D03*
Y6016400D03*
X210000Y6593600D03*
Y6766400D03*
X360000Y5393600D03*
Y5566400D03*
Y6593600D03*
Y6766400D03*
X510000Y5393600D03*
Y5566400D03*
Y5893600D03*
Y6066400D03*
Y6593600D03*
Y6766400D03*
X660000Y5393600D03*
Y5566400D03*
Y6593600D03*
Y6766400D03*
X810000Y5393600D03*
Y5566400D03*
Y6593600D03*
Y6766400D03*
X850000Y19503600D03*
Y19676400D03*
X960000Y5393600D03*
Y5566400D03*
Y6593600D03*
Y6766400D03*
X1000000Y19503600D03*
Y19676400D03*
X1100000Y2853600D03*
Y3026400D03*
X1150000Y3303600D03*
Y3476400D03*
X1100000Y4053600D03*
Y4226400D03*
X1150000Y4453600D03*
Y4626400D03*
X1100000Y13903600D03*
Y14076400D03*
X1145000Y15878600D03*
Y16051400D03*
X1150000Y19503600D03*
Y19676400D03*
X1250000Y2853600D03*
Y3026400D03*
Y4053600D03*
Y4226400D03*
X1300000Y19503600D03*
Y19676400D03*
Y19953600D03*
Y20126400D03*
X1250000Y20453600D03*
Y20626400D03*
X1300000Y20853600D03*
Y21026400D03*
X1250000Y23153600D03*
Y23326400D03*
X1300000Y23603600D03*
Y23776400D03*
X1250000Y25023600D03*
Y25196400D03*
X1400000Y2853600D03*
Y3026400D03*
Y3353600D03*
Y3526400D03*
Y4053600D03*
Y4226400D03*
Y4553600D03*
Y4726400D03*
Y20453600D03*
Y20626400D03*
Y23153600D03*
Y23326400D03*
Y25023600D03*
Y25196400D03*
X1550000Y2853600D03*
Y3026400D03*
Y4053600D03*
Y4226400D03*
X1450000Y19503600D03*
Y19676400D03*
X1550000Y20003600D03*
Y20176400D03*
Y20453600D03*
Y20626400D03*
Y20953600D03*
Y21126400D03*
Y23153600D03*
Y23326400D03*
Y23653600D03*
Y23826400D03*
Y25023600D03*
Y25196400D03*
X1700000Y2853600D03*
Y3026400D03*
Y4053600D03*
Y4226400D03*
X1600000Y19503600D03*
Y19676400D03*
X1700000Y20453600D03*
Y20626400D03*
Y23153600D03*
Y23326400D03*
Y25023600D03*
Y25196400D03*
X1750000Y4503600D03*
Y4676400D03*
X1850000Y2853600D03*
Y3026400D03*
Y4053600D03*
Y4226400D03*
Y20453600D03*
Y20626400D03*
X1900000Y20853600D03*
Y21026400D03*
X1850000Y23153600D03*
Y23326400D03*
Y25023600D03*
Y25196400D03*
X2000000Y20453600D03*
Y20626400D03*
Y23153600D03*
Y23326400D03*
Y25023600D03*
Y25196400D03*
X5400000Y13303600D03*
Y13476400D03*
X5550000Y13303600D03*
Y13476400D03*
X5700000Y13303600D03*
Y13476400D03*
X5850000Y13303600D03*
Y13476400D03*
X6060000Y10693600D03*
Y10866400D03*
X6000000Y13303600D03*
Y13476400D03*
X6150000Y13303600D03*
Y13476400D03*
X6240000Y10693600D03*
Y10866400D03*
X8050000Y26553600D03*
Y26726400D03*
X8200000Y26553600D03*
Y26726400D03*
X10100000Y12278600D03*
Y12451400D03*
X10350000Y2403600D03*
Y2576400D03*
X10500000Y2403600D03*
Y2576400D03*
X10400000Y2803600D03*
Y2976400D03*
X10650000Y2403600D03*
Y2576400D03*
Y2903600D03*
Y3076400D03*
X10800000Y2403600D03*
Y2576400D03*
X10950000Y2403600D03*
Y2576400D03*
X10930000Y21888600D03*
Y22061400D03*
X11000000Y26153600D03*
Y26326400D03*
X11100000Y2403600D03*
Y2576400D03*
X11050000Y26553600D03*
Y26726400D03*
X11150000Y26153600D03*
Y26326400D03*
X11300000Y26153600D03*
Y26326400D03*
Y26653600D03*
Y26826400D03*
X11450000Y26153600D03*
Y26326400D03*
X11600000Y26153600D03*
Y26326400D03*
X11650000Y26553600D03*
Y26726400D03*
X11750000Y26153600D03*
Y26326400D03*
X12000000Y26153600D03*
Y26326400D03*
X12050000Y26603600D03*
Y26776400D03*
X12150000Y26153600D03*
Y26326400D03*
X12300000Y26153600D03*
Y26326400D03*
Y26653600D03*
Y26826400D03*
X12450000Y26153600D03*
Y26326400D03*
X12600000Y26153600D03*
Y26326400D03*
X12750000Y26153600D03*
Y26326400D03*
X13610000Y26893600D03*
Y27066400D03*
X13800000Y23203600D03*
Y23376400D03*
X13950000Y23203600D03*
Y23376400D03*
X14100000Y23203600D03*
Y23376400D03*
X14050000Y23703600D03*
Y23876400D03*
X14250000Y23203600D03*
Y23376400D03*
X14200000Y23703600D03*
Y23876400D03*
X14350000Y23703600D03*
Y23876400D03*
X14400000Y23203600D03*
Y23376400D03*
X14550000Y23203600D03*
Y23376400D03*
X14650000Y15453600D03*
Y15626400D03*
Y26853600D03*
Y27026400D03*
X14850000Y15453600D03*
Y15626400D03*
Y19253600D03*
Y19426400D03*
Y23053600D03*
Y23226400D03*
Y26853600D03*
Y27026400D03*
X15050000Y15453600D03*
Y15626400D03*
Y19253600D03*
Y19426400D03*
Y23053600D03*
Y23226400D03*
Y26853600D03*
Y27026400D03*
X15250000Y15453600D03*
Y15626400D03*
Y19253600D03*
Y19426400D03*
Y23053600D03*
Y23226400D03*
Y26853600D03*
Y27026400D03*
X15600000Y11353600D03*
Y11526400D03*
X15800000Y11353600D03*
Y11526400D03*
X16000000Y11353600D03*
Y11526400D03*
X16100000Y4303600D03*
Y4476400D03*
X16300000Y4303600D03*
Y4476400D03*
Y7853600D03*
Y8026400D03*
Y14353600D03*
Y14526400D03*
Y14753600D03*
Y14926400D03*
X16450000Y25303600D03*
Y25476400D03*
Y25653600D03*
Y25826400D03*
X16500000Y4303600D03*
Y4476400D03*
Y7853600D03*
Y8026400D03*
X16700000Y4303600D03*
Y4476400D03*
Y7853600D03*
Y8026400D03*
X16900000Y14903600D03*
Y15076400D03*
X17600000Y14903600D03*
Y15076400D03*
X17750000Y3203600D03*
Y3376400D03*
Y3603600D03*
Y3776400D03*
G54D20*
X6450000Y7048560D03*
Y7231440D03*
Y7798560D03*
Y7981440D03*
Y8248560D03*
Y8431440D03*
Y8648560D03*
Y8831440D03*
Y9048560D03*
Y9231440D03*
Y9448560D03*
Y9631440D03*
Y9848560D03*
Y10031440D03*
Y10248560D03*
Y10431440D03*
Y10698560D03*
Y10881440D03*
Y11298560D03*
Y11481440D03*
Y11698560D03*
Y11881440D03*
Y15698560D03*
Y15881440D03*
Y16098560D03*
Y16281440D03*
Y16498560D03*
Y16681440D03*
Y16898560D03*
Y17081440D03*
Y17298560D03*
Y17481440D03*
Y17698560D03*
Y17881440D03*
Y18098560D03*
Y18281440D03*
Y18498560D03*
Y18681440D03*
Y18898560D03*
Y19081440D03*
Y19398560D03*
Y19581440D03*
Y19798560D03*
Y19981440D03*
Y20198560D03*
Y20381440D03*
Y20598560D03*
Y20781440D03*
Y20998560D03*
Y21181440D03*
X12950000Y16863560D03*
Y17046440D03*
Y17268560D03*
Y17451440D03*
Y17663560D03*
Y17846440D03*
Y18068560D03*
Y18251440D03*
Y18428560D03*
Y18611440D03*
X12900000Y19798560D03*
Y19981440D03*
Y20448560D03*
Y20631440D03*
X13000000Y6983560D03*
Y7166440D03*
Y7608560D03*
Y7791440D03*
X13080000Y7978560D03*
Y8161440D03*
Y8443560D03*
Y8626440D03*
Y8873560D03*
Y9056440D03*
Y9238560D03*
Y9421440D03*
X13010000Y10073560D03*
Y10256440D03*
Y10448560D03*
Y10631440D03*
Y10818560D03*
Y11001440D03*
X13085000Y11263560D03*
Y11446440D03*
X13080000Y11668560D03*
Y11851440D03*
X13800000Y13798560D03*
Y13981440D03*
Y14198560D03*
Y14381440D03*
Y17598560D03*
Y17781440D03*
Y17998560D03*
Y18181440D03*
Y21398560D03*
Y21581440D03*
Y21798560D03*
Y21981440D03*
Y25198560D03*
Y25381440D03*
Y25598560D03*
Y25781440D03*
X14050000Y13798560D03*
Y13981440D03*
Y14198560D03*
Y14381440D03*
Y17598560D03*
Y17781440D03*
Y17998560D03*
Y18181440D03*
Y21398560D03*
Y21581440D03*
Y21798560D03*
Y21981440D03*
Y25198560D03*
Y25381440D03*
Y25598560D03*
Y25781440D03*
X14300000Y13798560D03*
Y13981440D03*
Y14198560D03*
Y14381440D03*
Y17598560D03*
Y17781440D03*
Y17998560D03*
Y18181440D03*
Y21398560D03*
Y21581440D03*
Y21798560D03*
Y21981440D03*
Y25198560D03*
Y25381440D03*
Y25598560D03*
Y25781440D03*
X14550000Y9698560D03*
Y9881440D03*
Y10098560D03*
Y10281440D03*
X14800000Y9698560D03*
Y9881440D03*
Y10098560D03*
Y10281440D03*
X14850000Y13848560D03*
Y14031440D03*
Y14848560D03*
Y15031440D03*
Y17648560D03*
Y17831440D03*
Y18648560D03*
Y18831440D03*
Y21448560D03*
Y21631440D03*
Y22448560D03*
Y22631440D03*
Y25248560D03*
Y25431440D03*
Y26248560D03*
Y26431440D03*
X15050000Y9698560D03*
Y9881440D03*
Y10098560D03*
Y10281440D03*
X15100000Y13848560D03*
Y14031440D03*
Y14848560D03*
Y15031440D03*
Y17648560D03*
Y17831440D03*
Y18648560D03*
Y18831440D03*
Y21448560D03*
Y21631440D03*
Y22448560D03*
Y22631440D03*
Y25248560D03*
Y25431440D03*
Y26248560D03*
Y26431440D03*
X15250000Y2648560D03*
Y2831440D03*
Y3048560D03*
Y3231440D03*
Y6198560D03*
Y6381440D03*
Y6598560D03*
Y6781440D03*
X15350000Y13848560D03*
Y14031440D03*
Y14848560D03*
Y15031440D03*
Y17648560D03*
Y17831440D03*
Y18648560D03*
Y18831440D03*
Y21448560D03*
Y21631440D03*
Y22448560D03*
Y22631440D03*
Y25248560D03*
Y25431440D03*
Y26248560D03*
Y26431440D03*
X15500000Y2648560D03*
Y2831440D03*
Y3048560D03*
Y3231440D03*
Y6198560D03*
Y6381440D03*
Y6598560D03*
Y6781440D03*
X15600000Y9748560D03*
Y9931440D03*
Y10748560D03*
Y10931440D03*
X15750000Y2648560D03*
Y2831440D03*
Y3048560D03*
Y3231440D03*
Y6198560D03*
Y6381440D03*
Y6598560D03*
Y6781440D03*
X15850000Y9748560D03*
Y9931440D03*
Y10748560D03*
Y10931440D03*
X16100000Y9748560D03*
Y9931440D03*
Y10748560D03*
Y10931440D03*
X16300000Y2698560D03*
Y2881440D03*
Y3698560D03*
Y3881440D03*
Y6248560D03*
Y6431440D03*
Y7248560D03*
Y7431440D03*
X16550000Y2698560D03*
Y2881440D03*
Y3698560D03*
Y3881440D03*
Y6248560D03*
Y6431440D03*
Y7248560D03*
Y7431440D03*
X16800000Y2698560D03*
Y2881440D03*
Y3698560D03*
Y3881440D03*
Y6248560D03*
Y6431440D03*
Y7248560D03*
Y7431440D03*
G54D12*
X465000Y5730000D03*
Y6930000D03*
X555000Y5730000D03*
Y6930000D03*
X885000Y15810000D03*
X975000D03*
X1355000Y3190000D03*
Y4390000D03*
X1445000Y3190000D03*
Y4390000D03*
X1500000Y19840000D03*
X1505000Y20790000D03*
X1500000Y23490000D03*
X1490000Y25320000D03*
X1590000Y19840000D03*
X1595000Y20790000D03*
X1590000Y23490000D03*
X1580000Y25320000D03*
X4255000Y3740000D03*
Y3840000D03*
Y3940000D03*
Y4040000D03*
Y4140000D03*
Y10240000D03*
Y10340000D03*
Y10440000D03*
Y10540000D03*
Y10640000D03*
Y17140000D03*
Y17240000D03*
Y17340000D03*
Y17440000D03*
Y17540000D03*
Y23640000D03*
Y23740000D03*
Y23840000D03*
Y23940000D03*
Y24040000D03*
X4345000Y3740000D03*
Y3840000D03*
Y3940000D03*
Y4040000D03*
Y4140000D03*
Y10240000D03*
Y10340000D03*
Y10440000D03*
Y10540000D03*
Y10640000D03*
Y17140000D03*
Y17240000D03*
Y17340000D03*
Y17440000D03*
Y17540000D03*
Y23640000D03*
Y23740000D03*
Y23840000D03*
Y23940000D03*
Y24040000D03*
X5655000Y13640000D03*
X5745000D03*
X6105000Y5195000D03*
X6195000D03*
X6090000Y23960000D03*
X6180000D03*
X6705000Y17340000D03*
Y17490000D03*
X6795000Y17340000D03*
Y17490000D03*
X6975000Y4610000D03*
X7065000D03*
X6990000Y23510000D03*
X7080000D03*
X7170000Y9335000D03*
X7155000Y12390000D03*
X7290000Y6380000D03*
X7260000Y9335000D03*
X7245000Y12390000D03*
X7355000D03*
X7345000Y15390000D03*
X7255000D03*
X7330000Y21390000D03*
X7380000Y6380000D03*
X7500000D03*
X7445000Y12390000D03*
X7470000Y18220000D03*
X7420000Y21390000D03*
X7590000Y6380000D03*
X7555000Y12390000D03*
Y15390000D03*
X7560000Y18220000D03*
X7720000Y6380000D03*
X7645000Y12390000D03*
X7755000D03*
Y15390000D03*
X7645000D03*
X7705000Y18340000D03*
X7655000Y21390000D03*
X7745000D03*
X7810000Y6380000D03*
Y9340000D03*
X7845000Y12390000D03*
Y15390000D03*
X7795000Y18340000D03*
X7855000Y21390000D03*
X7930000Y6380000D03*
X8020000D03*
X7900000Y9340000D03*
X7945000Y21390000D03*
X8055000Y15390000D03*
X8145000D03*
X8055000Y21390000D03*
X8145000D03*
X8210000Y9340000D03*
X8255000Y15390000D03*
Y21390000D03*
X8275000Y24880000D03*
X8155000Y26200000D03*
X8245000D03*
X8300000Y9340000D03*
X8345000Y15390000D03*
Y21390000D03*
X8365000Y24880000D03*
X8415000Y9340000D03*
X8505000D03*
X8450000Y23985000D03*
X8620000Y9340000D03*
X8655000Y12390000D03*
X8600000Y18080000D03*
Y18250000D03*
X8605000Y18855000D03*
X8540000Y23985000D03*
X8605000Y24880000D03*
X8655000Y26200000D03*
X8710000Y9340000D03*
X8745000Y12390000D03*
X8690000Y18080000D03*
Y18250000D03*
X8695000Y18855000D03*
Y24880000D03*
X8745000Y26200000D03*
X8915000Y9340000D03*
X8825000D03*
X8855000Y15390000D03*
X8925000Y18340000D03*
X8905000Y23990000D03*
Y24090000D03*
X8850000Y27140000D03*
X8975000Y6380000D03*
X8945000Y15390000D03*
X9015000Y18340000D03*
X8995000Y23990000D03*
Y24090000D03*
X9005000Y26200000D03*
X8940000Y27140000D03*
X9065000Y6380000D03*
X9055000Y12390000D03*
X9145000D03*
X9105000Y21390000D03*
Y23990000D03*
Y24090000D03*
Y24880000D03*
X9095000Y26200000D03*
X9275000Y6380000D03*
X9255000Y15390000D03*
X9235000Y18340000D03*
X9195000Y21390000D03*
Y23990000D03*
X9305000D03*
X9195000Y24090000D03*
X9305000D03*
X9195000Y24880000D03*
X9365000Y6380000D03*
X9345000Y15390000D03*
X9325000Y18340000D03*
X9395000Y23990000D03*
Y24090000D03*
X9455000Y12390000D03*
X9545000D03*
X9560000Y18340000D03*
X9555000Y21390000D03*
X9575000Y6380000D03*
X9665000D03*
X9655000Y15390000D03*
X9650000Y18340000D03*
X9645000Y21390000D03*
Y22375000D03*
X9655000Y22785000D03*
X9745000Y15390000D03*
X9810000Y18340000D03*
X9735000Y22375000D03*
X9745000Y22785000D03*
X9875000Y6380000D03*
X9855000Y12390000D03*
X9945000D03*
X9900000Y18340000D03*
X9905000Y21390000D03*
X9895000Y22375000D03*
X9965000Y6380000D03*
X10055000Y15390000D03*
X9995000Y21390000D03*
X9985000Y22375000D03*
X10205000Y1690000D03*
X10210000Y9340000D03*
X10145000Y15390000D03*
X10190000Y18340000D03*
X10295000Y1690000D03*
X10300000Y9340000D03*
X10255000Y12390000D03*
X10345000D03*
X10280000Y18340000D03*
X10305000Y21390000D03*
X10320000Y22425000D03*
X10230000D03*
X10405000Y9340000D03*
X10395000Y21390000D03*
X10605000Y2740000D03*
X10540000Y8780000D03*
X10600000Y9340000D03*
X10495000D03*
X10500000Y18340000D03*
X10590000D03*
X10600000Y22445000D03*
X10510000D03*
X10695000Y2740000D03*
X10630000Y8780000D03*
X10690000Y9340000D03*
X10795000D03*
X10755000Y9560000D03*
X10845000D03*
X10755000Y9700000D03*
X10845000D03*
X10805000Y18340000D03*
X10885000Y9340000D03*
X10895000Y18340000D03*
X10955000Y21390000D03*
X11105000Y18340000D03*
X11045000Y21390000D03*
X11075000Y21880000D03*
X11195000Y9340000D03*
Y18340000D03*
X11155000Y21390000D03*
X11245000D03*
X11165000Y21880000D03*
X11375000Y6380000D03*
X11285000Y9340000D03*
X11345000Y12390000D03*
X11255000Y15390000D03*
X11345000D03*
X11365000Y21390000D03*
X11345000Y26490000D03*
X11255000D03*
X11505000Y1090000D03*
Y1190000D03*
Y3490000D03*
Y3590000D03*
X11465000Y6380000D03*
X11435000Y12390000D03*
X11455000Y15390000D03*
X11480000Y18340000D03*
X11390000D03*
X11455000Y21390000D03*
Y23040000D03*
Y23140000D03*
Y23690000D03*
Y23790000D03*
Y25340000D03*
Y25440000D03*
X11595000Y1090000D03*
Y1190000D03*
X11605000Y1890000D03*
Y1990000D03*
X11595000Y3490000D03*
Y3590000D03*
X11555000Y12390000D03*
X11545000Y15390000D03*
X11570000Y21390000D03*
X11545000Y23040000D03*
Y23140000D03*
Y23690000D03*
Y23790000D03*
Y25340000D03*
Y25440000D03*
X11695000Y1890000D03*
Y1990000D03*
X11675000Y6380000D03*
X11765000D03*
X11645000Y12390000D03*
X11755000D03*
X11655000Y15390000D03*
X11745000D03*
X11660000Y21390000D03*
X11855000Y9690000D03*
X11845000Y12390000D03*
X11855000Y15390000D03*
X11975000Y6380000D03*
X11945000Y9690000D03*
X11955000Y12390000D03*
X11945000Y15390000D03*
X12005000Y23840000D03*
Y23990000D03*
Y25490000D03*
Y25640000D03*
X12105000Y990000D03*
X12055000Y1890000D03*
X12145000D03*
X12055000Y2040000D03*
X12145000D03*
X12105000Y2740000D03*
X12055000Y3640000D03*
X12145000D03*
X12055000Y3790000D03*
X12145000D03*
X12105000Y4540000D03*
X12055000Y5440000D03*
X12145000D03*
X12065000Y6380000D03*
X12045000Y12390000D03*
X12055000Y22940000D03*
X12145000D03*
X12095000Y23840000D03*
Y23990000D03*
X12055000Y24590000D03*
X12145000D03*
X12095000Y25490000D03*
Y25640000D03*
X12195000Y990000D03*
Y2740000D03*
Y4540000D03*
X12275000Y6380000D03*
X12195000Y18345000D03*
X12285000D03*
X12255000Y26490000D03*
X12365000Y6380000D03*
X12405000Y23840000D03*
Y25490000D03*
X12345000Y26490000D03*
X12505000Y990000D03*
X12455000Y1890000D03*
X12545000D03*
X12505000Y2740000D03*
X12455000Y3640000D03*
X12545000D03*
X12505000Y4540000D03*
X12455000Y5440000D03*
X12545000D03*
X12455000Y22940000D03*
X12545000D03*
X12495000Y23840000D03*
X12455000Y24590000D03*
X12545000D03*
X12495000Y25490000D03*
X12595000Y990000D03*
Y2740000D03*
Y4540000D03*
Y17550000D03*
X12755000Y8720000D03*
Y9100000D03*
Y9205000D03*
Y9310000D03*
X12735000Y9515000D03*
Y9415000D03*
X12705000Y10040000D03*
X12795000D03*
X12755000Y10355000D03*
X12730000Y10715000D03*
Y10815000D03*
Y10915000D03*
Y11015000D03*
X12755000Y11185000D03*
X12705000Y15990000D03*
X12795000D03*
X12705000Y15890000D03*
X12795000D03*
Y16090000D03*
X12705000D03*
X12685000Y17550000D03*
X12715000Y19060000D03*
X12805000D03*
X12845000Y8720000D03*
Y9100000D03*
Y9205000D03*
Y9310000D03*
X12825000Y9515000D03*
Y9415000D03*
X12845000Y10355000D03*
X12820000Y10715000D03*
Y10815000D03*
Y10915000D03*
Y11015000D03*
X12845000Y11185000D03*
X13395000Y17580000D03*
X13540000Y9480000D03*
X13485000Y17580000D03*
X13630000Y9480000D03*
X13680000Y27190000D03*
X13770000D03*
X14055000Y23540000D03*
X14145000D03*
G54D21*
X7108560Y21640000D03*
X7158560Y12640000D03*
X7268560Y15190000D03*
X7313560Y6140000D03*
X7341440Y12640000D03*
X7291440Y21640000D03*
X7496440Y6140000D03*
X7451440Y15190000D03*
X7508560Y21640000D03*
X7658560Y12640000D03*
X7663560Y15190000D03*
X7733560Y6140000D03*
X7691440Y21640000D03*
X7916440Y6140000D03*
X7841440Y12640000D03*
X7846440Y15190000D03*
X7908560Y21640000D03*
X8168560Y15195000D03*
X8091440Y21640000D03*
X8351440Y15195000D03*
X8658560Y12640000D03*
X8753560Y6140000D03*
X8936440D03*
X8841440Y12640000D03*
X8873560Y15195000D03*
X9058560Y12640000D03*
X9056440Y15195000D03*
X9008560Y21640000D03*
X9203560Y6140000D03*
X9191440Y21640000D03*
X9241440Y12640000D03*
X9273560Y15190000D03*
X9386440Y6140000D03*
X9458560Y12640000D03*
X9456440Y15190000D03*
X9508560Y21640000D03*
X9653560Y6140000D03*
X9641440Y12640000D03*
X9658560Y15190000D03*
X9691440Y21640000D03*
X9836440Y6140000D03*
X9858560Y12640000D03*
X9841440Y15190000D03*
X9908560Y21640000D03*
X10103560Y6140000D03*
X10041440Y12640000D03*
X10058560Y15190000D03*
X10091440Y21640000D03*
X10241440Y15190000D03*
X10286440Y6140000D03*
X10258560Y12640000D03*
X10308560Y21640000D03*
X10441440Y12640000D03*
X10491440Y21640000D03*
X10948560D03*
X11131440D03*
X11158560Y12640000D03*
X11341440D03*
X11358560Y15190000D03*
Y21640000D03*
X11453560Y6140000D03*
X11541440Y15190000D03*
Y21640000D03*
X11636440Y6140000D03*
X11608560Y12640000D03*
X11791440D03*
X11758560Y15190000D03*
X11903560Y6140000D03*
X11941440Y15190000D03*
X12086440Y6140000D03*
X12158560Y15190000D03*
X12308560Y6140000D03*
X12341440Y15190000D03*
X12491440Y6140000D03*
G54D13*
X523600Y19570000D03*
X563600Y19970000D03*
X713600Y10440000D03*
Y10690000D03*
Y10940000D03*
X703600Y18775000D03*
Y19025000D03*
Y19275000D03*
X696400Y19570000D03*
X736400Y19970000D03*
X703600Y20240000D03*
Y20490000D03*
Y20740000D03*
X886400Y10440000D03*
Y10690000D03*
Y10940000D03*
X876400Y18775000D03*
Y19025000D03*
Y19275000D03*
Y20240000D03*
Y20490000D03*
Y20740000D03*
X2413600Y1090000D03*
Y1240000D03*
Y1390000D03*
Y1540000D03*
Y2390000D03*
Y2540000D03*
Y2690000D03*
Y2840000D03*
Y3690000D03*
Y3840000D03*
Y3990000D03*
Y4140000D03*
Y4990000D03*
Y5140000D03*
Y5290000D03*
Y5440000D03*
Y6290000D03*
Y6440000D03*
Y6590000D03*
Y6740000D03*
Y7590000D03*
Y7740000D03*
Y7890000D03*
Y8040000D03*
Y8890000D03*
Y9040000D03*
Y9190000D03*
Y9340000D03*
Y10190000D03*
Y10340000D03*
Y10490000D03*
Y10640000D03*
Y11490000D03*
Y11640000D03*
Y11790000D03*
Y11940000D03*
Y12790000D03*
Y12940000D03*
Y13090000D03*
Y13240000D03*
Y14490000D03*
Y14640000D03*
Y14790000D03*
Y14940000D03*
Y15790000D03*
Y15940000D03*
Y16090000D03*
Y16240000D03*
Y17090000D03*
Y17240000D03*
Y17390000D03*
Y17540000D03*
Y18390000D03*
Y18540000D03*
Y18690000D03*
Y18840000D03*
Y19690000D03*
Y19840000D03*
Y19990000D03*
Y20140000D03*
Y20990000D03*
Y21140000D03*
Y21290000D03*
Y21440000D03*
Y22290000D03*
Y22440000D03*
Y22590000D03*
Y22740000D03*
Y23590000D03*
Y23740000D03*
Y23890000D03*
Y24040000D03*
Y24890000D03*
Y25040000D03*
Y25190000D03*
Y25340000D03*
Y26190000D03*
Y26340000D03*
Y26490000D03*
Y26640000D03*
X2586400Y1090000D03*
Y1240000D03*
Y1390000D03*
Y1540000D03*
Y2390000D03*
Y2540000D03*
Y2690000D03*
Y2840000D03*
Y3690000D03*
Y3840000D03*
Y3990000D03*
Y4140000D03*
Y4990000D03*
Y5140000D03*
Y5290000D03*
Y5440000D03*
Y6290000D03*
Y6440000D03*
Y6590000D03*
Y6740000D03*
Y7590000D03*
Y7740000D03*
Y7890000D03*
Y8040000D03*
Y8890000D03*
Y9040000D03*
Y9190000D03*
Y9340000D03*
Y10190000D03*
Y10340000D03*
Y10490000D03*
Y10640000D03*
Y11490000D03*
Y11640000D03*
Y11790000D03*
Y11940000D03*
Y12790000D03*
Y12940000D03*
Y13090000D03*
Y13240000D03*
Y14490000D03*
Y14640000D03*
Y14790000D03*
Y14940000D03*
Y15790000D03*
Y15940000D03*
Y16090000D03*
Y16240000D03*
Y17090000D03*
Y17240000D03*
Y17390000D03*
Y17540000D03*
Y18390000D03*
Y18540000D03*
Y18690000D03*
Y18840000D03*
Y19690000D03*
Y19840000D03*
Y19990000D03*
Y20140000D03*
Y20990000D03*
Y21140000D03*
Y21290000D03*
Y21440000D03*
Y22290000D03*
Y22440000D03*
Y22590000D03*
Y22740000D03*
Y23590000D03*
Y23740000D03*
Y23890000D03*
Y24040000D03*
Y24890000D03*
Y25040000D03*
Y25190000D03*
Y25340000D03*
Y26190000D03*
Y26340000D03*
Y26490000D03*
Y26640000D03*
X5063600Y13840000D03*
Y13990000D03*
Y14140000D03*
X5236400Y13840000D03*
Y13990000D03*
Y14140000D03*
X5663600Y13840000D03*
Y13990000D03*
Y14140000D03*
Y14290000D03*
Y21690000D03*
Y21840000D03*
X5836400Y13840000D03*
Y13990000D03*
Y14140000D03*
Y14290000D03*
Y21690000D03*
Y21840000D03*
X6063600Y22090000D03*
Y22240000D03*
X6213600Y13790000D03*
Y13940000D03*
Y14090000D03*
Y14240000D03*
X6236400Y22090000D03*
Y22240000D03*
X6386400Y13790000D03*
Y13940000D03*
Y14090000D03*
Y14240000D03*
X6463600Y22290000D03*
Y22440000D03*
X6636400Y22290000D03*
Y22440000D03*
X7213600Y5090000D03*
Y5240000D03*
Y5440000D03*
Y5590000D03*
Y5790000D03*
Y5940000D03*
X7386400Y5090000D03*
Y5240000D03*
Y5440000D03*
Y5590000D03*
Y5790000D03*
Y5940000D03*
X8223600Y25165000D03*
Y25325000D03*
X8396400Y25165000D03*
Y25325000D03*
X9963600Y24690000D03*
Y24840000D03*
Y24990000D03*
Y25140000D03*
Y25290000D03*
Y25440000D03*
Y25590000D03*
Y25740000D03*
X10136400Y24690000D03*
Y24840000D03*
Y24990000D03*
Y25140000D03*
Y25290000D03*
Y25440000D03*
Y25590000D03*
Y25740000D03*
X10313600Y24590000D03*
Y25840000D03*
Y26090000D03*
Y26340000D03*
Y26590000D03*
X10486400Y24590000D03*
Y25840000D03*
Y26090000D03*
Y26340000D03*
Y26590000D03*
X11363600Y790000D03*
Y940000D03*
Y21850000D03*
X11313600Y22740000D03*
Y22890000D03*
X11513600Y2790000D03*
Y2940000D03*
Y4590000D03*
Y4740000D03*
X11486400Y22740000D03*
Y22890000D03*
X11413600Y24590000D03*
Y24740000D03*
X11536400Y790000D03*
Y940000D03*
Y21850000D03*
X11586400Y24590000D03*
Y24740000D03*
X11713600Y690000D03*
Y840000D03*
Y2440000D03*
Y2590000D03*
X11686400Y2790000D03*
Y2940000D03*
X11713600Y4240000D03*
Y4390000D03*
X11686400Y4590000D03*
Y4740000D03*
X11663600Y22640000D03*
Y22790000D03*
Y24290000D03*
Y24440000D03*
X11886400Y690000D03*
Y840000D03*
Y2440000D03*
Y2590000D03*
Y4240000D03*
Y4390000D03*
X11836400Y22640000D03*
Y22790000D03*
Y24290000D03*
Y24440000D03*
X12013600Y22490000D03*
Y22640000D03*
Y22790000D03*
Y24290000D03*
Y24440000D03*
X12063600Y690000D03*
Y840000D03*
Y2440000D03*
Y2590000D03*
Y4240000D03*
Y4390000D03*
X12236400Y690000D03*
Y840000D03*
Y2440000D03*
Y2590000D03*
Y4240000D03*
Y4390000D03*
X12186400Y22490000D03*
Y22640000D03*
Y22790000D03*
Y24290000D03*
Y24440000D03*
X12718600Y16260000D03*
Y16425000D03*
Y16595000D03*
X12891400Y16260000D03*
Y16425000D03*
Y16595000D03*
X13263600Y26490000D03*
Y26640000D03*
Y26790000D03*
Y26940000D03*
Y27090000D03*
Y27240000D03*
X13436400Y26490000D03*
Y26640000D03*
Y26790000D03*
Y26940000D03*
Y27090000D03*
Y27240000D03*
X15463600Y19140000D03*
Y19340000D03*
X15636400Y19140000D03*
Y19340000D03*
X15863600Y13340000D03*
Y13540000D03*
Y13740000D03*
Y13940000D03*
Y14140000D03*
Y14340000D03*
Y14540000D03*
Y14740000D03*
Y14940000D03*
Y15140000D03*
Y15340000D03*
Y15540000D03*
Y17140000D03*
Y17340000D03*
Y17540000D03*
Y17740000D03*
Y17940000D03*
Y18140000D03*
Y18940000D03*
Y20940000D03*
Y21140000D03*
Y21340000D03*
Y21540000D03*
Y21740000D03*
Y21940000D03*
Y22140000D03*
Y22340000D03*
Y22740000D03*
Y22940000D03*
Y23140000D03*
Y24740000D03*
Y24940000D03*
Y25140000D03*
Y25340000D03*
Y25540000D03*
Y25740000D03*
Y25940000D03*
Y26140000D03*
Y26340000D03*
Y26540000D03*
Y26740000D03*
Y26940000D03*
X16036400Y13340000D03*
Y13540000D03*
Y13740000D03*
Y13940000D03*
Y14140000D03*
Y14340000D03*
Y14540000D03*
Y14740000D03*
Y14940000D03*
Y15140000D03*
Y15340000D03*
Y15540000D03*
Y17140000D03*
Y17340000D03*
Y17540000D03*
Y17740000D03*
Y17940000D03*
Y18140000D03*
Y18940000D03*
Y20940000D03*
Y21140000D03*
Y21340000D03*
Y21540000D03*
Y21740000D03*
Y21940000D03*
Y22140000D03*
Y22340000D03*
Y22740000D03*
Y22940000D03*
Y23140000D03*
Y24740000D03*
Y24940000D03*
Y25140000D03*
Y25340000D03*
Y25540000D03*
Y25740000D03*
Y25940000D03*
Y26140000D03*
Y26340000D03*
Y26540000D03*
Y26740000D03*
Y26940000D03*
X16413600Y20990000D03*
Y21590000D03*
Y21740000D03*
Y21940000D03*
Y22140000D03*
Y22290000D03*
Y22490000D03*
Y22790000D03*
X16613600Y9240000D03*
Y9440000D03*
Y9640000D03*
Y9840000D03*
Y10040000D03*
Y10240000D03*
Y10690000D03*
Y11040000D03*
Y11240000D03*
Y11440000D03*
X16586400Y20990000D03*
Y21590000D03*
Y21740000D03*
Y21940000D03*
Y22140000D03*
Y22290000D03*
Y22490000D03*
Y22790000D03*
X16786400Y9240000D03*
Y9440000D03*
Y9640000D03*
Y9840000D03*
Y10040000D03*
Y10240000D03*
Y10690000D03*
Y11040000D03*
Y11240000D03*
Y11440000D03*
X17313600Y2190000D03*
Y2390000D03*
Y2590000D03*
Y2790000D03*
Y2990000D03*
Y3190000D03*
Y3390000D03*
Y3590000D03*
Y3790000D03*
Y3990000D03*
Y4190000D03*
Y4390000D03*
Y5740000D03*
Y5940000D03*
Y6140000D03*
Y6340000D03*
Y6540000D03*
Y6740000D03*
Y6940000D03*
Y7540000D03*
Y7740000D03*
Y7940000D03*
X17486400Y2190000D03*
Y2390000D03*
Y2590000D03*
Y2790000D03*
Y2990000D03*
Y3190000D03*
Y3390000D03*
Y3590000D03*
Y3790000D03*
Y3990000D03*
Y4190000D03*
Y4390000D03*
Y5740000D03*
Y5940000D03*
Y6140000D03*
Y6340000D03*
Y6540000D03*
Y6740000D03*
Y6940000D03*
Y7540000D03*
Y7740000D03*
Y7940000D03*
G54D22*
X8393720Y25940000D03*
X8556280D03*
X12933720Y9725000D03*
Y9890000D03*
X13096280Y9725000D03*
Y9890000D03*
X13263720Y17970000D03*
Y18130000D03*
X13426280Y17970000D03*
Y18130000D03*
G54D23*
X13850000Y13144000D03*
Y13436000D03*
Y14744000D03*
Y15036000D03*
Y16944000D03*
Y17236000D03*
Y18544000D03*
Y18836000D03*
Y20744000D03*
Y21036000D03*
Y22344000D03*
Y22636000D03*
Y24544000D03*
Y24836000D03*
Y26144000D03*
Y26436000D03*
X14250000Y13144000D03*
Y13436000D03*
Y14744000D03*
Y15036000D03*
Y16944000D03*
Y17236000D03*
Y18544000D03*
Y18836000D03*
Y20744000D03*
Y21036000D03*
Y22344000D03*
Y22636000D03*
Y24544000D03*
Y24836000D03*
Y26144000D03*
Y26436000D03*
X14600000Y9044000D03*
Y9336000D03*
Y10644000D03*
Y10936000D03*
X15000000Y9044000D03*
Y9336000D03*
Y10644000D03*
Y10936000D03*
X15300000Y1994000D03*
Y2286000D03*
Y3594000D03*
Y3886000D03*
Y5544000D03*
Y5836000D03*
Y7144000D03*
Y7436000D03*
X15700000Y1994000D03*
Y2286000D03*
Y3594000D03*
Y3886000D03*
Y5544000D03*
Y5836000D03*
Y7144000D03*
Y7436000D03*
G54D14*
X850000Y15358720D03*
Y15521280D03*
G54D15*
X1380000Y1200000D03*
Y1450000D03*
Y1700000D03*
Y5640000D03*
Y5890000D03*
Y6140000D03*
Y10070000D03*
Y10320000D03*
Y10570000D03*
Y11500000D03*
Y11750000D03*
Y12000000D03*
Y16100000D03*
Y16350000D03*
Y16600000D03*
Y18210000D03*
Y18460000D03*
Y18710000D03*
Y21900000D03*
Y22150000D03*
Y22400000D03*
Y26435000D03*
Y26685000D03*
Y26935000D03*
X1820000Y1200000D03*
Y1450000D03*
Y1700000D03*
Y5640000D03*
Y5890000D03*
Y6140000D03*
Y10070000D03*
Y10320000D03*
Y10570000D03*
Y11500000D03*
Y11750000D03*
Y12000000D03*
Y16100000D03*
Y16350000D03*
Y16600000D03*
Y18210000D03*
Y18460000D03*
Y18710000D03*
Y21900000D03*
Y22150000D03*
Y22400000D03*
Y26435000D03*
Y26685000D03*
Y26935000D03*
G54D24*
X14950000Y12468550D03*
Y12811450D03*
Y16268550D03*
Y16611450D03*
Y20068550D03*
Y20411450D03*
Y23868550D03*
Y24211450D03*
X15350000Y12468550D03*
Y12811450D03*
Y20068550D03*
Y20411450D03*
Y23868550D03*
Y24211450D03*
X15400000Y16268550D03*
Y16611450D03*
X15500000Y8468550D03*
Y8811450D03*
X15750000Y12468550D03*
Y12811450D03*
Y16268550D03*
Y16611450D03*
Y20068550D03*
Y20411450D03*
Y23868550D03*
Y24211450D03*
X15900000Y8468550D03*
Y8811450D03*
X16200000Y1418550D03*
Y1761450D03*
Y4968550D03*
Y5311450D03*
X16150000Y12468550D03*
Y12811450D03*
Y16268550D03*
Y16611450D03*
Y20068550D03*
Y20411450D03*
Y23868550D03*
Y24211450D03*
X16300000Y8468550D03*
Y8811450D03*
X16600000Y1418550D03*
Y1761450D03*
Y4968550D03*
Y5311450D03*
X16700000Y8468550D03*
Y8811450D03*
X17000000Y1418550D03*
Y1761450D03*
Y4968550D03*
Y5311450D03*
X17400000Y1418550D03*
Y1761450D03*
Y4968550D03*
Y5311450D03*
G54D25*
G01X52469400Y-2436240D02*
X52431300Y-2410830D01*
X52386860Y-2393900D01*
X52336050D01*
X52278890Y-2419310D01*
X52234450Y-2461630D01*
X52202700Y-2512440D01*
X52177290Y-2597100D01*
X52170940Y-2673300D01*
X52183650Y-2749500D01*
X52202700Y-2800310D01*
X52240800Y-2851110D01*
X52285250Y-2884970D01*
X52329690Y-2901900D01*
X52374150D01*
X52418600Y-2884970D01*
X52456700Y-2859580D01*
X52488460Y-2825720D01*
G01X52837690Y-2901900D02*
X52799600Y-2893440D01*
X52761500Y-2859580D01*
X52736090Y-2800310D01*
X52723400Y-2732570D01*
X52736090Y-2664840D01*
X52761500Y-2605570D01*
X52799600Y-2571710D01*
X52837690Y-2563240D01*
X52875800Y-2571710D01*
X52913900Y-2605570D01*
X52939300Y-2664840D01*
X52945660Y-2732570D01*
X52939300Y-2800310D01*
X52913900Y-2859580D01*
X52875800Y-2893440D01*
X52837690Y-2901900D01*
G01X53237740D02*
Y-2563240D01*
G01Y-2647910D02*
X53263150Y-2605570D01*
X53301250Y-2571710D01*
X53352050Y-2563240D01*
X53396490Y-2571710D01*
X53434600Y-2605570D01*
X53453660Y-2664840D01*
Y-2901900D01*
G01X53853690Y-2393900D02*
Y-2901900D01*
G01X53764800Y-2563240D02*
X53942600D01*
G01X54476000Y-2901900D02*
Y-2563240D01*
G01Y-2622500D02*
X54450600Y-2588640D01*
X54412490Y-2571710D01*
X54368050Y-2563240D01*
X54323600Y-2580170D01*
X54285500Y-2614030D01*
X54260090Y-2664840D01*
X54247400Y-2732570D01*
X54260090Y-2800310D01*
X54285500Y-2851110D01*
X54323600Y-2884970D01*
X54368050Y-2901900D01*
X54412490Y-2893440D01*
X54450600Y-2868040D01*
X54476000Y-2834180D01*
G01X54971300Y-2605570D02*
X54926860Y-2571710D01*
X54888750Y-2563240D01*
X54837950Y-2580170D01*
X54799850Y-2614030D01*
X54774450Y-2673300D01*
X54768090Y-2732570D01*
X54774450Y-2791840D01*
X54799850Y-2842650D01*
X54837950Y-2884970D01*
X54888750Y-2901900D01*
X54933200Y-2884970D01*
X54971300Y-2851110D01*
G01X55377690Y-2393900D02*
Y-2901900D01*
G01X55288800Y-2563240D02*
X55466600D01*
G01X55885690Y-2918830D02*
X55873000Y-2910360D01*
Y-2893440D01*
X55885690Y-2884970D01*
X55898400Y-2893440D01*
Y-2910360D01*
X55885690Y-2918830D01*
G01Y-2690250D02*
X55873000Y-2681770D01*
Y-2664840D01*
X55885690Y-2656370D01*
X55898400Y-2664840D01*
Y-2681770D01*
X55885690Y-2690250D01*
G01X52154440Y-2081480D02*
Y-1573480D01*
X52281440D01*
X52332240Y-1598890D01*
X52370340Y-1632750D01*
X52402100Y-1683540D01*
X52427490Y-1742820D01*
X52433840Y-1827490D01*
X52427490Y-1912150D01*
X52402100Y-1971420D01*
X52370340Y-2022230D01*
X52332240Y-2056090D01*
X52281440Y-2081480D01*
X52154440D01*
G01X52643380Y-1742820D02*
X52719590Y-2081480D01*
X52802130Y-1742820D01*
X52884690Y-2081480D01*
X52960900Y-1742820D01*
G01X53221240Y-2208480D02*
X53265690Y-2242340D01*
X53316490Y-2250810D01*
X53360930Y-2242340D01*
X53399040Y-2200020D01*
X53424440Y-2140750D01*
Y-1742820D01*
G01Y-1810540D02*
X53399040Y-1776680D01*
X53360930Y-1751290D01*
X53316490Y-1742820D01*
X53265690Y-1759750D01*
X53233940Y-1793610D01*
X53208530Y-1852880D01*
X53195840Y-1912150D01*
X53202180Y-1962960D01*
X53227590Y-2022230D01*
X53265690Y-2064550D01*
X53316490Y-2081480D01*
X53354590Y-2073020D01*
X53399040Y-2039160D01*
X53424440Y-2005300D01*
G01X54180090Y-2081480D02*
Y-1573480D01*
X54472190Y-2081480D01*
Y-1573480D01*
G01X54726180Y-1742820D02*
Y-1979890D01*
X54751590Y-2039160D01*
X54789690Y-2073020D01*
X54834130Y-2081480D01*
X54878590Y-2073020D01*
X54916690Y-2039160D01*
X54942100Y-1979890D01*
G01Y-2081480D02*
Y-1742820D01*
G01X55151640Y-2081480D02*
Y-1742820D01*
G01Y-1835950D02*
X55170690Y-1793610D01*
X55202440Y-1759750D01*
X55246890Y-1742820D01*
X55291330Y-1759750D01*
X55323090Y-1793610D01*
X55342130Y-1835950D01*
Y-2081480D01*
G01Y-1835950D02*
X55361190Y-1793610D01*
X55392930Y-1759750D01*
X55437390Y-1742820D01*
X55481840Y-1759750D01*
X55513590Y-1793610D01*
X55532640Y-1844420D01*
Y-2081480D01*
G01X55735840D02*
Y-1573480D01*
G01Y-1827490D02*
X55767590Y-1776680D01*
X55805690Y-1751290D01*
X55843790Y-1742820D01*
X55900930Y-1759750D01*
X55939040Y-1793610D01*
X55964440Y-1852880D01*
Y-1920620D01*
X55951740Y-1988350D01*
X55926340Y-2039160D01*
X55881890Y-2073020D01*
X55843790Y-2081480D01*
X55805690Y-2073020D01*
X55767590Y-2047620D01*
X55735840Y-2005300D01*
G01X56262890Y-1852880D02*
X56466100D01*
X56447040Y-1793610D01*
X56415300Y-1759750D01*
X56370840Y-1742820D01*
X56326390Y-1751290D01*
X56288290Y-1776680D01*
X56262890Y-1835950D01*
X56250180Y-1886760D01*
Y-1937550D01*
X56262890Y-1988350D01*
X56294640Y-2039160D01*
X56332740Y-2073020D01*
X56377190Y-2081480D01*
X56421640Y-2064550D01*
X56466100Y-2013760D01*
G01X56777240Y-2081480D02*
Y-1742820D01*
G01Y-1810540D02*
X56808980Y-1776680D01*
X56840740Y-1751290D01*
X56885190Y-1742820D01*
X56916930Y-1751290D01*
X56955040Y-1776680D01*
G01X57374130Y-2098410D02*
X57361440Y-2089940D01*
Y-2073020D01*
X57374130Y-2064550D01*
X57386840Y-2073020D01*
Y-2089940D01*
X57374130Y-2098410D01*
G01Y-1869830D02*
X57361440Y-1861350D01*
Y-1844420D01*
X57374130Y-1835950D01*
X57386840Y-1844420D01*
Y-1861350D01*
X57374130Y-1869830D01*
G01X58777490D02*
X58821940Y-1810540D01*
X58860040Y-1776680D01*
X58910840Y-1759750D01*
X58955300Y-1776680D01*
X58987040Y-1810540D01*
X59012440Y-1861350D01*
X59018790Y-1920620D01*
X59012440Y-1971420D01*
X58987040Y-2022230D01*
X58948930Y-2064550D01*
X58904490Y-2081480D01*
X58853690Y-2064550D01*
X58809240Y-2013760D01*
X58783840Y-1937550D01*
X58777490Y-1852880D01*
X58790180Y-1742820D01*
X58809240Y-1683540D01*
X58840980Y-1624280D01*
X58885440Y-1581940D01*
X58929890Y-1573480D01*
X58974340Y-1590410D01*
X59006100Y-1632750D01*
G01X59406130Y-1573480D02*
X59355330Y-1590410D01*
X59317240Y-1632750D01*
X59291840Y-1683540D01*
X59272790Y-1751290D01*
X59266440Y-1827490D01*
X59272790Y-1903690D01*
X59291840Y-1971420D01*
X59317240Y-2022230D01*
X59355330Y-2064550D01*
X59406130Y-2081480D01*
X59456930Y-2064550D01*
X59495040Y-2022230D01*
X59520440Y-1971420D01*
X59539490Y-1903690D01*
X59545840Y-1827490D01*
X59539490Y-1751290D01*
X59520440Y-1683540D01*
X59495040Y-1632750D01*
X59456930Y-1590410D01*
X59406130Y-1573480D01*
G01X59914130Y-2081480D02*
X59958590Y-2073020D01*
X60009390Y-2047620D01*
X60041140Y-2005300D01*
X60053840Y-1946010D01*
X60041140Y-1886760D01*
X60003040Y-1835950D01*
X59945890Y-1810540D01*
X59882390D01*
X59844290Y-1793610D01*
X59812530Y-1751290D01*
X59799840Y-1692020D01*
X59818890Y-1632750D01*
X59863330Y-1590410D01*
X59914130Y-1573480D01*
X59964930Y-1590410D01*
X60009390Y-1632750D01*
X60028440Y-1692020D01*
X60015740Y-1751290D01*
X59983990Y-1793610D01*
X59945890Y-1810540D01*
X59882390D01*
X59825240Y-1835950D01*
X59787140Y-1886760D01*
X59774440Y-1946010D01*
X59787140Y-2005300D01*
X59818890Y-2047620D01*
X59869690Y-2073020D01*
X59914130Y-2081480D01*
G01X60314180Y-2022230D02*
X60358640Y-2064550D01*
X60409440Y-2081480D01*
X60460240Y-2064550D01*
X60504690Y-2013760D01*
X60536440Y-1937550D01*
X60549140Y-1861350D01*
Y-1768220D01*
X60536440Y-1692020D01*
X60504690Y-1624280D01*
X60466590Y-1590410D01*
X60422130Y-1573480D01*
X60371330Y-1590410D01*
X60333240Y-1624280D01*
X60307840Y-1675070D01*
X60295140Y-1742820D01*
X60307840Y-1802080D01*
X60339590Y-1861350D01*
X60377690Y-1895220D01*
X60422130Y-1903690D01*
X60472930Y-1886760D01*
X60511040Y-1844420D01*
X60549140Y-1768220D01*
G01X60847590Y-1912150D02*
X61012690D01*
G01X61438130Y-2081480D02*
Y-1573480D01*
X61361940Y-1675070D01*
G01Y-2081480D02*
X61514330D01*
G01X61825490Y-1658140D02*
X61863590Y-1607350D01*
X61908040Y-1581940D01*
X61958840Y-1573480D01*
X62022340Y-1590410D01*
X62066790Y-1632750D01*
X62079490Y-1683540D01*
X62073140Y-1734360D01*
X62047740Y-1776680D01*
X61920740Y-1861350D01*
X61863590Y-1920620D01*
X61825490Y-2005300D01*
X61812790Y-2081480D01*
X62079490D01*
G01X62441440D02*
X62454130Y-1971420D01*
X62473190Y-1878290D01*
X62498590Y-1793610D01*
X62530340Y-1700480D01*
X62581140Y-1573480D01*
X62327140D01*
G01X62879590Y-1912150D02*
X63044690D01*
G01X63381240Y-2081480D02*
Y-1742820D01*
G01Y-1810540D02*
X63412980Y-1776680D01*
X63444740Y-1751290D01*
X63489190Y-1742820D01*
X63520930Y-1751290D01*
X63559040Y-1776680D01*
G01X63882890Y-1852880D02*
X64086100D01*
X64067040Y-1793610D01*
X64035300Y-1759750D01*
X63990840Y-1742820D01*
X63946390Y-1751290D01*
X63908290Y-1776680D01*
X63882890Y-1835950D01*
X63870180Y-1886760D01*
Y-1937550D01*
X63882890Y-1988350D01*
X63914640Y-2039160D01*
X63952740Y-2073020D01*
X63997190Y-2081480D01*
X64041640Y-2064550D01*
X64086100Y-2013760D01*
G01X64371840Y-1742820D02*
X64486130Y-2081480D01*
X64600440Y-1742820D01*
G01X64835380Y-2081480D02*
X64994130Y-1573480D01*
X65152900Y-2081480D01*
G01X65095740Y-1903690D02*
X64892530D01*
G01X53369830Y-5380110D02*
X53414280Y-5320820D01*
X53452380Y-5286960D01*
X53503180Y-5270030D01*
X53547640Y-5286960D01*
X53579380Y-5320820D01*
X53604780Y-5371630D01*
X53611130Y-5430900D01*
X53604780Y-5481700D01*
X53579380Y-5532510D01*
X53541270Y-5574830D01*
X53496830Y-5591760D01*
X53446030Y-5574830D01*
X53401580Y-5524040D01*
X53376180Y-5447830D01*
X53369830Y-5363160D01*
X53382520Y-5253100D01*
X53401580Y-5193820D01*
X53433320Y-5134560D01*
X53477780Y-5092220D01*
X53522230Y-5083760D01*
X53566680Y-5100690D01*
X53598440Y-5143030D01*
G01X53998470Y-5083760D02*
X53947670Y-5100690D01*
X53909580Y-5143030D01*
X53884180Y-5193820D01*
X53865130Y-5261570D01*
X53858780Y-5337770D01*
X53865130Y-5413970D01*
X53884180Y-5481700D01*
X53909580Y-5532510D01*
X53947670Y-5574830D01*
X53998470Y-5591760D01*
X54049270Y-5574830D01*
X54087380Y-5532510D01*
X54112780Y-5481700D01*
X54131830Y-5413970D01*
X54138180Y-5337770D01*
X54131830Y-5261570D01*
X54112780Y-5193820D01*
X54087380Y-5143030D01*
X54049270Y-5100690D01*
X53998470Y-5083760D01*
G01X54493780Y-5591760D02*
X54506470Y-5481700D01*
X54525530Y-5388570D01*
X54550930Y-5303890D01*
X54582680Y-5210760D01*
X54633480Y-5083760D01*
X54379480D01*
G01X54931930Y-5422430D02*
X55097030D01*
G01X55401830Y-5168420D02*
X55439930Y-5117630D01*
X55484380Y-5092220D01*
X55535180Y-5083760D01*
X55598680Y-5100690D01*
X55643130Y-5143030D01*
X55655830Y-5193820D01*
X55649480Y-5244640D01*
X55624080Y-5286960D01*
X55497080Y-5371630D01*
X55439930Y-5430900D01*
X55401830Y-5515580D01*
X55389130Y-5591760D01*
X55655830D01*
G01X56017780D02*
X56030470Y-5481700D01*
X56049530Y-5388570D01*
X56074930Y-5303890D01*
X56106680Y-5210760D01*
X56157480Y-5083760D01*
X55903480D01*
G01X56417830Y-5168420D02*
X56455930Y-5117630D01*
X56500380Y-5092220D01*
X56551180Y-5083760D01*
X56614680Y-5100690D01*
X56659130Y-5143030D01*
X56671830Y-5193820D01*
X56665480Y-5244640D01*
X56640080Y-5286960D01*
X56513080Y-5371630D01*
X56455930Y-5430900D01*
X56417830Y-5515580D01*
X56405130Y-5591760D01*
X56671830D01*
G01X56963930Y-5422430D02*
X57129030D01*
G01X57554470Y-5591760D02*
Y-5083760D01*
X57478280Y-5185350D01*
G01Y-5591760D02*
X57630670D01*
G01X58049780D02*
X58062470Y-5481700D01*
X58081530Y-5388570D01*
X58106930Y-5303890D01*
X58138680Y-5210760D01*
X58189480Y-5083760D01*
X57935480D01*
G01X58430780Y-5515580D02*
X58468870Y-5557900D01*
X58513320Y-5583300D01*
X58570470Y-5591760D01*
X58627640Y-5574830D01*
X58672080Y-5540970D01*
X58703830Y-5481700D01*
X58710180Y-5413970D01*
X58697480Y-5346230D01*
X58665730Y-5303890D01*
X58621270Y-5270030D01*
X58576830Y-5261570D01*
X58532380Y-5270030D01*
X58475230Y-5303890D01*
X58494280Y-5083760D01*
X58665730D01*
G01X59078470Y-5591760D02*
Y-5083760D01*
X59002280Y-5185350D01*
G01Y-5591760D02*
X59154670D01*
G01X53663200Y-3693540D02*
X53625100Y-3668130D01*
X53580660Y-3651200D01*
X53529850D01*
X53472690Y-3676610D01*
X53428250Y-3718930D01*
X53396500Y-3769740D01*
X53371090Y-3854400D01*
X53364740Y-3930600D01*
X53377450Y-4006800D01*
X53396500Y-4057610D01*
X53434600Y-4108410D01*
X53479050Y-4142270D01*
X53523490Y-4159200D01*
X53567950D01*
X53612400Y-4142270D01*
X53650500Y-4116880D01*
X53682260Y-4083020D01*
G01X54031490Y-4159200D02*
X53993400Y-4150740D01*
X53955300Y-4116880D01*
X53929890Y-4057610D01*
X53917200Y-3989870D01*
X53929890Y-3922140D01*
X53955300Y-3862870D01*
X53993400Y-3829010D01*
X54031490Y-3820540D01*
X54069600Y-3829010D01*
X54107700Y-3862870D01*
X54133100Y-3922140D01*
X54139460Y-3989870D01*
X54133100Y-4057610D01*
X54107700Y-4116880D01*
X54069600Y-4150740D01*
X54031490Y-4159200D01*
G01X54450600D02*
Y-3820540D01*
G01Y-3888260D02*
X54482340Y-3854400D01*
X54514100Y-3829010D01*
X54558550Y-3820540D01*
X54590290Y-3829010D01*
X54628400Y-3854400D01*
G01X54939540Y-4159200D02*
Y-3820540D01*
G01Y-3905210D02*
X54964950Y-3862870D01*
X55003050Y-3829010D01*
X55053850Y-3820540D01*
X55098290Y-3829010D01*
X55136400Y-3862870D01*
X55155460Y-3922140D01*
Y-4159200D01*
G01X55460250Y-3930600D02*
X55663460D01*
X55644400Y-3871330D01*
X55612660Y-3837470D01*
X55568200Y-3820540D01*
X55523750Y-3829010D01*
X55485650Y-3854400D01*
X55460250Y-3913670D01*
X55447540Y-3964480D01*
Y-4015270D01*
X55460250Y-4066070D01*
X55492000Y-4116880D01*
X55530100Y-4150740D01*
X55574550Y-4159200D01*
X55619000Y-4142270D01*
X55663460Y-4091480D01*
G01X56063490Y-4159200D02*
Y-3651200D01*
G01X56571490Y-4159200D02*
Y-3651200D01*
G01X57447800D02*
Y-4015270D01*
X57473200Y-4091480D01*
X57524000Y-4142270D01*
X57587490Y-4159200D01*
X57651000Y-4142270D01*
X57701800Y-4091480D01*
X57727200Y-4015270D01*
Y-3651200D01*
G01X57987540Y-4159200D02*
Y-3820540D01*
G01Y-3905210D02*
X58012950Y-3862870D01*
X58051050Y-3829010D01*
X58101850Y-3820540D01*
X58146290Y-3829010D01*
X58184400Y-3862870D01*
X58203460Y-3922140D01*
Y-4159200D01*
G01X58603490Y-3820540D02*
Y-4159200D01*
G01Y-3685070D02*
X58590800Y-3676610D01*
Y-3659660D01*
X58603490Y-3651200D01*
X58616200Y-3659660D01*
Y-3676610D01*
X58603490Y-3685070D01*
G01X58997200Y-3820540D02*
X59111490Y-4159200D01*
X59225800Y-3820540D01*
G01X59524250Y-3930600D02*
X59727460D01*
X59708400Y-3871330D01*
X59676660Y-3837470D01*
X59632200Y-3820540D01*
X59587750Y-3829010D01*
X59549650Y-3854400D01*
X59524250Y-3913670D01*
X59511540Y-3964480D01*
Y-4015270D01*
X59524250Y-4066070D01*
X59556000Y-4116880D01*
X59594100Y-4150740D01*
X59638550Y-4159200D01*
X59683000Y-4142270D01*
X59727460Y-4091480D01*
G01X60038600Y-4159200D02*
Y-3820540D01*
G01Y-3888260D02*
X60070340Y-3854400D01*
X60102100Y-3829010D01*
X60146550Y-3820540D01*
X60178290Y-3829010D01*
X60216400Y-3854400D01*
G01X60540250Y-4099950D02*
X60572000Y-4133810D01*
X60616450Y-4159200D01*
X60654550D01*
X60692660Y-4142270D01*
X60718050Y-4116880D01*
X60730750Y-4083020D01*
X60724400Y-4032200D01*
X60699000Y-4006800D01*
X60584690Y-3956010D01*
X60559300Y-3896730D01*
X60572000Y-3854400D01*
X60597400Y-3829010D01*
X60635490Y-3820540D01*
X60673600Y-3829010D01*
X60711700Y-3854400D01*
G01X61143490Y-3820540D02*
Y-4159200D01*
G01Y-3685070D02*
X61130800Y-3676610D01*
Y-3659660D01*
X61143490Y-3651200D01*
X61156200Y-3659660D01*
Y-3676610D01*
X61143490Y-3685070D01*
G01X61651490Y-3651200D02*
Y-4159200D01*
G01X61562600Y-3820540D02*
X61740400D01*
G01X62026150Y-4311600D02*
X62064250Y-4328530D01*
X62115050Y-4311600D01*
X62146800Y-4277740D01*
X62172200Y-4235400D01*
X62210290Y-4099950D01*
X62292850Y-3820540D01*
G01X62089650D02*
X62210290Y-4099950D01*
G01X53642880Y-4480090D02*
X53598440Y-4446230D01*
X53560330Y-4437760D01*
X53509530Y-4454690D01*
X53471430Y-4488550D01*
X53446030Y-4547820D01*
X53439670Y-4607090D01*
X53446030Y-4666360D01*
X53471430Y-4717170D01*
X53509530Y-4759490D01*
X53560330Y-4776420D01*
X53604780Y-4759490D01*
X53642880Y-4725630D01*
G01X53960380Y-4776420D02*
Y-4437760D01*
G01Y-4505480D02*
X53992120Y-4471620D01*
X54023880Y-4446230D01*
X54068330Y-4437760D01*
X54100070Y-4446230D01*
X54138180Y-4471620D01*
G01X54462030Y-4717170D02*
X54493780Y-4751030D01*
X54538230Y-4776420D01*
X54576330D01*
X54614440Y-4759490D01*
X54639830Y-4734100D01*
X54652530Y-4700240D01*
X54646180Y-4649420D01*
X54620780Y-4624020D01*
X54506470Y-4573230D01*
X54481080Y-4513950D01*
X54493780Y-4471620D01*
X54519180Y-4446230D01*
X54557270Y-4437760D01*
X54595380Y-4446230D01*
X54633480Y-4471620D01*
G01X54925580Y-4700240D02*
X54963670Y-4742560D01*
X55008120Y-4767960D01*
X55065270Y-4776420D01*
X55122440Y-4759490D01*
X55166880Y-4725630D01*
X55198630Y-4666360D01*
X55204980Y-4598630D01*
X55192280Y-4530890D01*
X55160530Y-4488550D01*
X55116070Y-4454690D01*
X55071630Y-4446230D01*
X55027180Y-4454690D01*
X54970030Y-4488550D01*
X54989080Y-4268420D01*
X55160530D01*
G01X55668530Y-4691760D02*
X55605030Y-4776420D01*
X55541530D01*
X55478030Y-4691760D01*
Y-4522430D01*
X55541530Y-4437760D01*
X55605030D01*
X55668530Y-4522430D01*
Y-4691760D01*
X55712980Y-4759490D01*
X55763780Y-4691760D01*
Y-4353080D01*
X55700280Y-4268420D01*
X55446280D01*
X55382780Y-4353080D01*
Y-4861080D01*
X55446280Y-4945750D01*
X55700280D01*
X55763780Y-4861080D01*
G01X56182880Y-4480090D02*
X56138440Y-4446230D01*
X56100330Y-4437760D01*
X56049530Y-4454690D01*
X56011430Y-4488550D01*
X55986030Y-4547820D01*
X55979670Y-4607090D01*
X55986030Y-4666360D01*
X56011430Y-4717170D01*
X56049530Y-4759490D01*
X56100330Y-4776420D01*
X56144780Y-4759490D01*
X56182880Y-4725630D01*
G01X56589270Y-4776420D02*
X56551180Y-4767960D01*
X56513080Y-4734100D01*
X56487670Y-4674830D01*
X56474980Y-4607090D01*
X56487670Y-4539360D01*
X56513080Y-4480090D01*
X56551180Y-4446230D01*
X56589270Y-4437760D01*
X56627380Y-4446230D01*
X56665480Y-4480090D01*
X56690880Y-4539360D01*
X56697240Y-4607090D01*
X56690880Y-4674830D01*
X56665480Y-4734100D01*
X56627380Y-4767960D01*
X56589270Y-4776420D01*
G01X57008380D02*
Y-4437760D01*
G01Y-4505480D02*
X57040120Y-4471620D01*
X57071880Y-4446230D01*
X57116330Y-4437760D01*
X57148070Y-4446230D01*
X57186180Y-4471620D01*
G01X57497320Y-4776420D02*
Y-4437760D01*
G01Y-4522430D02*
X57522730Y-4480090D01*
X57560830Y-4446230D01*
X57611630Y-4437760D01*
X57656070Y-4446230D01*
X57694180Y-4480090D01*
X57713240Y-4539360D01*
Y-4776420D01*
G01X58018030Y-4547820D02*
X58221240D01*
X58202180Y-4488550D01*
X58170440Y-4454690D01*
X58125980Y-4437760D01*
X58081530Y-4446230D01*
X58043430Y-4471620D01*
X58018030Y-4530890D01*
X58005320Y-4581700D01*
Y-4632490D01*
X58018030Y-4683290D01*
X58049780Y-4734100D01*
X58087880Y-4767960D01*
X58132330Y-4776420D01*
X58176780Y-4759490D01*
X58221240Y-4708700D01*
G01X58621270Y-4776420D02*
Y-4268420D01*
G01X59129270Y-4776420D02*
Y-4268420D01*
G01X59637270Y-4793350D02*
X59624580Y-4784880D01*
Y-4767960D01*
X59637270Y-4759490D01*
X59649980Y-4767960D01*
Y-4784880D01*
X59637270Y-4793350D01*
G01X60050030Y-4547820D02*
X60253240D01*
X60234180Y-4488550D01*
X60202440Y-4454690D01*
X60157980Y-4437760D01*
X60113530Y-4446230D01*
X60075430Y-4471620D01*
X60050030Y-4530890D01*
X60037320Y-4581700D01*
Y-4632490D01*
X60050030Y-4683290D01*
X60081780Y-4734100D01*
X60119880Y-4767960D01*
X60164330Y-4776420D01*
X60208780Y-4759490D01*
X60253240Y-4708700D01*
G01X60767580Y-4268420D02*
Y-4776420D01*
G01Y-4700240D02*
X60742180Y-4742560D01*
X60704070Y-4767960D01*
X60659630Y-4776420D01*
X60608830Y-4759490D01*
X60570730Y-4717170D01*
X60545320Y-4666360D01*
X60538980Y-4607090D01*
X60545320Y-4547820D01*
X60570730Y-4497020D01*
X60608830Y-4454690D01*
X60659630Y-4437760D01*
X60704070Y-4446230D01*
X60735830Y-4463160D01*
X60767580Y-4497020D01*
G01X61053320Y-4437760D02*
Y-4674830D01*
X61078730Y-4734100D01*
X61116830Y-4767960D01*
X61161270Y-4776420D01*
X61205730Y-4767960D01*
X61243830Y-4734100D01*
X61269240Y-4674830D01*
G01Y-4776420D02*
Y-4437760D01*
G01X53696220Y-3045840D02*
X53658120Y-3020430D01*
X53613680Y-3003500D01*
X53562870D01*
X53505710Y-3028910D01*
X53461270Y-3071230D01*
X53429520Y-3122040D01*
X53404110Y-3206700D01*
X53397760Y-3282900D01*
X53410470Y-3359100D01*
X53429520Y-3409910D01*
X53467620Y-3460710D01*
X53512070Y-3494570D01*
X53556510Y-3511500D01*
X53600970D01*
X53645420Y-3494570D01*
X53683520Y-3469180D01*
X53715280Y-3435320D01*
G01X53956560Y-3511500D02*
Y-3003500D01*
G01Y-3249030D02*
X53988320Y-3206700D01*
X54020070Y-3181310D01*
X54070870Y-3172840D01*
X54108970Y-3181310D01*
X54153420Y-3215170D01*
X54172480Y-3265970D01*
Y-3511500D01*
G01X54686820D02*
Y-3172840D01*
G01Y-3232100D02*
X54661420Y-3198240D01*
X54623310Y-3181310D01*
X54578870Y-3172840D01*
X54534420Y-3189770D01*
X54496320Y-3223630D01*
X54470910Y-3274440D01*
X54458220Y-3342170D01*
X54470910Y-3409910D01*
X54496320Y-3460710D01*
X54534420Y-3494570D01*
X54578870Y-3511500D01*
X54623310Y-3503040D01*
X54661420Y-3477640D01*
X54686820Y-3443780D01*
G01X54991620Y-3511500D02*
Y-3172840D01*
G01Y-3240560D02*
X55023360Y-3206700D01*
X55055120Y-3181310D01*
X55099570Y-3172840D01*
X55131310Y-3181310D01*
X55169420Y-3206700D01*
G01X55588510Y-3511500D02*
Y-3003500D01*
G01X56096510Y-3172840D02*
Y-3511500D01*
G01Y-3037370D02*
X56083820Y-3028910D01*
Y-3011960D01*
X56096510Y-3003500D01*
X56109220Y-3011960D01*
Y-3028910D01*
X56096510Y-3037370D01*
G01X56509270Y-3282900D02*
X56712480D01*
X56693420Y-3223630D01*
X56661680Y-3189770D01*
X56617220Y-3172840D01*
X56572770Y-3181310D01*
X56534670Y-3206700D01*
X56509270Y-3265970D01*
X56496560Y-3316780D01*
Y-3367570D01*
X56509270Y-3418370D01*
X56541020Y-3469180D01*
X56579120Y-3503040D01*
X56623570Y-3511500D01*
X56668020Y-3494570D01*
X56712480Y-3443780D01*
G01X57487170D02*
X57537970Y-3486110D01*
X57595120Y-3511500D01*
X57645920D01*
X57696720Y-3486110D01*
X57734820Y-3443780D01*
X57753870Y-3384500D01*
X57741170Y-3325240D01*
X57709420Y-3274440D01*
X57652270Y-3240560D01*
X57576070Y-3223630D01*
X57531620Y-3189770D01*
X57512560Y-3130500D01*
X57525270Y-3071230D01*
X57557020Y-3028910D01*
X57601470Y-3003500D01*
X57645920D01*
X57690370Y-3020430D01*
X57728480Y-3062770D01*
G01X58128510Y-3003500D02*
Y-3511500D01*
G01X58039620Y-3172840D02*
X58217420D01*
G01X58547620Y-3511500D02*
Y-3172840D01*
G01Y-3240560D02*
X58579360Y-3206700D01*
X58611120Y-3181310D01*
X58655570Y-3172840D01*
X58687310Y-3181310D01*
X58725420Y-3206700D01*
G01X59144510Y-3511500D02*
X59106420Y-3503040D01*
X59068320Y-3469180D01*
X59042910Y-3409910D01*
X59030220Y-3342170D01*
X59042910Y-3274440D01*
X59068320Y-3215170D01*
X59106420Y-3181310D01*
X59144510Y-3172840D01*
X59182620Y-3181310D01*
X59220720Y-3215170D01*
X59246120Y-3274440D01*
X59252480Y-3342170D01*
X59246120Y-3409910D01*
X59220720Y-3469180D01*
X59182620Y-3503040D01*
X59144510Y-3511500D01*
G01X59544560D02*
Y-3003500D01*
G01Y-3249030D02*
X59576320Y-3206700D01*
X59608070Y-3181310D01*
X59658870Y-3172840D01*
X59696970Y-3181310D01*
X59741420Y-3215170D01*
X59760480Y-3265970D01*
Y-3511500D01*
G01X59970020D02*
Y-3172840D01*
G01Y-3265970D02*
X59989070Y-3223630D01*
X60020820Y-3189770D01*
X60065270Y-3172840D01*
X60109710Y-3189770D01*
X60141470Y-3223630D01*
X60160510Y-3265970D01*
Y-3511500D01*
G01Y-3265970D02*
X60179570Y-3223630D01*
X60211310Y-3189770D01*
X60255770Y-3172840D01*
X60300220Y-3189770D01*
X60331970Y-3223630D01*
X60351020Y-3274440D01*
Y-3511500D01*
G01X60782820D02*
Y-3172840D01*
G01Y-3232100D02*
X60757420Y-3198240D01*
X60719310Y-3181310D01*
X60674870Y-3172840D01*
X60630420Y-3189770D01*
X60592320Y-3223630D01*
X60566910Y-3274440D01*
X60554220Y-3342170D01*
X60566910Y-3409910D01*
X60592320Y-3460710D01*
X60630420Y-3494570D01*
X60674870Y-3511500D01*
X60719310Y-3503040D01*
X60757420Y-3477640D01*
X60782820Y-3443780D01*
G01X61068560Y-3511500D02*
Y-3172840D01*
G01Y-3257510D02*
X61093970Y-3215170D01*
X61132070Y-3181310D01*
X61182870Y-3172840D01*
X61227310Y-3181310D01*
X61265420Y-3215170D01*
X61284480Y-3274440D01*
Y-3511500D01*
G54D16*
X1980000Y15435000D03*
Y15345000D03*
X2800000Y780000D03*
Y870000D03*
Y1810000D03*
Y1900000D03*
Y2080000D03*
Y2170000D03*
Y3110000D03*
Y3200000D03*
Y3380000D03*
Y3470000D03*
Y4410000D03*
Y4500000D03*
Y4680000D03*
Y4770000D03*
Y5710000D03*
Y5800000D03*
Y5980000D03*
Y6070000D03*
Y7010000D03*
Y7100000D03*
Y7280000D03*
Y7370000D03*
Y8310000D03*
Y8400000D03*
Y8580000D03*
Y8670000D03*
Y9610000D03*
Y9700000D03*
Y9880000D03*
Y9970000D03*
Y10910000D03*
Y11000000D03*
Y11180000D03*
Y11270000D03*
Y12210000D03*
Y12300000D03*
Y12480000D03*
Y12570000D03*
Y13510000D03*
Y13600000D03*
Y14180000D03*
Y14270000D03*
Y15210000D03*
Y15300000D03*
Y15480000D03*
Y15570000D03*
Y16600000D03*
Y16510000D03*
Y16780000D03*
Y16870000D03*
Y17900000D03*
Y17810000D03*
Y18080000D03*
Y18170000D03*
Y19200000D03*
Y19110000D03*
Y19380000D03*
Y19470000D03*
Y20500000D03*
Y20410000D03*
Y20680000D03*
Y20770000D03*
Y21795000D03*
Y21705000D03*
Y21980000D03*
Y22070000D03*
Y23100000D03*
Y23010000D03*
Y23280000D03*
Y23370000D03*
Y24310000D03*
Y24400000D03*
Y24580000D03*
Y24670000D03*
Y25615000D03*
Y25705000D03*
Y25880000D03*
Y25970000D03*
Y26910000D03*
Y27000000D03*
X3000000Y3795000D03*
Y3885000D03*
Y10295000D03*
Y10385000D03*
Y17195000D03*
Y17285000D03*
Y23695000D03*
Y23785000D03*
X3900000Y985000D03*
Y895000D03*
Y2195000D03*
Y2285000D03*
Y2895000D03*
Y2985000D03*
Y3495000D03*
Y3585000D03*
Y3935000D03*
Y3845000D03*
Y5495000D03*
Y5585000D03*
Y6095000D03*
Y6185000D03*
Y6795000D03*
Y6885000D03*
Y7395000D03*
Y7485000D03*
Y8695000D03*
Y8785000D03*
Y9485000D03*
Y9395000D03*
Y9995000D03*
Y10085000D03*
Y10345000D03*
Y10435000D03*
Y11295000D03*
Y11385000D03*
Y12595000D03*
Y12685000D03*
Y13385000D03*
Y13295000D03*
Y14295000D03*
Y14385000D03*
Y15595000D03*
Y15685000D03*
Y16295000D03*
Y16385000D03*
Y16895000D03*
Y16985000D03*
Y17245000D03*
Y17335000D03*
Y18285000D03*
Y18195000D03*
Y18895000D03*
Y18985000D03*
Y19585000D03*
Y19495000D03*
Y20885000D03*
Y20795000D03*
Y22185000D03*
Y22095000D03*
Y22795000D03*
Y22885000D03*
Y23485000D03*
Y23395000D03*
Y23745000D03*
Y23835000D03*
Y24785000D03*
Y24695000D03*
Y25995000D03*
Y26085000D03*
Y26695000D03*
Y26785000D03*
X6700000Y6885000D03*
Y6975000D03*
Y7125000D03*
Y7215000D03*
Y7475000D03*
Y7565000D03*
Y7715000D03*
Y7805000D03*
X6725000Y7950000D03*
Y8040000D03*
Y8150000D03*
Y8240000D03*
X6700000Y8355000D03*
Y8445000D03*
Y8565000D03*
Y8655000D03*
Y9095000D03*
Y9185000D03*
Y9495000D03*
Y9585000D03*
Y9895000D03*
Y9985000D03*
Y10125000D03*
Y10215000D03*
Y10335000D03*
Y10425000D03*
Y10695000D03*
Y10785000D03*
X6730000Y10900000D03*
Y10990000D03*
X6700000Y11295000D03*
Y11385000D03*
Y11495000D03*
Y11585000D03*
Y11695000D03*
Y11785000D03*
Y11895000D03*
Y11985000D03*
Y16095000D03*
Y16185000D03*
Y16295000D03*
Y16385000D03*
Y16495000D03*
Y16585000D03*
Y16695000D03*
Y16785000D03*
Y16945000D03*
Y17035000D03*
Y17145000D03*
Y17235000D03*
Y17745000D03*
Y17835000D03*
Y17945000D03*
Y18035000D03*
Y18145000D03*
Y18235000D03*
Y19045000D03*
Y19135000D03*
Y19245000D03*
Y19335000D03*
Y19445000D03*
Y19535000D03*
Y19645000D03*
Y19735000D03*
Y19845000D03*
Y19935000D03*
Y20045000D03*
Y20245000D03*
Y20135000D03*
Y20335000D03*
Y20445000D03*
Y20645000D03*
Y20535000D03*
Y20735000D03*
Y20845000D03*
Y20935000D03*
X6825000Y16695000D03*
Y16785000D03*
Y19845000D03*
Y19935000D03*
X6870000Y7825000D03*
Y7915000D03*
Y10905000D03*
Y10995000D03*
X6945000Y22290000D03*
Y22200000D03*
X7000000Y25995000D03*
Y26085000D03*
Y26245000D03*
Y26335000D03*
X7050000Y26595000D03*
Y26685000D03*
Y26845000D03*
Y26935000D03*
X7000000Y27095000D03*
Y27185000D03*
Y27345000D03*
Y27435000D03*
X7195000Y22290000D03*
Y22200000D03*
X7150000Y25945000D03*
Y26035000D03*
Y26195000D03*
Y26285000D03*
X7200000Y26545000D03*
Y26635000D03*
Y26795000D03*
Y26885000D03*
X7150000Y27045000D03*
Y27135000D03*
Y27295000D03*
Y27385000D03*
X7445000Y22290000D03*
Y22200000D03*
X7695000Y22290000D03*
Y22200000D03*
X7995000Y22290000D03*
Y22200000D03*
X7990000Y25035000D03*
Y25125000D03*
Y25445000D03*
Y25535000D03*
Y25895000D03*
Y25985000D03*
X8245000Y22290000D03*
Y22200000D03*
X8495000Y22290000D03*
Y22200000D03*
X8465000Y27200000D03*
Y27290000D03*
X8655000Y15390000D03*
Y15480000D03*
X8755000Y15390000D03*
Y15480000D03*
X8745000Y22290000D03*
Y22200000D03*
X8705000Y23995000D03*
Y24085000D03*
X9055000Y15390000D03*
Y15480000D03*
X9045000Y22290000D03*
Y22200000D03*
X9155000Y15390000D03*
Y15480000D03*
X9220000Y5765000D03*
Y5675000D03*
X9310000Y25045000D03*
Y25135000D03*
Y25545000D03*
Y25455000D03*
Y25995000D03*
Y26085000D03*
X9445000Y15390000D03*
Y15480000D03*
X9395000Y22290000D03*
Y22200000D03*
X9535000Y1945000D03*
Y2035000D03*
X9550000Y15390000D03*
Y15480000D03*
X9650000Y7785000D03*
Y7875000D03*
Y8105000D03*
Y8195000D03*
Y10130000D03*
Y10220000D03*
Y10495000D03*
Y10585000D03*
Y10920000D03*
Y11010000D03*
Y16800000D03*
Y16890000D03*
Y17075000D03*
Y17165000D03*
X9655000Y17600000D03*
Y17690000D03*
X9650000Y19285000D03*
Y19375000D03*
X9655000Y19735000D03*
Y19645000D03*
Y19980000D03*
Y19890000D03*
X9955000Y15390000D03*
X9850000D03*
X9955000Y15480000D03*
X9850000D03*
X10250000Y15390000D03*
X10350000D03*
X10250000Y15480000D03*
X10350000D03*
X10470000Y12345000D03*
Y12435000D03*
X10580000Y12345000D03*
Y12435000D03*
X10680000Y12345000D03*
Y12435000D03*
X10830000Y12345000D03*
Y12435000D03*
X10930000Y12345000D03*
Y12435000D03*
X11050000Y12345000D03*
Y12435000D03*
X11750000Y1095000D03*
Y1185000D03*
Y3495000D03*
Y3695000D03*
Y3585000D03*
Y3785000D03*
X11700000Y23045000D03*
Y23135000D03*
Y23695000D03*
Y23785000D03*
Y23895000D03*
Y23985000D03*
X11650000Y25345000D03*
Y25435000D03*
X11900000Y1195000D03*
Y1285000D03*
X11850000Y1895000D03*
Y1985000D03*
X11900000Y3035000D03*
Y2945000D03*
Y4835000D03*
Y4745000D03*
X11850000Y5445000D03*
Y5535000D03*
Y23145000D03*
Y23235000D03*
Y24885000D03*
Y24795000D03*
X12250000Y2135000D03*
Y2045000D03*
Y3795000D03*
Y3885000D03*
X12200000Y23995000D03*
Y24085000D03*
Y25645000D03*
Y25735000D03*
X12350000Y2135000D03*
Y2045000D03*
Y3795000D03*
Y3885000D03*
X12300000Y23995000D03*
Y24085000D03*
Y25645000D03*
Y25735000D03*
X12520000Y7725000D03*
Y7815000D03*
X12525000Y11020000D03*
Y11110000D03*
X12535000Y16795000D03*
Y16885000D03*
X12525000Y19970000D03*
Y19880000D03*
X12800000Y995000D03*
Y1085000D03*
Y1195000D03*
Y1285000D03*
Y1495000D03*
Y1585000D03*
Y1745000D03*
Y1835000D03*
Y2745000D03*
Y2835000D03*
Y3035000D03*
Y2945000D03*
Y3245000D03*
Y3335000D03*
Y3495000D03*
Y3585000D03*
Y4545000D03*
Y4635000D03*
Y4835000D03*
Y4745000D03*
Y5045000D03*
Y5135000D03*
Y5295000D03*
Y5385000D03*
X12725000Y6880000D03*
Y6970000D03*
Y7080000D03*
Y7170000D03*
Y7280000D03*
Y7370000D03*
Y7655000D03*
Y7745000D03*
Y7855000D03*
Y7945000D03*
Y8055000D03*
Y8145000D03*
Y8895000D03*
Y8985000D03*
Y9645000D03*
Y9735000D03*
Y9850000D03*
Y9940000D03*
Y10160000D03*
Y10250000D03*
Y10495000D03*
Y10585000D03*
Y11295000D03*
Y11385000D03*
Y11495000D03*
Y11585000D03*
Y11720000D03*
Y11810000D03*
Y11950000D03*
Y12040000D03*
X12700000Y16745000D03*
Y16835000D03*
Y16945000D03*
Y17035000D03*
Y17145000D03*
Y17235000D03*
Y17345000D03*
Y17435000D03*
Y17745000D03*
Y17835000D03*
Y17945000D03*
Y18035000D03*
Y18145000D03*
Y18235000D03*
Y18345000D03*
Y18435000D03*
Y19185000D03*
Y19275000D03*
Y19945000D03*
Y20035000D03*
Y20145000D03*
Y20235000D03*
Y20345000D03*
Y20435000D03*
Y20545000D03*
Y20635000D03*
X12750000Y22945000D03*
Y23035000D03*
Y23145000D03*
Y23235000D03*
Y23445000D03*
Y23535000D03*
Y23695000D03*
Y23785000D03*
Y24595000D03*
Y24685000D03*
Y24885000D03*
Y24795000D03*
Y25095000D03*
Y25185000D03*
Y25345000D03*
Y25435000D03*
X13110000Y18000000D03*
Y18090000D03*
X13900000Y11045000D03*
Y11135000D03*
Y11435000D03*
Y11345000D03*
Y11795000D03*
Y11885000D03*
Y12095000D03*
Y12185000D03*
Y15495000D03*
Y15585000D03*
Y15795000D03*
Y15885000D03*
Y16245000D03*
Y16335000D03*
Y16635000D03*
Y16545000D03*
Y19295000D03*
Y19385000D03*
Y19595000D03*
Y19685000D03*
Y20095000D03*
Y20185000D03*
Y20485000D03*
Y20395000D03*
X14300000Y10895000D03*
Y10985000D03*
Y11095000D03*
Y11185000D03*
Y11295000D03*
Y11385000D03*
Y11645000D03*
Y11735000D03*
Y11845000D03*
Y11935000D03*
Y12045000D03*
Y12135000D03*
Y15345000D03*
Y15435000D03*
Y15545000D03*
Y15635000D03*
Y15745000D03*
Y15835000D03*
Y16095000D03*
Y16185000D03*
Y16295000D03*
Y16385000D03*
Y16495000D03*
Y16585000D03*
Y19145000D03*
Y19235000D03*
Y19345000D03*
Y19435000D03*
Y19545000D03*
Y19635000D03*
Y19945000D03*
Y20035000D03*
Y20145000D03*
Y20235000D03*
Y20345000D03*
Y20435000D03*
X14550000Y7545000D03*
Y7635000D03*
Y7935000D03*
Y7845000D03*
Y8345000D03*
Y8435000D03*
Y8735000D03*
Y8645000D03*
X14950000Y7395000D03*
Y7485000D03*
Y7595000D03*
Y7685000D03*
Y7795000D03*
Y7885000D03*
Y8195000D03*
Y8285000D03*
Y8395000D03*
Y8485000D03*
Y8595000D03*
Y8685000D03*
X17010000Y17640000D03*
Y17550000D03*
X17730000Y16485000D03*
Y16395000D03*
G54D26*
G01X-2701680Y36375580D02*
Y-6610000D01*
X67550000D01*
Y36375580D01*
X-2701680D01*
G01X0Y0D02*
Y27780000D01*
X17797000D01*
X17997000Y27580000D01*
Y199500D01*
X17797000Y0D01*
X0D01*
G01X-2701680Y36375580D02*
Y-6610000D01*
X67550000D01*
Y36375580D01*
X-2701680D01*
G54D17*
X3350000Y823960D03*
Y956040D03*
Y1623960D03*
Y1756040D03*
Y2123960D03*
Y2256040D03*
Y2923960D03*
Y3056040D03*
Y3423960D03*
Y3556040D03*
Y3823960D03*
Y3956040D03*
Y4223960D03*
Y4356040D03*
Y4723960D03*
Y4856040D03*
Y5523960D03*
Y5656040D03*
Y6023960D03*
Y6156040D03*
Y6823960D03*
Y6956040D03*
Y7323960D03*
Y7456040D03*
Y8123960D03*
Y8256040D03*
Y8623960D03*
Y8756040D03*
Y9423960D03*
Y9556040D03*
Y9923960D03*
Y10056040D03*
Y10323960D03*
Y10456040D03*
Y10723960D03*
Y10856040D03*
Y11223960D03*
Y11356040D03*
Y12023960D03*
Y12156040D03*
Y12523960D03*
Y12656040D03*
Y13323960D03*
Y13456040D03*
Y14223960D03*
Y14356040D03*
Y15023960D03*
Y15156040D03*
Y15523960D03*
Y15656040D03*
Y16323960D03*
Y16456040D03*
Y16823960D03*
Y16956040D03*
Y17223960D03*
Y17356040D03*
Y17623960D03*
Y17756040D03*
Y18123960D03*
Y18256040D03*
Y18923960D03*
Y19056040D03*
Y19423960D03*
Y19556040D03*
Y20223960D03*
Y20356040D03*
Y20723960D03*
Y20856040D03*
Y21523960D03*
Y21656040D03*
Y22023960D03*
Y22156040D03*
Y22823960D03*
Y22956040D03*
Y23323960D03*
Y23456040D03*
Y23723960D03*
Y23856040D03*
Y24123960D03*
Y24256040D03*
Y24623960D03*
Y24756040D03*
Y25423960D03*
Y25556040D03*
Y25923960D03*
Y26056040D03*
Y26723960D03*
Y26856040D03*
X3950000Y1623960D03*
Y1756040D03*
Y4223960D03*
Y4356040D03*
X3900000Y4793960D03*
Y4926040D03*
X3950000Y8123960D03*
Y8256040D03*
Y10723960D03*
Y10856040D03*
Y12023960D03*
Y12156040D03*
Y15023960D03*
Y15156040D03*
Y17623960D03*
Y17756040D03*
Y20223960D03*
Y20356040D03*
Y21523960D03*
Y21656040D03*
Y24123960D03*
Y24256040D03*
Y25423960D03*
Y25556040D03*
X4050000Y2173960D03*
Y2306040D03*
Y2873960D03*
Y3006040D03*
Y3873960D03*
Y4006040D03*
Y6073960D03*
Y6206040D03*
Y6773960D03*
Y6906040D03*
Y8673960D03*
Y8806040D03*
Y9373960D03*
Y9506040D03*
Y10373960D03*
Y10506040D03*
Y12573960D03*
Y12706040D03*
Y13273960D03*
Y13406040D03*
Y15573960D03*
Y15706040D03*
Y16273960D03*
Y16406040D03*
Y17273960D03*
Y17406040D03*
Y18873960D03*
Y19006040D03*
Y19473960D03*
Y19606040D03*
Y22073960D03*
Y22206040D03*
Y22773960D03*
Y22906040D03*
Y23773960D03*
Y23906040D03*
Y25973960D03*
Y26106040D03*
Y26673960D03*
Y26806040D03*
G54D18*
X3558600Y890000D03*
Y1590000D03*
Y2190000D03*
Y2890000D03*
Y3490000D03*
Y3840000D03*
Y4190000D03*
Y4790000D03*
Y5490000D03*
Y6090000D03*
Y6790000D03*
Y7390000D03*
Y8090000D03*
Y8690000D03*
Y9390000D03*
Y9990000D03*
Y10340000D03*
Y10690000D03*
Y11290000D03*
Y11990000D03*
Y12590000D03*
Y13290000D03*
Y14290000D03*
Y14990000D03*
Y15590000D03*
Y16290000D03*
Y16890000D03*
Y17240000D03*
Y17590000D03*
Y18190000D03*
Y18890000D03*
Y19490000D03*
Y20190000D03*
Y20790000D03*
Y21490000D03*
Y22090000D03*
Y22790000D03*
Y23390000D03*
Y23740000D03*
Y24090000D03*
Y24690000D03*
Y25390000D03*
Y25990000D03*
Y26690000D03*
X3741400Y890000D03*
Y1590000D03*
Y2190000D03*
Y2890000D03*
Y3490000D03*
Y3840000D03*
Y4190000D03*
Y4790000D03*
Y5490000D03*
Y6090000D03*
Y6790000D03*
Y7390000D03*
Y8090000D03*
Y8690000D03*
Y9390000D03*
Y9990000D03*
Y10340000D03*
Y10690000D03*
Y11290000D03*
Y11990000D03*
Y12590000D03*
Y13290000D03*
Y14290000D03*
Y14990000D03*
Y15590000D03*
Y16290000D03*
Y16890000D03*
Y17240000D03*
Y17590000D03*
Y18190000D03*
Y18890000D03*
Y19490000D03*
Y20190000D03*
Y20790000D03*
Y21490000D03*
Y22090000D03*
Y22790000D03*
Y23390000D03*
Y23740000D03*
Y24090000D03*
Y24690000D03*
Y25390000D03*
Y25990000D03*
Y26690000D03*
G54D19*
X5639200Y17040000D03*
Y17140000D03*
Y17240000D03*
Y17340000D03*
Y17440000D03*
Y17540000D03*
Y17640000D03*
Y17740000D03*
Y17840000D03*
Y17940000D03*
X5960800Y17040000D03*
Y17140000D03*
Y17240000D03*
Y17340000D03*
Y17440000D03*
Y17540000D03*
Y17640000D03*
Y17740000D03*
Y17840000D03*
Y17940000D03*
X13489200Y8140000D03*
Y8340000D03*
Y8240000D03*
Y8440000D03*
Y8540000D03*
Y8740000D03*
Y8640000D03*
Y8840000D03*
Y8940000D03*
Y9040000D03*
X13810800Y8140000D03*
Y8340000D03*
Y8240000D03*
Y8440000D03*
Y8540000D03*
Y8740000D03*
Y8640000D03*
Y8840000D03*
Y8940000D03*
Y9040000D03*
M02*
