G04 ================== begin FILE IDENTIFICATION RECORD ==================*
G04 Layout Name:  D:/6089-127_CM_V3/Orcad/allegro/6089-127-reva_20.brd*
G04 Film Name:    SOLDERMASK_TOP*
G04 File Format:  Gerber RS274X*
G04 File Origin:  Cadence Allegro 17.4-S030*
G04 Origin Date:  Tue Jan  2 10:29:28 2024*
G04 *
G04 Layer:  BOARD GEOMETRY/DESIGN_OUTLINE*
G04 Layer:  DRAWING FORMAT/TITLE_DATA*
G04 Layer:  MANUFACTURING/PHOTOPLOT_OUTLINE*
G04 Layer:  PIN/SOLDERMASK_TOP*
G04 Layer:  PACKAGE GEOMETRY/SOLDERMASK_TOP*
G04 Layer:  BOARD GEOMETRY/SOLDERMASK_TOP*
G04 *
G04 Offset:    (0.0000 0.0000)*
G04 Mirror:    No*
G04 Mode:      Positive*
G04 Rotation:  0*
G04 FullContactRelief:  No*
G04 UndefLineWidth:     0.1270*
G04 ================== end FILE IDENTIFICATION RECORD ====================*
%FSLAX25Y25*MOMM*%
%IR0*IPPOS*OFA0.00000B0.00000*MIA0B0*SFA1.00000B1.00000*%
%ADD101R,1.4X.6*%
%ADD46R,1.24X.6*%
%ADD100R,1.62X.6*%
%ADD11R,1.15X.75*%
%ADD72R,.381X1.651*%
%ADD29R,.762X1.27*%
%ADD74R,1.27X.762*%
%ADD71R,1.651X.381*%
%ADD66C,.6502*%
%ADD52R,1.016X.4572*%
%AMMACRO51*
4,1,31,-.235,-.62,
-.342662,-.610581,
-.447052,-.582609,
-.545,-.536936,
-.633528,-.474948,
-.709948,-.398528,
-.771936,-.31,
-.817609,-.212052,
-.845581,-.107662,
-.855,0.0,
-.845581,.107662,
-.817609,.212052,
-.771936,.31,
-.709948,.398528,
-.633528,.474948,
-.545,.536936,
-.447052,.582609,
-.342662,.610581,
-.235,.62,
.855,.62,
.855,-.162,
.830168,-.208285,
.808069,-.255935,
.788778,-.30479,
.77236,-.354684,
.758871,-.405447,
.748357,-.45691,
.740852,-.508896,
.736384,-.561231,
.734965,-.613738,
.735,-.62,
-.235,-.62,
0.0*
%
%ADD51MACRO51*%
%ADD35R,.762X2.3622*%
%ADD57O,.762X1.7272*%
%ADD40R,2.3622X.762*%
%ADD21R,1.143X.9652*%
%ADD38O,1.7272X.762*%
%ADD20R,.9652X1.143*%
%ADD75R,.6604X1.3716*%
%ADD56R,.762X1.7272*%
%ADD39R,1.7272X.762*%
%ADD95R,1.651X.8636*%
%ADD60R,1.2192X.6096*%
%ADD26R,2.0574X.4572*%
%ADD25R,1.0414X.5588*%
%AMMACRO84*
4,1,40,.3048,.2032,
-.3048,.2032,
-.326853,.201271,
-.348237,.195541,
-.3683,.186185,
-.386434,.173488,
-.402088,.157834,
-.414785,.1397,
-.424141,.119637,
-.429871,.098253,
-.4318,.0762,
-.4318,-.0762,
-.429871,-.098253,
-.424141,-.119637,
-.414785,-.1397,
-.402088,-.157834,
-.386434,-.173488,
-.3683,-.186185,
-.348237,-.195541,
-.326853,-.201271,
-.3048,-.2032,
.3048,-.2032,
.326853,-.201271,
.348237,-.195541,
.3683,-.186185,
.386434,-.173488,
.402088,-.157834,
.414785,-.1397,
.424141,-.119637,
.429871,-.098253,
.4318,-.0762,
.4318,.0762,
.429871,.098253,
.424141,.119637,
.414785,.1397,
.402088,.157834,
.386434,.173488,
.3683,.186185,
.348237,.195541,
.326853,.201271,
.3048,.2032,
0.0*
%
%ADD84MACRO84*%
%ADD53R,1.1684X.4572*%
%ADD24R,1.5494X.6604*%
%ADD17R,1.7526X.4572*%
%ADD78O,.5588X1.1684*%
%ADD65O,1.1684X.5588*%
%ADD79R,.5588X1.1684*%
%ADD64R,1.1684X.5588*%
%AMMACRO50*
4,1,21,-.235,-.62,
-.342662,-.610581,
-.447052,-.582609,
-.545,-.536936,
-.633528,-.474948,
-.709948,-.398528,
-.771936,-.31,
-.817609,-.212052,
-.845581,-.107662,
-.855,0.0,
-.845581,.107662,
-.817609,.212052,
-.771936,.31,
-.709948,.398528,
-.633528,.474948,
-.545,.536936,
-.447052,.582609,
-.342662,.610581,
-.235,.62,
.855,.62,
.855,-.62,
-.235,-.62,
0.0*
%
%ADD50MACRO50*%
%ADD15R,.7874X2.4892*%
%ADD14C,2.032*%
%ADD102C,1.25*%
%ADD99C,1.7*%
%ADD28R,2.54X1.524*%
%ADD97C,3.7*%
%ADD54R,1.524X2.54*%
%ADD47C,1.144*%
%ADD44C,5.23*%
%ADD12R,.7X.75*%
%ADD98C,2.56*%
%ADD94C,1.75*%
%ADD32R,.715X.35*%
%ADD23C,2.0066*%
%ADD10C,1.905*%
%ADD89R,2.7X2.7*%
%ADD67R,1.6002X1.2954*%
%ADD58C,6.604*%
%ADD90R,2.2606X3.048*%
%ADD76R,2.1082X1.7018*%
%ADD63R,1.2954X1.6002*%
%ADD42R,.85X.76*%
%ADD91R,3.048X2.2606*%
%AMMACRO49*
4,1,5,-.91,1.055,
-.91,-1.055,
.34,-1.055,
.91,-.485,
.91,1.055,
-.91,1.055,
0.0*
%
%ADD49MACRO49*%
%ADD22C,1.1684*%
%AMMACRO48*
4,1,5,-.91,1.055,
-.91,-1.055,
.91,-1.055,
.91,.485,
.34,1.055,
-.91,1.055,
0.0*
%
%ADD48MACRO48*%
%ADD19C,2.667*%
%ADD77R,1.2446X2.0574*%
%ADD61C,1.1938*%
%ADD43R,.762X.6604*%
%ADD41R,1.1684X1.1176*%
%ADD27R,1.905X1.905*%
%ADD34R,.6604X.762*%
%ADD30R,1.1176X1.1684*%
%ADD18C,1.5494*%
%ADD82R,1.9304X1.9304*%
%ADD96R,1.651X3.0988*%
%ADD88R,.4064X.9652*%
%ADD87R,.9652X.4064*%
%ADD81O,.4572X.9652*%
%ADD62R,.4572X.8128*%
%ADD45R,2.3622X3.6576*%
%ADD85R,.8636X.4064*%
%ADD80O,.9652X.4572*%
%ADD70R,.8128X.4572*%
%ADD37R,3.6576X2.3622*%
%ADD31R,.7112X.5588*%
%ADD16R,3.9624X2.6416*%
%ADD13R,1.1684X1.6764*%
%ADD86R,1.8034X1.4986*%
%ADD73R,1.5494X1.2954*%
%ADD55R,1.2446X1.9558*%
%ADD36C,5.9944*%
%ADD68R,1.1938X1.5494*%
%ADD33R,1.9558X1.2446*%
%ADD83R,1.4478X1.1938*%
%ADD59R,2.3876X1.9812*%
%ADD92R,1.7526X3.6576*%
%ADD69R,1.9812X2.3876*%
%ADD93R,3.6576X1.7526*%
%ADD103C,.2*%
%ADD104C,.127*%
G75*
%LPD*%
G75*
G36*
G01X7050000Y4070000D02*
Y3910000D01*
X7180000D01*
Y4070000D01*
X7050000D01*
G37*
G36*
G01Y4270000D02*
Y4110000D01*
X7180000D01*
Y4270000D01*
X7050000D01*
G37*
G36*
G01Y22970000D02*
Y22810000D01*
X7180000D01*
Y22970000D01*
X7050000D01*
G37*
G36*
G01Y23170000D02*
Y23010000D01*
X7180000D01*
Y23170000D01*
X7050000D01*
G37*
G36*
G01X7220000Y4070000D02*
Y3910000D01*
X7350000D01*
Y4070000D01*
X7220000D01*
G37*
G36*
G01Y4270000D02*
Y4110000D01*
X7350000D01*
Y4270000D01*
X7220000D01*
G37*
G36*
G01Y22970000D02*
Y22810000D01*
X7350000D01*
Y22970000D01*
X7220000D01*
G37*
G36*
G01Y23170000D02*
Y23010000D01*
X7350000D01*
Y23170000D01*
X7220000D01*
G37*
G36*
G01X12100000Y1330000D02*
Y1190000D01*
X12240000D01*
Y1330000D01*
X12100000D01*
G37*
G36*
G01Y1510000D02*
Y1370000D01*
X12240000D01*
Y1510000D01*
X12100000D01*
G37*
G36*
G01Y1690000D02*
Y1550000D01*
X12240000D01*
Y1690000D01*
X12100000D01*
G37*
G36*
G01Y3080000D02*
Y2940000D01*
X12240000D01*
Y3080000D01*
X12100000D01*
G37*
G36*
G01Y3260000D02*
Y3120000D01*
X12240000D01*
Y3260000D01*
X12100000D01*
G37*
G36*
G01Y3440000D02*
Y3300000D01*
X12240000D01*
Y3440000D01*
X12100000D01*
G37*
G36*
G01Y4880000D02*
Y4740000D01*
X12240000D01*
Y4880000D01*
X12100000D01*
G37*
G36*
G01Y5060000D02*
Y4920000D01*
X12240000D01*
Y5060000D01*
X12100000D01*
G37*
G36*
G01Y5240000D02*
Y5100000D01*
X12240000D01*
Y5240000D01*
X12100000D01*
G37*
G36*
G01X12050000Y23280000D02*
Y23140000D01*
X12190000D01*
Y23280000D01*
X12050000D01*
G37*
G36*
G01Y23460000D02*
Y23320000D01*
X12190000D01*
Y23460000D01*
X12050000D01*
G37*
G36*
G01Y23640000D02*
Y23500000D01*
X12190000D01*
Y23640000D01*
X12050000D01*
G37*
G36*
G01Y24930000D02*
Y24790000D01*
X12190000D01*
Y24930000D01*
X12050000D01*
G37*
G36*
G01Y25110000D02*
Y24970000D01*
X12190000D01*
Y25110000D01*
X12050000D01*
G37*
G36*
G01Y25290000D02*
Y25150000D01*
X12190000D01*
Y25290000D01*
X12050000D01*
G37*
G36*
G01X12230000Y23280000D02*
Y23140000D01*
X12370000D01*
Y23280000D01*
X12230000D01*
G37*
G36*
G01Y23460000D02*
Y23320000D01*
X12370000D01*
Y23460000D01*
X12230000D01*
G37*
G36*
G01Y23640000D02*
Y23500000D01*
X12370000D01*
Y23640000D01*
X12230000D01*
G37*
G36*
G01Y24930000D02*
Y24790000D01*
X12370000D01*
Y24930000D01*
X12230000D01*
G37*
G36*
G01Y25110000D02*
Y24970000D01*
X12370000D01*
Y25110000D01*
X12230000D01*
G37*
G36*
G01Y25290000D02*
Y25150000D01*
X12370000D01*
Y25290000D01*
X12230000D01*
G37*
G36*
G01X12280000Y1330000D02*
Y1190000D01*
X12420000D01*
Y1330000D01*
X12280000D01*
G37*
G36*
G01Y1510000D02*
Y1370000D01*
X12420000D01*
Y1510000D01*
X12280000D01*
G37*
G36*
G01Y1690000D02*
Y1550000D01*
X12420000D01*
Y1690000D01*
X12280000D01*
G37*
G36*
G01Y3080000D02*
Y2940000D01*
X12420000D01*
Y3080000D01*
X12280000D01*
G37*
G36*
G01Y3260000D02*
Y3120000D01*
X12420000D01*
Y3260000D01*
X12280000D01*
G37*
G36*
G01Y3440000D02*
Y3300000D01*
X12420000D01*
Y3440000D01*
X12280000D01*
G37*
G36*
G01Y4880000D02*
Y4740000D01*
X12420000D01*
Y4880000D01*
X12280000D01*
G37*
G36*
G01Y5060000D02*
Y4920000D01*
X12420000D01*
Y5060000D01*
X12280000D01*
G37*
G36*
G01Y5240000D02*
Y5100000D01*
X12420000D01*
Y5240000D01*
X12280000D01*
G37*
G36*
G01X12460000Y1330000D02*
Y1190000D01*
X12600000D01*
Y1330000D01*
X12460000D01*
G37*
G36*
G01Y1510000D02*
Y1370000D01*
X12600000D01*
Y1510000D01*
X12460000D01*
G37*
G36*
G01Y1690000D02*
Y1550000D01*
X12600000D01*
Y1690000D01*
X12460000D01*
G37*
G36*
G01Y3080000D02*
Y2940000D01*
X12600000D01*
Y3080000D01*
X12460000D01*
G37*
G36*
G01Y3260000D02*
Y3120000D01*
X12600000D01*
Y3260000D01*
X12460000D01*
G37*
G36*
G01Y3440000D02*
Y3300000D01*
X12600000D01*
Y3440000D01*
X12460000D01*
G37*
G36*
G01Y4880000D02*
Y4740000D01*
X12600000D01*
Y4880000D01*
X12460000D01*
G37*
G36*
G01Y5060000D02*
Y4920000D01*
X12600000D01*
Y5060000D01*
X12460000D01*
G37*
G36*
G01Y5240000D02*
Y5100000D01*
X12600000D01*
Y5240000D01*
X12460000D01*
G37*
G36*
G01X12410000Y23280000D02*
Y23140000D01*
X12550000D01*
Y23280000D01*
X12410000D01*
G37*
G36*
G01Y23460000D02*
Y23320000D01*
X12550000D01*
Y23460000D01*
X12410000D01*
G37*
G36*
G01Y23640000D02*
Y23500000D01*
X12550000D01*
Y23640000D01*
X12410000D01*
G37*
G36*
G01Y24930000D02*
Y24790000D01*
X12550000D01*
Y24930000D01*
X12410000D01*
G37*
G36*
G01Y25110000D02*
Y24970000D01*
X12550000D01*
Y25110000D01*
X12410000D01*
G37*
G36*
G01Y25290000D02*
Y25150000D01*
X12550000D01*
Y25290000D01*
X12410000D01*
G37*
G54D100*
X17564000Y10922500D03*
Y11002500D03*
Y11082500D03*
Y11162500D03*
Y11242500D03*
Y11322500D03*
Y11402500D03*
Y11482500D03*
Y11562500D03*
Y11642500D03*
Y11722500D03*
Y11802500D03*
Y11882500D03*
Y24812500D03*
Y24892500D03*
Y24972500D03*
Y25052500D03*
Y25132500D03*
Y25212500D03*
Y25292500D03*
Y25372500D03*
Y25452500D03*
Y25532500D03*
Y25612500D03*
Y25692500D03*
Y25772500D03*
G54D101*
X17743000Y10922500D03*
Y11002500D03*
Y11082500D03*
Y11162500D03*
Y11242500D03*
Y11322500D03*
Y11402500D03*
Y11482500D03*
Y11562500D03*
Y11642500D03*
Y11722500D03*
Y11802500D03*
Y11882500D03*
Y24812500D03*
Y24892500D03*
Y24972500D03*
Y25052500D03*
Y25132500D03*
Y25212500D03*
Y25292500D03*
Y25372500D03*
Y25452500D03*
Y25532500D03*
Y25612500D03*
Y25692500D03*
Y25772500D03*
G54D102*
X17805000Y10582500D03*
Y12222500D03*
Y24472500D03*
Y26112500D03*
G54D103*
G01X52469400Y-2436240D02*
X52431300Y-2410830D01*
X52386860Y-2393900D01*
X52336050D01*
X52278890Y-2419310D01*
X52234450Y-2461630D01*
X52202700Y-2512440D01*
X52177290Y-2597100D01*
X52170940Y-2673300D01*
X52183650Y-2749500D01*
X52202700Y-2800310D01*
X52240800Y-2851110D01*
X52285250Y-2884970D01*
X52329690Y-2901900D01*
X52374150D01*
X52418600Y-2884970D01*
X52456700Y-2859580D01*
X52488460Y-2825720D01*
G01X52837690Y-2901900D02*
X52799600Y-2893440D01*
X52761500Y-2859580D01*
X52736090Y-2800310D01*
X52723400Y-2732570D01*
X52736090Y-2664840D01*
X52761500Y-2605570D01*
X52799600Y-2571710D01*
X52837690Y-2563240D01*
X52875800Y-2571710D01*
X52913900Y-2605570D01*
X52939300Y-2664840D01*
X52945660Y-2732570D01*
X52939300Y-2800310D01*
X52913900Y-2859580D01*
X52875800Y-2893440D01*
X52837690Y-2901900D01*
G01X53237740D02*
Y-2563240D01*
G01Y-2647910D02*
X53263150Y-2605570D01*
X53301250Y-2571710D01*
X53352050Y-2563240D01*
X53396490Y-2571710D01*
X53434600Y-2605570D01*
X53453660Y-2664840D01*
Y-2901900D01*
G01X53853690Y-2393900D02*
Y-2901900D01*
G01X53764800Y-2563240D02*
X53942600D01*
G01X54476000Y-2901900D02*
Y-2563240D01*
G01Y-2622500D02*
X54450600Y-2588640D01*
X54412490Y-2571710D01*
X54368050Y-2563240D01*
X54323600Y-2580170D01*
X54285500Y-2614030D01*
X54260090Y-2664840D01*
X54247400Y-2732570D01*
X54260090Y-2800310D01*
X54285500Y-2851110D01*
X54323600Y-2884970D01*
X54368050Y-2901900D01*
X54412490Y-2893440D01*
X54450600Y-2868040D01*
X54476000Y-2834180D01*
G01X54971300Y-2605570D02*
X54926860Y-2571710D01*
X54888750Y-2563240D01*
X54837950Y-2580170D01*
X54799850Y-2614030D01*
X54774450Y-2673300D01*
X54768090Y-2732570D01*
X54774450Y-2791840D01*
X54799850Y-2842650D01*
X54837950Y-2884970D01*
X54888750Y-2901900D01*
X54933200Y-2884970D01*
X54971300Y-2851110D01*
G01X55377690Y-2393900D02*
Y-2901900D01*
G01X55288800Y-2563240D02*
X55466600D01*
G01X55885690Y-2918830D02*
X55873000Y-2910360D01*
Y-2893440D01*
X55885690Y-2884970D01*
X55898400Y-2893440D01*
Y-2910360D01*
X55885690Y-2918830D01*
G01Y-2690250D02*
X55873000Y-2681770D01*
Y-2664840D01*
X55885690Y-2656370D01*
X55898400Y-2664840D01*
Y-2681770D01*
X55885690Y-2690250D01*
G01X52154440Y-2081480D02*
Y-1573480D01*
X52281440D01*
X52332240Y-1598890D01*
X52370340Y-1632750D01*
X52402100Y-1683540D01*
X52427490Y-1742820D01*
X52433840Y-1827490D01*
X52427490Y-1912150D01*
X52402100Y-1971420D01*
X52370340Y-2022230D01*
X52332240Y-2056090D01*
X52281440Y-2081480D01*
X52154440D01*
G01X52643380Y-1742820D02*
X52719590Y-2081480D01*
X52802130Y-1742820D01*
X52884690Y-2081480D01*
X52960900Y-1742820D01*
G01X53221240Y-2208480D02*
X53265690Y-2242340D01*
X53316490Y-2250810D01*
X53360930Y-2242340D01*
X53399040Y-2200020D01*
X53424440Y-2140750D01*
Y-1742820D01*
G01Y-1810540D02*
X53399040Y-1776680D01*
X53360930Y-1751290D01*
X53316490Y-1742820D01*
X53265690Y-1759750D01*
X53233940Y-1793610D01*
X53208530Y-1852880D01*
X53195840Y-1912150D01*
X53202180Y-1962960D01*
X53227590Y-2022230D01*
X53265690Y-2064550D01*
X53316490Y-2081480D01*
X53354590Y-2073020D01*
X53399040Y-2039160D01*
X53424440Y-2005300D01*
G01X54180090Y-2081480D02*
Y-1573480D01*
X54472190Y-2081480D01*
Y-1573480D01*
G01X54726180Y-1742820D02*
Y-1979890D01*
X54751590Y-2039160D01*
X54789690Y-2073020D01*
X54834130Y-2081480D01*
X54878590Y-2073020D01*
X54916690Y-2039160D01*
X54942100Y-1979890D01*
G01Y-2081480D02*
Y-1742820D01*
G01X55151640Y-2081480D02*
Y-1742820D01*
G01Y-1835950D02*
X55170690Y-1793610D01*
X55202440Y-1759750D01*
X55246890Y-1742820D01*
X55291330Y-1759750D01*
X55323090Y-1793610D01*
X55342130Y-1835950D01*
Y-2081480D01*
G01Y-1835950D02*
X55361190Y-1793610D01*
X55392930Y-1759750D01*
X55437390Y-1742820D01*
X55481840Y-1759750D01*
X55513590Y-1793610D01*
X55532640Y-1844420D01*
Y-2081480D01*
G01X55735840D02*
Y-1573480D01*
G01Y-1827490D02*
X55767590Y-1776680D01*
X55805690Y-1751290D01*
X55843790Y-1742820D01*
X55900930Y-1759750D01*
X55939040Y-1793610D01*
X55964440Y-1852880D01*
Y-1920620D01*
X55951740Y-1988350D01*
X55926340Y-2039160D01*
X55881890Y-2073020D01*
X55843790Y-2081480D01*
X55805690Y-2073020D01*
X55767590Y-2047620D01*
X55735840Y-2005300D01*
G01X56262890Y-1852880D02*
X56466100D01*
X56447040Y-1793610D01*
X56415300Y-1759750D01*
X56370840Y-1742820D01*
X56326390Y-1751290D01*
X56288290Y-1776680D01*
X56262890Y-1835950D01*
X56250180Y-1886760D01*
Y-1937550D01*
X56262890Y-1988350D01*
X56294640Y-2039160D01*
X56332740Y-2073020D01*
X56377190Y-2081480D01*
X56421640Y-2064550D01*
X56466100Y-2013760D01*
G01X56777240Y-2081480D02*
Y-1742820D01*
G01Y-1810540D02*
X56808980Y-1776680D01*
X56840740Y-1751290D01*
X56885190Y-1742820D01*
X56916930Y-1751290D01*
X56955040Y-1776680D01*
G01X57374130Y-2098410D02*
X57361440Y-2089940D01*
Y-2073020D01*
X57374130Y-2064550D01*
X57386840Y-2073020D01*
Y-2089940D01*
X57374130Y-2098410D01*
G01Y-1869830D02*
X57361440Y-1861350D01*
Y-1844420D01*
X57374130Y-1835950D01*
X57386840Y-1844420D01*
Y-1861350D01*
X57374130Y-1869830D01*
G01X58777490D02*
X58821940Y-1810540D01*
X58860040Y-1776680D01*
X58910840Y-1759750D01*
X58955300Y-1776680D01*
X58987040Y-1810540D01*
X59012440Y-1861350D01*
X59018790Y-1920620D01*
X59012440Y-1971420D01*
X58987040Y-2022230D01*
X58948930Y-2064550D01*
X58904490Y-2081480D01*
X58853690Y-2064550D01*
X58809240Y-2013760D01*
X58783840Y-1937550D01*
X58777490Y-1852880D01*
X58790180Y-1742820D01*
X58809240Y-1683540D01*
X58840980Y-1624280D01*
X58885440Y-1581940D01*
X58929890Y-1573480D01*
X58974340Y-1590410D01*
X59006100Y-1632750D01*
G01X59406130Y-1573480D02*
X59355330Y-1590410D01*
X59317240Y-1632750D01*
X59291840Y-1683540D01*
X59272790Y-1751290D01*
X59266440Y-1827490D01*
X59272790Y-1903690D01*
X59291840Y-1971420D01*
X59317240Y-2022230D01*
X59355330Y-2064550D01*
X59406130Y-2081480D01*
X59456930Y-2064550D01*
X59495040Y-2022230D01*
X59520440Y-1971420D01*
X59539490Y-1903690D01*
X59545840Y-1827490D01*
X59539490Y-1751290D01*
X59520440Y-1683540D01*
X59495040Y-1632750D01*
X59456930Y-1590410D01*
X59406130Y-1573480D01*
G01X59914130Y-2081480D02*
X59958590Y-2073020D01*
X60009390Y-2047620D01*
X60041140Y-2005300D01*
X60053840Y-1946010D01*
X60041140Y-1886760D01*
X60003040Y-1835950D01*
X59945890Y-1810540D01*
X59882390D01*
X59844290Y-1793610D01*
X59812530Y-1751290D01*
X59799840Y-1692020D01*
X59818890Y-1632750D01*
X59863330Y-1590410D01*
X59914130Y-1573480D01*
X59964930Y-1590410D01*
X60009390Y-1632750D01*
X60028440Y-1692020D01*
X60015740Y-1751290D01*
X59983990Y-1793610D01*
X59945890Y-1810540D01*
X59882390D01*
X59825240Y-1835950D01*
X59787140Y-1886760D01*
X59774440Y-1946010D01*
X59787140Y-2005300D01*
X59818890Y-2047620D01*
X59869690Y-2073020D01*
X59914130Y-2081480D01*
G01X60314180Y-2022230D02*
X60358640Y-2064550D01*
X60409440Y-2081480D01*
X60460240Y-2064550D01*
X60504690Y-2013760D01*
X60536440Y-1937550D01*
X60549140Y-1861350D01*
Y-1768220D01*
X60536440Y-1692020D01*
X60504690Y-1624280D01*
X60466590Y-1590410D01*
X60422130Y-1573480D01*
X60371330Y-1590410D01*
X60333240Y-1624280D01*
X60307840Y-1675070D01*
X60295140Y-1742820D01*
X60307840Y-1802080D01*
X60339590Y-1861350D01*
X60377690Y-1895220D01*
X60422130Y-1903690D01*
X60472930Y-1886760D01*
X60511040Y-1844420D01*
X60549140Y-1768220D01*
G01X60847590Y-1912150D02*
X61012690D01*
G01X61438130Y-2081480D02*
Y-1573480D01*
X61361940Y-1675070D01*
G01Y-2081480D02*
X61514330D01*
G01X61825490Y-1658140D02*
X61863590Y-1607350D01*
X61908040Y-1581940D01*
X61958840Y-1573480D01*
X62022340Y-1590410D01*
X62066790Y-1632750D01*
X62079490Y-1683540D01*
X62073140Y-1734360D01*
X62047740Y-1776680D01*
X61920740Y-1861350D01*
X61863590Y-1920620D01*
X61825490Y-2005300D01*
X61812790Y-2081480D01*
X62079490D01*
G01X62441440D02*
X62454130Y-1971420D01*
X62473190Y-1878290D01*
X62498590Y-1793610D01*
X62530340Y-1700480D01*
X62581140Y-1573480D01*
X62327140D01*
G01X62879590Y-1912150D02*
X63044690D01*
G01X63381240Y-2081480D02*
Y-1742820D01*
G01Y-1810540D02*
X63412980Y-1776680D01*
X63444740Y-1751290D01*
X63489190Y-1742820D01*
X63520930Y-1751290D01*
X63559040Y-1776680D01*
G01X63882890Y-1852880D02*
X64086100D01*
X64067040Y-1793610D01*
X64035300Y-1759750D01*
X63990840Y-1742820D01*
X63946390Y-1751290D01*
X63908290Y-1776680D01*
X63882890Y-1835950D01*
X63870180Y-1886760D01*
Y-1937550D01*
X63882890Y-1988350D01*
X63914640Y-2039160D01*
X63952740Y-2073020D01*
X63997190Y-2081480D01*
X64041640Y-2064550D01*
X64086100Y-2013760D01*
G01X64371840Y-1742820D02*
X64486130Y-2081480D01*
X64600440Y-1742820D01*
G01X64835380Y-2081480D02*
X64994130Y-1573480D01*
X65152900Y-2081480D01*
G01X65095740Y-1903690D02*
X64892530D01*
G01X53369830Y-5380110D02*
X53414280Y-5320820D01*
X53452380Y-5286960D01*
X53503180Y-5270030D01*
X53547640Y-5286960D01*
X53579380Y-5320820D01*
X53604780Y-5371630D01*
X53611130Y-5430900D01*
X53604780Y-5481700D01*
X53579380Y-5532510D01*
X53541270Y-5574830D01*
X53496830Y-5591760D01*
X53446030Y-5574830D01*
X53401580Y-5524040D01*
X53376180Y-5447830D01*
X53369830Y-5363160D01*
X53382520Y-5253100D01*
X53401580Y-5193820D01*
X53433320Y-5134560D01*
X53477780Y-5092220D01*
X53522230Y-5083760D01*
X53566680Y-5100690D01*
X53598440Y-5143030D01*
G01X53998470Y-5083760D02*
X53947670Y-5100690D01*
X53909580Y-5143030D01*
X53884180Y-5193820D01*
X53865130Y-5261570D01*
X53858780Y-5337770D01*
X53865130Y-5413970D01*
X53884180Y-5481700D01*
X53909580Y-5532510D01*
X53947670Y-5574830D01*
X53998470Y-5591760D01*
X54049270Y-5574830D01*
X54087380Y-5532510D01*
X54112780Y-5481700D01*
X54131830Y-5413970D01*
X54138180Y-5337770D01*
X54131830Y-5261570D01*
X54112780Y-5193820D01*
X54087380Y-5143030D01*
X54049270Y-5100690D01*
X53998470Y-5083760D01*
G01X54493780Y-5591760D02*
X54506470Y-5481700D01*
X54525530Y-5388570D01*
X54550930Y-5303890D01*
X54582680Y-5210760D01*
X54633480Y-5083760D01*
X54379480D01*
G01X54931930Y-5422430D02*
X55097030D01*
G01X55401830Y-5168420D02*
X55439930Y-5117630D01*
X55484380Y-5092220D01*
X55535180Y-5083760D01*
X55598680Y-5100690D01*
X55643130Y-5143030D01*
X55655830Y-5193820D01*
X55649480Y-5244640D01*
X55624080Y-5286960D01*
X55497080Y-5371630D01*
X55439930Y-5430900D01*
X55401830Y-5515580D01*
X55389130Y-5591760D01*
X55655830D01*
G01X56017780D02*
X56030470Y-5481700D01*
X56049530Y-5388570D01*
X56074930Y-5303890D01*
X56106680Y-5210760D01*
X56157480Y-5083760D01*
X55903480D01*
G01X56417830Y-5168420D02*
X56455930Y-5117630D01*
X56500380Y-5092220D01*
X56551180Y-5083760D01*
X56614680Y-5100690D01*
X56659130Y-5143030D01*
X56671830Y-5193820D01*
X56665480Y-5244640D01*
X56640080Y-5286960D01*
X56513080Y-5371630D01*
X56455930Y-5430900D01*
X56417830Y-5515580D01*
X56405130Y-5591760D01*
X56671830D01*
G01X56963930Y-5422430D02*
X57129030D01*
G01X57554470Y-5591760D02*
Y-5083760D01*
X57478280Y-5185350D01*
G01Y-5591760D02*
X57630670D01*
G01X58049780D02*
X58062470Y-5481700D01*
X58081530Y-5388570D01*
X58106930Y-5303890D01*
X58138680Y-5210760D01*
X58189480Y-5083760D01*
X57935480D01*
G01X58430780Y-5515580D02*
X58468870Y-5557900D01*
X58513320Y-5583300D01*
X58570470Y-5591760D01*
X58627640Y-5574830D01*
X58672080Y-5540970D01*
X58703830Y-5481700D01*
X58710180Y-5413970D01*
X58697480Y-5346230D01*
X58665730Y-5303890D01*
X58621270Y-5270030D01*
X58576830Y-5261570D01*
X58532380Y-5270030D01*
X58475230Y-5303890D01*
X58494280Y-5083760D01*
X58665730D01*
G01X59078470Y-5591760D02*
Y-5083760D01*
X59002280Y-5185350D01*
G01Y-5591760D02*
X59154670D01*
G01X53663200Y-3693540D02*
X53625100Y-3668130D01*
X53580660Y-3651200D01*
X53529850D01*
X53472690Y-3676610D01*
X53428250Y-3718930D01*
X53396500Y-3769740D01*
X53371090Y-3854400D01*
X53364740Y-3930600D01*
X53377450Y-4006800D01*
X53396500Y-4057610D01*
X53434600Y-4108410D01*
X53479050Y-4142270D01*
X53523490Y-4159200D01*
X53567950D01*
X53612400Y-4142270D01*
X53650500Y-4116880D01*
X53682260Y-4083020D01*
G01X54031490Y-4159200D02*
X53993400Y-4150740D01*
X53955300Y-4116880D01*
X53929890Y-4057610D01*
X53917200Y-3989870D01*
X53929890Y-3922140D01*
X53955300Y-3862870D01*
X53993400Y-3829010D01*
X54031490Y-3820540D01*
X54069600Y-3829010D01*
X54107700Y-3862870D01*
X54133100Y-3922140D01*
X54139460Y-3989870D01*
X54133100Y-4057610D01*
X54107700Y-4116880D01*
X54069600Y-4150740D01*
X54031490Y-4159200D01*
G01X54450600D02*
Y-3820540D01*
G01Y-3888260D02*
X54482340Y-3854400D01*
X54514100Y-3829010D01*
X54558550Y-3820540D01*
X54590290Y-3829010D01*
X54628400Y-3854400D01*
G01X54939540Y-4159200D02*
Y-3820540D01*
G01Y-3905210D02*
X54964950Y-3862870D01*
X55003050Y-3829010D01*
X55053850Y-3820540D01*
X55098290Y-3829010D01*
X55136400Y-3862870D01*
X55155460Y-3922140D01*
Y-4159200D01*
G01X55460250Y-3930600D02*
X55663460D01*
X55644400Y-3871330D01*
X55612660Y-3837470D01*
X55568200Y-3820540D01*
X55523750Y-3829010D01*
X55485650Y-3854400D01*
X55460250Y-3913670D01*
X55447540Y-3964480D01*
Y-4015270D01*
X55460250Y-4066070D01*
X55492000Y-4116880D01*
X55530100Y-4150740D01*
X55574550Y-4159200D01*
X55619000Y-4142270D01*
X55663460Y-4091480D01*
G01X56063490Y-4159200D02*
Y-3651200D01*
G01X56571490Y-4159200D02*
Y-3651200D01*
G01X57447800D02*
Y-4015270D01*
X57473200Y-4091480D01*
X57524000Y-4142270D01*
X57587490Y-4159200D01*
X57651000Y-4142270D01*
X57701800Y-4091480D01*
X57727200Y-4015270D01*
Y-3651200D01*
G01X57987540Y-4159200D02*
Y-3820540D01*
G01Y-3905210D02*
X58012950Y-3862870D01*
X58051050Y-3829010D01*
X58101850Y-3820540D01*
X58146290Y-3829010D01*
X58184400Y-3862870D01*
X58203460Y-3922140D01*
Y-4159200D01*
G01X58603490Y-3820540D02*
Y-4159200D01*
G01Y-3685070D02*
X58590800Y-3676610D01*
Y-3659660D01*
X58603490Y-3651200D01*
X58616200Y-3659660D01*
Y-3676610D01*
X58603490Y-3685070D01*
G01X58997200Y-3820540D02*
X59111490Y-4159200D01*
X59225800Y-3820540D01*
G01X59524250Y-3930600D02*
X59727460D01*
X59708400Y-3871330D01*
X59676660Y-3837470D01*
X59632200Y-3820540D01*
X59587750Y-3829010D01*
X59549650Y-3854400D01*
X59524250Y-3913670D01*
X59511540Y-3964480D01*
Y-4015270D01*
X59524250Y-4066070D01*
X59556000Y-4116880D01*
X59594100Y-4150740D01*
X59638550Y-4159200D01*
X59683000Y-4142270D01*
X59727460Y-4091480D01*
G01X60038600Y-4159200D02*
Y-3820540D01*
G01Y-3888260D02*
X60070340Y-3854400D01*
X60102100Y-3829010D01*
X60146550Y-3820540D01*
X60178290Y-3829010D01*
X60216400Y-3854400D01*
G01X60540250Y-4099950D02*
X60572000Y-4133810D01*
X60616450Y-4159200D01*
X60654550D01*
X60692660Y-4142270D01*
X60718050Y-4116880D01*
X60730750Y-4083020D01*
X60724400Y-4032200D01*
X60699000Y-4006800D01*
X60584690Y-3956010D01*
X60559300Y-3896730D01*
X60572000Y-3854400D01*
X60597400Y-3829010D01*
X60635490Y-3820540D01*
X60673600Y-3829010D01*
X60711700Y-3854400D01*
G01X61143490Y-3820540D02*
Y-4159200D01*
G01Y-3685070D02*
X61130800Y-3676610D01*
Y-3659660D01*
X61143490Y-3651200D01*
X61156200Y-3659660D01*
Y-3676610D01*
X61143490Y-3685070D01*
G01X61651490Y-3651200D02*
Y-4159200D01*
G01X61562600Y-3820540D02*
X61740400D01*
G01X62026150Y-4311600D02*
X62064250Y-4328530D01*
X62115050Y-4311600D01*
X62146800Y-4277740D01*
X62172200Y-4235400D01*
X62210290Y-4099950D01*
X62292850Y-3820540D01*
G01X62089650D02*
X62210290Y-4099950D01*
G01X53642880Y-4480090D02*
X53598440Y-4446230D01*
X53560330Y-4437760D01*
X53509530Y-4454690D01*
X53471430Y-4488550D01*
X53446030Y-4547820D01*
X53439670Y-4607090D01*
X53446030Y-4666360D01*
X53471430Y-4717170D01*
X53509530Y-4759490D01*
X53560330Y-4776420D01*
X53604780Y-4759490D01*
X53642880Y-4725630D01*
G01X53960380Y-4776420D02*
Y-4437760D01*
G01Y-4505480D02*
X53992120Y-4471620D01*
X54023880Y-4446230D01*
X54068330Y-4437760D01*
X54100070Y-4446230D01*
X54138180Y-4471620D01*
G01X54462030Y-4717170D02*
X54493780Y-4751030D01*
X54538230Y-4776420D01*
X54576330D01*
X54614440Y-4759490D01*
X54639830Y-4734100D01*
X54652530Y-4700240D01*
X54646180Y-4649420D01*
X54620780Y-4624020D01*
X54506470Y-4573230D01*
X54481080Y-4513950D01*
X54493780Y-4471620D01*
X54519180Y-4446230D01*
X54557270Y-4437760D01*
X54595380Y-4446230D01*
X54633480Y-4471620D01*
G01X54925580Y-4700240D02*
X54963670Y-4742560D01*
X55008120Y-4767960D01*
X55065270Y-4776420D01*
X55122440Y-4759490D01*
X55166880Y-4725630D01*
X55198630Y-4666360D01*
X55204980Y-4598630D01*
X55192280Y-4530890D01*
X55160530Y-4488550D01*
X55116070Y-4454690D01*
X55071630Y-4446230D01*
X55027180Y-4454690D01*
X54970030Y-4488550D01*
X54989080Y-4268420D01*
X55160530D01*
G01X55668530Y-4691760D02*
X55605030Y-4776420D01*
X55541530D01*
X55478030Y-4691760D01*
Y-4522430D01*
X55541530Y-4437760D01*
X55605030D01*
X55668530Y-4522430D01*
Y-4691760D01*
X55712980Y-4759490D01*
X55763780Y-4691760D01*
Y-4353080D01*
X55700280Y-4268420D01*
X55446280D01*
X55382780Y-4353080D01*
Y-4861080D01*
X55446280Y-4945750D01*
X55700280D01*
X55763780Y-4861080D01*
G01X56182880Y-4480090D02*
X56138440Y-4446230D01*
X56100330Y-4437760D01*
X56049530Y-4454690D01*
X56011430Y-4488550D01*
X55986030Y-4547820D01*
X55979670Y-4607090D01*
X55986030Y-4666360D01*
X56011430Y-4717170D01*
X56049530Y-4759490D01*
X56100330Y-4776420D01*
X56144780Y-4759490D01*
X56182880Y-4725630D01*
G01X56589270Y-4776420D02*
X56551180Y-4767960D01*
X56513080Y-4734100D01*
X56487670Y-4674830D01*
X56474980Y-4607090D01*
X56487670Y-4539360D01*
X56513080Y-4480090D01*
X56551180Y-4446230D01*
X56589270Y-4437760D01*
X56627380Y-4446230D01*
X56665480Y-4480090D01*
X56690880Y-4539360D01*
X56697240Y-4607090D01*
X56690880Y-4674830D01*
X56665480Y-4734100D01*
X56627380Y-4767960D01*
X56589270Y-4776420D01*
G01X57008380D02*
Y-4437760D01*
G01Y-4505480D02*
X57040120Y-4471620D01*
X57071880Y-4446230D01*
X57116330Y-4437760D01*
X57148070Y-4446230D01*
X57186180Y-4471620D01*
G01X57497320Y-4776420D02*
Y-4437760D01*
G01Y-4522430D02*
X57522730Y-4480090D01*
X57560830Y-4446230D01*
X57611630Y-4437760D01*
X57656070Y-4446230D01*
X57694180Y-4480090D01*
X57713240Y-4539360D01*
Y-4776420D01*
G01X58018030Y-4547820D02*
X58221240D01*
X58202180Y-4488550D01*
X58170440Y-4454690D01*
X58125980Y-4437760D01*
X58081530Y-4446230D01*
X58043430Y-4471620D01*
X58018030Y-4530890D01*
X58005320Y-4581700D01*
Y-4632490D01*
X58018030Y-4683290D01*
X58049780Y-4734100D01*
X58087880Y-4767960D01*
X58132330Y-4776420D01*
X58176780Y-4759490D01*
X58221240Y-4708700D01*
G01X58621270Y-4776420D02*
Y-4268420D01*
G01X59129270Y-4776420D02*
Y-4268420D01*
G01X59637270Y-4793350D02*
X59624580Y-4784880D01*
Y-4767960D01*
X59637270Y-4759490D01*
X59649980Y-4767960D01*
Y-4784880D01*
X59637270Y-4793350D01*
G01X60050030Y-4547820D02*
X60253240D01*
X60234180Y-4488550D01*
X60202440Y-4454690D01*
X60157980Y-4437760D01*
X60113530Y-4446230D01*
X60075430Y-4471620D01*
X60050030Y-4530890D01*
X60037320Y-4581700D01*
Y-4632490D01*
X60050030Y-4683290D01*
X60081780Y-4734100D01*
X60119880Y-4767960D01*
X60164330Y-4776420D01*
X60208780Y-4759490D01*
X60253240Y-4708700D01*
G01X60767580Y-4268420D02*
Y-4776420D01*
G01Y-4700240D02*
X60742180Y-4742560D01*
X60704070Y-4767960D01*
X60659630Y-4776420D01*
X60608830Y-4759490D01*
X60570730Y-4717170D01*
X60545320Y-4666360D01*
X60538980Y-4607090D01*
X60545320Y-4547820D01*
X60570730Y-4497020D01*
X60608830Y-4454690D01*
X60659630Y-4437760D01*
X60704070Y-4446230D01*
X60735830Y-4463160D01*
X60767580Y-4497020D01*
G01X61053320Y-4437760D02*
Y-4674830D01*
X61078730Y-4734100D01*
X61116830Y-4767960D01*
X61161270Y-4776420D01*
X61205730Y-4767960D01*
X61243830Y-4734100D01*
X61269240Y-4674830D01*
G01Y-4776420D02*
Y-4437760D01*
G01X53696220Y-3045840D02*
X53658120Y-3020430D01*
X53613680Y-3003500D01*
X53562870D01*
X53505710Y-3028910D01*
X53461270Y-3071230D01*
X53429520Y-3122040D01*
X53404110Y-3206700D01*
X53397760Y-3282900D01*
X53410470Y-3359100D01*
X53429520Y-3409910D01*
X53467620Y-3460710D01*
X53512070Y-3494570D01*
X53556510Y-3511500D01*
X53600970D01*
X53645420Y-3494570D01*
X53683520Y-3469180D01*
X53715280Y-3435320D01*
G01X53956560Y-3511500D02*
Y-3003500D01*
G01Y-3249030D02*
X53988320Y-3206700D01*
X54020070Y-3181310D01*
X54070870Y-3172840D01*
X54108970Y-3181310D01*
X54153420Y-3215170D01*
X54172480Y-3265970D01*
Y-3511500D01*
G01X54686820D02*
Y-3172840D01*
G01Y-3232100D02*
X54661420Y-3198240D01*
X54623310Y-3181310D01*
X54578870Y-3172840D01*
X54534420Y-3189770D01*
X54496320Y-3223630D01*
X54470910Y-3274440D01*
X54458220Y-3342170D01*
X54470910Y-3409910D01*
X54496320Y-3460710D01*
X54534420Y-3494570D01*
X54578870Y-3511500D01*
X54623310Y-3503040D01*
X54661420Y-3477640D01*
X54686820Y-3443780D01*
G01X54991620Y-3511500D02*
Y-3172840D01*
G01Y-3240560D02*
X55023360Y-3206700D01*
X55055120Y-3181310D01*
X55099570Y-3172840D01*
X55131310Y-3181310D01*
X55169420Y-3206700D01*
G01X55588510Y-3511500D02*
Y-3003500D01*
G01X56096510Y-3172840D02*
Y-3511500D01*
G01Y-3037370D02*
X56083820Y-3028910D01*
Y-3011960D01*
X56096510Y-3003500D01*
X56109220Y-3011960D01*
Y-3028910D01*
X56096510Y-3037370D01*
G01X56509270Y-3282900D02*
X56712480D01*
X56693420Y-3223630D01*
X56661680Y-3189770D01*
X56617220Y-3172840D01*
X56572770Y-3181310D01*
X56534670Y-3206700D01*
X56509270Y-3265970D01*
X56496560Y-3316780D01*
Y-3367570D01*
X56509270Y-3418370D01*
X56541020Y-3469180D01*
X56579120Y-3503040D01*
X56623570Y-3511500D01*
X56668020Y-3494570D01*
X56712480Y-3443780D01*
G01X57487170D02*
X57537970Y-3486110D01*
X57595120Y-3511500D01*
X57645920D01*
X57696720Y-3486110D01*
X57734820Y-3443780D01*
X57753870Y-3384500D01*
X57741170Y-3325240D01*
X57709420Y-3274440D01*
X57652270Y-3240560D01*
X57576070Y-3223630D01*
X57531620Y-3189770D01*
X57512560Y-3130500D01*
X57525270Y-3071230D01*
X57557020Y-3028910D01*
X57601470Y-3003500D01*
X57645920D01*
X57690370Y-3020430D01*
X57728480Y-3062770D01*
G01X58128510Y-3003500D02*
Y-3511500D01*
G01X58039620Y-3172840D02*
X58217420D01*
G01X58547620Y-3511500D02*
Y-3172840D01*
G01Y-3240560D02*
X58579360Y-3206700D01*
X58611120Y-3181310D01*
X58655570Y-3172840D01*
X58687310Y-3181310D01*
X58725420Y-3206700D01*
G01X59144510Y-3511500D02*
X59106420Y-3503040D01*
X59068320Y-3469180D01*
X59042910Y-3409910D01*
X59030220Y-3342170D01*
X59042910Y-3274440D01*
X59068320Y-3215170D01*
X59106420Y-3181310D01*
X59144510Y-3172840D01*
X59182620Y-3181310D01*
X59220720Y-3215170D01*
X59246120Y-3274440D01*
X59252480Y-3342170D01*
X59246120Y-3409910D01*
X59220720Y-3469180D01*
X59182620Y-3503040D01*
X59144510Y-3511500D01*
G01X59544560D02*
Y-3003500D01*
G01Y-3249030D02*
X59576320Y-3206700D01*
X59608070Y-3181310D01*
X59658870Y-3172840D01*
X59696970Y-3181310D01*
X59741420Y-3215170D01*
X59760480Y-3265970D01*
Y-3511500D01*
G01X59970020D02*
Y-3172840D01*
G01Y-3265970D02*
X59989070Y-3223630D01*
X60020820Y-3189770D01*
X60065270Y-3172840D01*
X60109710Y-3189770D01*
X60141470Y-3223630D01*
X60160510Y-3265970D01*
Y-3511500D01*
G01Y-3265970D02*
X60179570Y-3223630D01*
X60211310Y-3189770D01*
X60255770Y-3172840D01*
X60300220Y-3189770D01*
X60331970Y-3223630D01*
X60351020Y-3274440D01*
Y-3511500D01*
G01X60782820D02*
Y-3172840D01*
G01Y-3232100D02*
X60757420Y-3198240D01*
X60719310Y-3181310D01*
X60674870Y-3172840D01*
X60630420Y-3189770D01*
X60592320Y-3223630D01*
X60566910Y-3274440D01*
X60554220Y-3342170D01*
X60566910Y-3409910D01*
X60592320Y-3460710D01*
X60630420Y-3494570D01*
X60674870Y-3511500D01*
X60719310Y-3503040D01*
X60757420Y-3477640D01*
X60782820Y-3443780D01*
G01X61068560Y-3511500D02*
Y-3172840D01*
G01Y-3257510D02*
X61093970Y-3215170D01*
X61132070Y-3181310D01*
X61182870Y-3172840D01*
X61227310Y-3181310D01*
X61265420Y-3215170D01*
X61284480Y-3274440D01*
Y-3511500D01*
G54D10*
X159780Y8155140D03*
Y9724860D03*
Y16915140D03*
Y18484860D03*
X650000Y8213560D03*
Y9666440D03*
Y16973560D03*
Y18426440D03*
G54D104*
G01X-2701680Y36375580D02*
Y-6610000D01*
X67550000D01*
Y36375580D01*
X-2701680D01*
G01X0Y0D02*
Y27780000D01*
X17797000D01*
X17997000Y27580000D01*
Y199500D01*
X17797000Y0D01*
X0D01*
G01X-2701680Y36375580D02*
Y-6610000D01*
X67550000D01*
Y36375580D01*
X-2701680D01*
G54D20*
X313600Y10540000D03*
Y10690000D03*
Y10840000D03*
Y18875000D03*
Y19025000D03*
Y19175000D03*
Y20340000D03*
Y20490000D03*
Y20640000D03*
X486400Y10540000D03*
Y10690000D03*
Y10840000D03*
Y18875000D03*
Y19025000D03*
Y19175000D03*
Y20340000D03*
Y20490000D03*
Y20640000D03*
X813600Y15340000D03*
Y15490000D03*
X986400Y15340000D03*
Y15490000D03*
X1083600Y21750000D03*
Y21900000D03*
Y22050000D03*
Y22650000D03*
Y22800000D03*
Y22950000D03*
X1256400Y21750000D03*
Y21900000D03*
Y22050000D03*
Y22650000D03*
Y22800000D03*
Y22950000D03*
X6363600Y14090000D03*
Y14240000D03*
Y14540000D03*
Y14690000D03*
X6536400Y14090000D03*
Y14240000D03*
Y14540000D03*
Y14690000D03*
X6963600Y22540000D03*
X7136400D03*
X7463600D03*
X7636400D03*
X7763600Y3590000D03*
Y3740000D03*
X7936400Y3590000D03*
Y3740000D03*
X8013600Y22540000D03*
X8078600Y22830000D03*
X8186400Y22540000D03*
X8251400Y22830000D03*
X8513600Y22540000D03*
X8463600Y22840000D03*
X8636400D03*
X8686400Y22540000D03*
X8913600D03*
X9086400D03*
X9253600Y5930000D03*
X9313600Y22540000D03*
X9426400Y5930000D03*
X9486400Y22540000D03*
X17313600Y17200000D03*
Y17400000D03*
X17486400Y17200000D03*
Y17400000D03*
G54D11*
X70000Y10550000D03*
Y10830000D03*
Y18885000D03*
Y19165000D03*
Y20355000D03*
Y20635000D03*
G54D30*
X1088720Y22210000D03*
Y23105000D03*
X1251280Y22210000D03*
Y23105000D03*
X8268720Y27590000D03*
X8431280D03*
G54D12*
X102500Y10644000D03*
Y10736000D03*
Y18979000D03*
Y19071000D03*
Y20449000D03*
Y20541000D03*
G54D21*
X350000Y19383600D03*
Y19556400D03*
Y19883600D03*
Y20056400D03*
X1350000Y1963600D03*
Y2136400D03*
Y6403600D03*
Y6576400D03*
Y10833600D03*
Y11006400D03*
Y12263600D03*
Y12436400D03*
Y16863600D03*
Y17036400D03*
Y27198600D03*
Y27371400D03*
X1500000Y1963600D03*
Y2136400D03*
Y6403600D03*
Y6576400D03*
Y10833600D03*
Y11006400D03*
Y12263600D03*
Y12436400D03*
Y16863600D03*
Y17036400D03*
Y27198600D03*
Y27371400D03*
X1650000Y1963600D03*
Y2136400D03*
Y6403600D03*
Y6576400D03*
Y10833600D03*
Y11006400D03*
Y12263600D03*
Y12436400D03*
Y16863600D03*
Y17036400D03*
Y27198600D03*
Y27371400D03*
X6950000Y21853600D03*
Y22026400D03*
X7200000Y4553600D03*
Y4726400D03*
Y21853600D03*
Y22026400D03*
Y23453600D03*
Y23626400D03*
X7450000Y21853600D03*
Y22026400D03*
X7700000Y21853600D03*
Y22026400D03*
X8000000Y21853600D03*
Y22026400D03*
X8300000Y4653600D03*
Y4826400D03*
Y5303600D03*
Y5476400D03*
X8250000Y21853600D03*
Y22026400D03*
X8500000Y21853600D03*
Y22026400D03*
X8750000Y21853600D03*
Y22026400D03*
X8850000Y27453600D03*
Y27626400D03*
X9035000Y2353600D03*
Y2526400D03*
X9050000Y21853600D03*
Y22026400D03*
X9000000Y27453600D03*
Y27626400D03*
X9185000Y2353600D03*
Y2526400D03*
X9385000Y2353600D03*
Y2526400D03*
X9400000Y21853600D03*
Y22026400D03*
X9535000Y2353600D03*
Y2526400D03*
X9700000Y21853600D03*
Y22026400D03*
X9950000Y21853600D03*
Y22026400D03*
X10250000Y21853600D03*
Y22026400D03*
X10500000Y21853600D03*
Y22026400D03*
G54D13*
X125000Y19377920D03*
Y19642080D03*
Y19877920D03*
Y20142080D03*
G54D31*
X1291800Y8590000D03*
X1208200D03*
X1291800Y8940000D03*
X1208200D03*
X1291800Y9290000D03*
X1208200D03*
X1291800Y17340000D03*
X1208200D03*
X1291800Y17690000D03*
X1208200D03*
X1291800Y18040000D03*
X1208200D03*
G54D22*
X394000Y23136000D03*
Y23263000D03*
Y23390000D03*
Y23517000D03*
Y23644000D03*
X521000Y23136000D03*
Y23263000D03*
Y23390000D03*
Y23517000D03*
Y23644000D03*
G54D40*
X1560120Y21746000D03*
Y21873000D03*
Y22000000D03*
Y22127000D03*
Y22254000D03*
Y22646000D03*
Y22773000D03*
Y22900000D03*
Y23027000D03*
Y23154000D03*
G54D41*
X1805000Y1968720D03*
Y2131280D03*
X1810000Y6408720D03*
Y6571280D03*
X1805000Y10838720D03*
Y11001280D03*
Y12268720D03*
Y12431280D03*
Y16868720D03*
Y17031280D03*
Y27203720D03*
Y27366280D03*
X6600000Y4558720D03*
Y4721280D03*
Y23458720D03*
Y23621280D03*
G54D23*
X500000Y27000000D03*
X7000000Y11890000D03*
Y15890000D03*
Y20890000D03*
X12400000Y6890000D03*
Y11890000D03*
Y15890000D03*
X17850000Y500000D03*
Y27000000D03*
G54D32*
X1291800Y8540000D03*
Y8490000D03*
X1208200D03*
Y8540000D03*
X1291800Y8690000D03*
Y8640000D03*
X1208200D03*
Y8690000D03*
X1291800Y8840000D03*
X1208200D03*
X1291800Y8990000D03*
Y8890000D03*
X1208200D03*
Y8990000D03*
X1291800Y9040000D03*
X1208200D03*
X1291800Y9240000D03*
Y9190000D03*
X1208200D03*
Y9240000D03*
X1291800Y9340000D03*
X1208200D03*
X1291800Y9390000D03*
X1208200D03*
X1291800Y17240000D03*
X1208200D03*
X1291800Y17390000D03*
Y17290000D03*
X1208200D03*
Y17390000D03*
X1291800Y17440000D03*
X1208200D03*
X1291800Y17640000D03*
Y17590000D03*
X1208200D03*
Y17640000D03*
X1291800Y17740000D03*
X1208200D03*
X1291800Y17790000D03*
X1208200D03*
X1291800Y17990000D03*
Y17940000D03*
X1208200D03*
Y17990000D03*
X1291800Y18140000D03*
Y18090000D03*
X1208200D03*
Y18140000D03*
G54D14*
X140000Y22945500D03*
Y23834500D03*
G54D50*
X4267000Y817500D03*
Y2117500D03*
Y3417500D03*
Y4717500D03*
Y6017500D03*
Y7317500D03*
Y8617500D03*
Y9917500D03*
Y11217500D03*
Y12517500D03*
Y14217500D03*
Y15517500D03*
Y16817500D03*
Y18117500D03*
Y19417500D03*
Y20717500D03*
Y22017500D03*
Y23317500D03*
Y24617500D03*
Y25917500D03*
G54D33*
X1250000Y14770000D03*
Y14910000D03*
X1550000Y14770000D03*
Y14910000D03*
X14595000Y15002500D03*
Y15177500D03*
Y15352500D03*
Y15527500D03*
Y15702500D03*
Y18802500D03*
Y18977500D03*
Y19152500D03*
Y19327500D03*
Y19502500D03*
Y22602500D03*
Y22777500D03*
Y22952500D03*
Y23127500D03*
Y23302500D03*
Y26402500D03*
Y26577500D03*
Y26752500D03*
Y26927500D03*
Y27102500D03*
X15345000Y10902500D03*
Y11077500D03*
Y11252500D03*
Y11427500D03*
Y11602500D03*
X15605000Y14082500D03*
Y14262500D03*
Y14442500D03*
Y14622500D03*
Y14802500D03*
Y14982500D03*
Y15162500D03*
Y15342500D03*
Y15522500D03*
Y15702500D03*
Y17882500D03*
Y18062500D03*
Y18242500D03*
Y18422500D03*
Y18602500D03*
Y18782500D03*
Y18962500D03*
Y19142500D03*
Y19322500D03*
Y19502500D03*
Y21682500D03*
Y21862500D03*
Y22042500D03*
Y22222500D03*
Y22402500D03*
Y22582500D03*
Y22762500D03*
Y22942500D03*
Y23122500D03*
Y23302500D03*
Y25482500D03*
Y25662500D03*
Y25842500D03*
Y26022500D03*
Y26202500D03*
Y26382500D03*
Y26562500D03*
Y26742500D03*
Y26922500D03*
Y27102500D03*
X16045000Y3852500D03*
Y4027500D03*
Y4202500D03*
Y4377500D03*
Y4552500D03*
Y7402500D03*
Y7577500D03*
Y7752500D03*
Y7927500D03*
Y8102500D03*
X16355000Y9982500D03*
Y10162500D03*
Y10342500D03*
Y10522500D03*
Y10702500D03*
Y10882500D03*
Y11062500D03*
Y11242500D03*
Y11422500D03*
Y11602500D03*
X17000000Y15820000D03*
Y15960000D03*
X17055000Y2932500D03*
Y3112500D03*
Y3292500D03*
Y3472500D03*
Y3652500D03*
Y3832500D03*
Y4012500D03*
Y4192500D03*
Y4372500D03*
Y4552500D03*
Y6482500D03*
Y6662500D03*
Y6842500D03*
Y7022500D03*
Y7202500D03*
Y7382500D03*
Y7562500D03*
Y7742500D03*
Y7922500D03*
Y8102500D03*
X17300000Y15820000D03*
Y15960000D03*
G54D42*
X1850000Y14773960D03*
Y14906040D03*
X17600000Y15823960D03*
Y15956040D03*
G54D15*
X90000Y24675000D03*
Y25205000D03*
X140000Y2625000D03*
Y3155000D03*
G54D24*
X660000Y2730000D03*
Y2810000D03*
Y2890000D03*
Y2970000D03*
Y3050000D03*
X610000Y24780000D03*
Y24860000D03*
Y24940000D03*
Y25020000D03*
Y25100000D03*
G54D60*
X6922000Y3862500D03*
Y3927500D03*
Y3992500D03*
Y4057500D03*
Y4122500D03*
Y4187500D03*
Y4252500D03*
Y4317500D03*
Y22762500D03*
Y22827500D03*
Y22892500D03*
Y22957500D03*
Y23022500D03*
Y23087500D03*
Y23152500D03*
Y23217500D03*
X7478000Y3927500D03*
Y3862500D03*
Y4057500D03*
Y3992500D03*
Y4187500D03*
Y4122500D03*
Y4317500D03*
Y4252500D03*
Y22827500D03*
Y22762500D03*
Y22957500D03*
Y22892500D03*
Y23087500D03*
Y23022500D03*
Y23217500D03*
Y23152500D03*
G54D51*
X4267000Y1862500D03*
Y3162500D03*
Y4462500D03*
Y5762500D03*
Y7062500D03*
Y8362500D03*
Y9662500D03*
Y10962500D03*
Y12262500D03*
Y13562500D03*
Y15262500D03*
Y16562500D03*
Y17862500D03*
Y19162500D03*
Y20462500D03*
Y21762500D03*
Y23062500D03*
Y24362500D03*
Y25662500D03*
Y26962500D03*
G54D16*
X420000Y2470000D03*
Y3310000D03*
X370000Y24520000D03*
Y25360000D03*
G54D70*
X7776000Y3340000D03*
Y3440000D03*
X7924000Y3390000D03*
Y3340000D03*
Y3440000D03*
X8476000Y22990000D03*
Y23090000D03*
X8624000D03*
Y23040000D03*
Y22990000D03*
X16126000Y14490000D03*
Y14590000D03*
Y14890000D03*
Y14990000D03*
X16076000Y17590000D03*
Y17690000D03*
X16126000Y21390000D03*
Y21490000D03*
Y22090000D03*
Y22190000D03*
X16274000Y14540000D03*
Y14490000D03*
Y14590000D03*
Y14940000D03*
Y14890000D03*
Y14990000D03*
X16224000Y17640000D03*
Y17590000D03*
Y17690000D03*
X16274000Y21390000D03*
Y21490000D03*
Y21440000D03*
Y22140000D03*
Y22090000D03*
Y22190000D03*
X16276000Y25440000D03*
Y25540000D03*
Y25790000D03*
Y25890000D03*
X16424000Y25540000D03*
Y25490000D03*
Y25440000D03*
Y25790000D03*
Y25890000D03*
Y25840000D03*
X16876000Y9690000D03*
Y9790000D03*
X17024000Y9740000D03*
Y9690000D03*
Y9790000D03*
X17576000Y3340000D03*
Y3440000D03*
Y3740000D03*
Y3840000D03*
Y6190000D03*
Y6290000D03*
X17724000Y3390000D03*
Y3340000D03*
Y3440000D03*
Y3790000D03*
Y3740000D03*
Y3840000D03*
Y6240000D03*
Y6190000D03*
Y6290000D03*
G54D34*
X1175000Y22350000D03*
X1265000D03*
X1175000Y23250000D03*
X1265000D03*
X1660000Y22450000D03*
X1570000D03*
X1660000Y23350000D03*
X1570000D03*
X5255000Y3740000D03*
Y3840000D03*
Y3940000D03*
Y4040000D03*
Y4140000D03*
Y10240000D03*
Y10340000D03*
Y10440000D03*
Y10540000D03*
Y10640000D03*
Y17140000D03*
Y17240000D03*
Y17340000D03*
Y17440000D03*
Y17540000D03*
Y23640000D03*
Y23740000D03*
Y23840000D03*
Y23940000D03*
Y24040000D03*
X5345000Y3740000D03*
Y3840000D03*
Y3940000D03*
Y4040000D03*
Y4140000D03*
Y10240000D03*
Y10340000D03*
Y10440000D03*
Y10540000D03*
Y10640000D03*
Y17140000D03*
Y17240000D03*
Y17340000D03*
Y17440000D03*
Y17540000D03*
Y23640000D03*
Y23740000D03*
Y23840000D03*
Y23940000D03*
Y24040000D03*
X7055000Y12840000D03*
Y12940000D03*
Y13090000D03*
Y13190000D03*
Y13340000D03*
Y13440000D03*
Y13590000D03*
Y13690000D03*
Y14090000D03*
Y14190000D03*
Y14440000D03*
Y14340000D03*
Y14690000D03*
Y14590000D03*
Y14940000D03*
Y14840000D03*
X7145000Y12840000D03*
Y12940000D03*
Y13090000D03*
Y13190000D03*
Y13340000D03*
Y13440000D03*
Y13590000D03*
Y13690000D03*
Y14090000D03*
Y14190000D03*
Y14440000D03*
Y14340000D03*
Y14690000D03*
Y14590000D03*
Y14940000D03*
Y14840000D03*
X7455000Y12840000D03*
Y12940000D03*
Y13090000D03*
Y13190000D03*
Y13340000D03*
Y13440000D03*
Y13590000D03*
Y13690000D03*
Y14090000D03*
Y14190000D03*
Y14340000D03*
Y14440000D03*
Y14690000D03*
Y14590000D03*
Y14940000D03*
Y14840000D03*
Y24240000D03*
X7545000Y12840000D03*
Y12940000D03*
Y13090000D03*
Y13190000D03*
Y13340000D03*
Y13440000D03*
Y13590000D03*
Y13690000D03*
Y14090000D03*
Y14190000D03*
Y14340000D03*
Y14440000D03*
Y14690000D03*
Y14590000D03*
Y14940000D03*
Y14840000D03*
Y24240000D03*
X7745000D03*
X7655000D03*
X7820000Y3930000D03*
X7855000Y12840000D03*
Y12940000D03*
Y13090000D03*
Y13190000D03*
Y13340000D03*
Y13440000D03*
Y13590000D03*
Y13690000D03*
Y14090000D03*
Y14190000D03*
Y14340000D03*
Y14440000D03*
Y14590000D03*
Y14690000D03*
Y14840000D03*
Y14940000D03*
X7820000Y22830000D03*
X7855000Y24240000D03*
X7910000Y3930000D03*
X7945000Y12840000D03*
Y12940000D03*
Y13090000D03*
Y13190000D03*
Y13340000D03*
Y13440000D03*
Y13590000D03*
Y13690000D03*
Y14090000D03*
Y14190000D03*
Y14340000D03*
Y14440000D03*
Y14590000D03*
Y14690000D03*
Y14840000D03*
Y14940000D03*
X7910000Y22830000D03*
X7945000Y24240000D03*
X8145000D03*
X8055000D03*
X8255000Y12840000D03*
Y12940000D03*
Y13090000D03*
Y13190000D03*
Y13340000D03*
Y13440000D03*
Y13590000D03*
Y13690000D03*
Y14090000D03*
Y14190000D03*
Y14340000D03*
Y14440000D03*
Y14590000D03*
Y14690000D03*
Y14840000D03*
Y14940000D03*
X8205000Y26590000D03*
X8345000Y12840000D03*
Y12940000D03*
Y13090000D03*
Y13190000D03*
Y13340000D03*
Y13440000D03*
Y13590000D03*
Y13690000D03*
Y14090000D03*
Y14190000D03*
Y14340000D03*
Y14440000D03*
Y14590000D03*
Y14690000D03*
Y14840000D03*
Y14940000D03*
X8355000Y24340000D03*
Y24440000D03*
X8295000Y26590000D03*
X8445000Y24340000D03*
Y24440000D03*
X8655000Y12840000D03*
Y12940000D03*
Y13090000D03*
Y13190000D03*
Y13340000D03*
Y13440000D03*
Y13590000D03*
Y13690000D03*
Y14090000D03*
Y14190000D03*
Y14340000D03*
Y14440000D03*
Y14590000D03*
Y14690000D03*
Y14840000D03*
Y14940000D03*
X8745000Y12840000D03*
Y12940000D03*
Y13090000D03*
Y13190000D03*
Y13340000D03*
Y13440000D03*
Y13590000D03*
Y13690000D03*
Y14090000D03*
Y14190000D03*
Y14340000D03*
Y14440000D03*
Y14590000D03*
Y14690000D03*
Y14840000D03*
Y14940000D03*
X8795000Y24240000D03*
X8705000D03*
X8905000D03*
X8995000D03*
X9055000Y12840000D03*
X9145000D03*
X9055000Y12940000D03*
X9145000D03*
X9055000Y13090000D03*
X9145000D03*
X9055000Y13190000D03*
X9145000D03*
X9055000Y13340000D03*
X9145000D03*
X9055000Y13440000D03*
X9145000D03*
X9055000Y13590000D03*
X9145000D03*
X9055000Y13690000D03*
X9145000D03*
Y14090000D03*
X9055000D03*
X9145000Y14190000D03*
X9055000D03*
X9145000Y14340000D03*
X9055000D03*
X9145000Y14440000D03*
X9055000D03*
X9145000Y14590000D03*
X9055000D03*
X9145000Y14690000D03*
X9055000D03*
X9145000Y14840000D03*
X9055000D03*
X9145000Y14940000D03*
X9055000D03*
X9105000Y24240000D03*
X9305000D03*
X9195000D03*
X9395000D03*
X9455000Y12840000D03*
X9545000D03*
X9455000Y12940000D03*
X9545000D03*
X9455000Y13090000D03*
X9545000D03*
X9455000Y13190000D03*
X9545000D03*
X9455000Y13340000D03*
X9545000D03*
X9455000Y13440000D03*
X9545000D03*
X9455000Y13590000D03*
X9545000D03*
X9455000Y13690000D03*
X9545000D03*
Y14090000D03*
X9455000D03*
X9545000Y14190000D03*
X9455000D03*
X9545000Y14340000D03*
X9455000D03*
X9545000Y14440000D03*
X9455000D03*
X9545000Y14590000D03*
X9455000D03*
X9545000Y14690000D03*
X9455000D03*
X9545000Y14840000D03*
X9455000D03*
X9545000Y14940000D03*
X9455000D03*
X9505000Y24240000D03*
X9595000D03*
X9795000D03*
X9705000D03*
X9945000Y1490000D03*
X9855000D03*
X9945000Y1590000D03*
X9855000D03*
Y12840000D03*
X9945000D03*
X9855000Y12940000D03*
X9945000D03*
X9855000Y13090000D03*
X9945000D03*
X9855000Y13190000D03*
X9945000D03*
X9855000Y13340000D03*
X9945000D03*
X9855000Y13440000D03*
X9945000D03*
X9855000Y13590000D03*
X9945000D03*
X9855000Y13690000D03*
X9945000D03*
Y14090000D03*
X9855000D03*
X9945000Y14190000D03*
X9855000D03*
X9945000Y14340000D03*
X9855000D03*
X9945000Y14440000D03*
X9855000D03*
X9945000Y14590000D03*
X9855000D03*
X9945000Y14690000D03*
X9855000D03*
X9945000Y14840000D03*
X9855000D03*
X9945000Y14940000D03*
X9855000D03*
X9905000Y24240000D03*
X9995000D03*
X10195000D03*
X10105000D03*
X10255000Y12840000D03*
X10345000D03*
X10255000Y12940000D03*
X10345000D03*
X10255000Y13090000D03*
X10345000D03*
X10255000Y13190000D03*
X10345000D03*
X10255000Y13340000D03*
X10345000D03*
X10255000Y13440000D03*
X10345000D03*
X10255000Y13590000D03*
X10345000D03*
X10255000Y13690000D03*
X10345000D03*
Y14090000D03*
X10255000D03*
X10345000Y14190000D03*
X10255000D03*
X10345000Y14340000D03*
X10255000D03*
X10345000Y14440000D03*
X10255000D03*
X10345000Y14590000D03*
X10255000D03*
X10345000Y14690000D03*
X10255000D03*
X10345000Y14840000D03*
X10255000D03*
X10345000Y14940000D03*
X10255000D03*
X10655000Y12840000D03*
Y12940000D03*
Y13090000D03*
Y13190000D03*
Y13340000D03*
Y13440000D03*
Y13590000D03*
Y13690000D03*
Y14090000D03*
Y14190000D03*
Y14340000D03*
Y14440000D03*
Y14590000D03*
Y14690000D03*
Y14840000D03*
Y14940000D03*
X10745000Y12840000D03*
Y12940000D03*
Y13090000D03*
Y13190000D03*
Y13340000D03*
Y13440000D03*
Y13590000D03*
Y13690000D03*
Y14090000D03*
Y14190000D03*
Y14340000D03*
Y14440000D03*
Y14590000D03*
Y14690000D03*
Y14840000D03*
Y14940000D03*
X10955000Y840000D03*
Y940000D03*
Y1090000D03*
Y1190000D03*
Y1340000D03*
Y1440000D03*
Y1590000D03*
Y1690000D03*
X11045000Y840000D03*
Y940000D03*
Y1090000D03*
Y1190000D03*
Y1340000D03*
Y1440000D03*
Y1590000D03*
Y1690000D03*
X11055000Y12840000D03*
Y12940000D03*
Y13090000D03*
Y13190000D03*
Y13340000D03*
Y13440000D03*
Y13590000D03*
Y13690000D03*
Y14090000D03*
Y14190000D03*
Y14440000D03*
Y14340000D03*
Y14590000D03*
Y14690000D03*
Y14940000D03*
Y14840000D03*
X11145000Y12840000D03*
Y12940000D03*
Y13090000D03*
Y13190000D03*
Y13340000D03*
Y13440000D03*
Y13590000D03*
Y13690000D03*
Y14090000D03*
Y14190000D03*
Y14440000D03*
Y14340000D03*
Y14590000D03*
Y14690000D03*
Y14940000D03*
Y14840000D03*
X11455000Y12840000D03*
Y12940000D03*
Y13090000D03*
Y13190000D03*
Y13340000D03*
Y13440000D03*
Y13590000D03*
Y13690000D03*
Y14090000D03*
Y14190000D03*
Y14340000D03*
Y14440000D03*
Y14590000D03*
Y14690000D03*
Y14840000D03*
Y14940000D03*
X11545000Y12840000D03*
Y12940000D03*
Y13090000D03*
Y13190000D03*
Y13340000D03*
Y13440000D03*
Y13590000D03*
Y13690000D03*
Y14090000D03*
Y14190000D03*
Y14340000D03*
Y14440000D03*
Y14590000D03*
Y14690000D03*
Y14840000D03*
Y14940000D03*
X11855000Y12840000D03*
Y12940000D03*
Y13090000D03*
Y13190000D03*
Y13340000D03*
Y13440000D03*
Y13590000D03*
Y13690000D03*
Y14090000D03*
Y14190000D03*
Y14340000D03*
Y14440000D03*
Y14590000D03*
Y14690000D03*
Y14840000D03*
Y14940000D03*
X11945000Y12840000D03*
Y12940000D03*
Y13090000D03*
Y13190000D03*
Y13340000D03*
Y13440000D03*
Y13590000D03*
Y13690000D03*
Y14090000D03*
Y14190000D03*
Y14340000D03*
Y14440000D03*
Y14590000D03*
Y14690000D03*
Y14840000D03*
Y14940000D03*
X12255000Y12840000D03*
Y12940000D03*
Y13090000D03*
Y13190000D03*
Y13340000D03*
Y13440000D03*
Y13590000D03*
Y13690000D03*
Y14090000D03*
Y14190000D03*
Y14340000D03*
Y14440000D03*
Y14590000D03*
Y14690000D03*
Y14840000D03*
Y14940000D03*
X12345000Y12840000D03*
Y12940000D03*
Y13090000D03*
Y13190000D03*
Y13340000D03*
Y13440000D03*
Y13590000D03*
Y13690000D03*
Y14090000D03*
Y14190000D03*
Y14340000D03*
Y14440000D03*
Y14590000D03*
Y14690000D03*
Y14840000D03*
Y14940000D03*
X13155000Y22840000D03*
Y22740000D03*
Y23040000D03*
Y23140000D03*
Y23340000D03*
Y23440000D03*
Y23740000D03*
Y23640000D03*
Y24390000D03*
Y24490000D03*
Y24690000D03*
Y24790000D03*
Y24990000D03*
Y25090000D03*
Y25290000D03*
Y25390000D03*
Y25590000D03*
Y25690000D03*
X13295000Y590000D03*
X13205000D03*
X13295000Y490000D03*
X13205000D03*
X13295000Y790000D03*
X13205000D03*
X13295000Y890000D03*
X13205000D03*
X13295000Y1090000D03*
X13205000D03*
X13295000Y1190000D03*
X13205000D03*
X13295000Y1490000D03*
X13205000D03*
X13295000Y1390000D03*
X13205000D03*
X13295000Y1690000D03*
X13205000D03*
X13295000Y1790000D03*
X13205000D03*
X13295000Y2240000D03*
X13205000D03*
X13295000Y2340000D03*
X13205000D03*
X13295000Y2540000D03*
X13205000D03*
X13295000Y2640000D03*
X13205000D03*
X13295000Y2840000D03*
X13205000D03*
X13295000Y2940000D03*
X13205000D03*
X13295000Y3090000D03*
X13205000D03*
X13295000Y3240000D03*
X13205000D03*
X13295000Y3440000D03*
X13205000D03*
X13295000Y3540000D03*
X13205000D03*
X13295000Y3740000D03*
X13205000D03*
X13295000Y3840000D03*
X13205000D03*
X13295000Y4040000D03*
X13205000D03*
X13295000Y4140000D03*
X13205000D03*
X13295000Y4340000D03*
X13205000D03*
X13295000Y4440000D03*
X13205000D03*
X13295000Y4740000D03*
X13205000D03*
X13295000Y4640000D03*
X13205000D03*
X13295000Y4940000D03*
X13205000D03*
X13295000Y5040000D03*
X13205000D03*
X13295000Y5240000D03*
X13205000D03*
X13295000Y5340000D03*
X13205000D03*
X13295000Y5640000D03*
X13205000D03*
X13295000Y5540000D03*
X13205000D03*
X13245000Y22840000D03*
Y22740000D03*
Y23040000D03*
Y23140000D03*
Y23340000D03*
Y23440000D03*
Y23740000D03*
Y23640000D03*
Y24390000D03*
Y24490000D03*
Y24690000D03*
Y24790000D03*
Y24990000D03*
Y25090000D03*
Y25290000D03*
Y25390000D03*
Y25590000D03*
Y25690000D03*
X13405000Y22890000D03*
Y22990000D03*
Y23190000D03*
Y23290000D03*
Y23490000D03*
Y23590000D03*
Y23790000D03*
Y23890000D03*
Y24540000D03*
Y24640000D03*
Y24840000D03*
Y24940000D03*
Y25140000D03*
Y25240000D03*
Y25540000D03*
Y25440000D03*
X13545000Y640000D03*
X13455000D03*
X13545000Y740000D03*
X13455000D03*
X13545000Y940000D03*
X13455000D03*
X13545000Y1040000D03*
X13455000D03*
X13545000Y1240000D03*
X13455000D03*
X13545000Y1340000D03*
X13455000D03*
X13545000Y1540000D03*
X13455000D03*
X13545000Y1640000D03*
X13455000D03*
X13545000Y1840000D03*
X13455000D03*
X13545000Y1940000D03*
X13455000D03*
X13545000Y2090000D03*
X13455000D03*
X13545000Y2190000D03*
X13455000D03*
X13545000Y2390000D03*
X13455000D03*
X13545000Y2490000D03*
X13455000D03*
X13545000Y2790000D03*
X13455000D03*
X13545000Y2690000D03*
X13455000D03*
X13545000Y3290000D03*
X13455000D03*
X13545000Y3390000D03*
X13455000D03*
X13545000Y3690000D03*
X13455000D03*
X13545000Y3590000D03*
X13455000D03*
X13545000Y3890000D03*
X13455000D03*
X13545000Y3990000D03*
X13455000D03*
X13545000Y4190000D03*
X13455000D03*
X13545000Y4290000D03*
X13455000D03*
X13545000Y4590000D03*
X13455000D03*
X13545000Y4490000D03*
X13455000D03*
X13545000Y4790000D03*
X13455000D03*
X13545000Y4890000D03*
X13455000D03*
X13545000Y5090000D03*
X13455000D03*
X13545000Y5190000D03*
X13455000D03*
X13545000Y5490000D03*
X13455000D03*
X13545000Y5390000D03*
X13455000D03*
Y10790000D03*
X13545000D03*
X13455000Y10890000D03*
X13545000D03*
X13455000Y10990000D03*
X13545000D03*
X13455000Y11090000D03*
X13545000D03*
X13455000Y11190000D03*
X13545000D03*
X13455000Y11290000D03*
X13545000D03*
X13455000Y11540000D03*
X13545000D03*
X13455000Y11640000D03*
X13545000D03*
X13455000Y11740000D03*
X13545000D03*
X13455000Y11840000D03*
X13545000D03*
X13455000Y11940000D03*
X13545000D03*
X13455000Y12040000D03*
X13545000D03*
X13455000Y12140000D03*
X13545000D03*
X13455000Y12240000D03*
X13545000D03*
X13455000Y12340000D03*
X13545000D03*
X13455000Y12440000D03*
X13545000D03*
X13455000Y15240000D03*
X13545000D03*
X13455000Y15340000D03*
X13545000D03*
X13455000Y15440000D03*
X13545000D03*
X13455000Y15540000D03*
X13545000D03*
X13455000Y15640000D03*
X13545000D03*
X13455000Y15740000D03*
X13545000D03*
X13455000Y15990000D03*
X13545000D03*
X13455000Y16090000D03*
X13545000D03*
X13455000Y16190000D03*
X13545000D03*
X13455000Y16290000D03*
X13545000D03*
X13455000Y16390000D03*
X13545000D03*
X13455000Y16490000D03*
X13545000D03*
X13455000Y16590000D03*
X13545000D03*
X13455000Y16690000D03*
X13545000D03*
X13455000Y16790000D03*
X13545000D03*
X13455000Y16890000D03*
X13545000D03*
X13455000Y19040000D03*
X13545000D03*
X13455000Y19140000D03*
X13545000D03*
X13455000Y19240000D03*
X13545000D03*
X13455000Y19340000D03*
X13545000D03*
X13455000Y19440000D03*
X13545000D03*
X13455000Y19540000D03*
X13545000D03*
X13455000Y19640000D03*
X13545000D03*
X13455000Y19740000D03*
X13545000D03*
X13455000Y19840000D03*
X13545000D03*
X13455000Y19940000D03*
X13545000D03*
X13455000Y20040000D03*
X13545000D03*
X13455000Y20140000D03*
X13545000D03*
X13455000Y20240000D03*
X13545000D03*
X13455000Y20340000D03*
X13545000D03*
X13455000Y20440000D03*
X13545000D03*
X13455000Y20540000D03*
X13545000D03*
X13495000Y22890000D03*
Y22990000D03*
Y23190000D03*
Y23290000D03*
Y23490000D03*
Y23590000D03*
Y23790000D03*
Y23890000D03*
Y24540000D03*
Y24640000D03*
Y24840000D03*
Y24940000D03*
Y25140000D03*
Y25240000D03*
Y25540000D03*
Y25440000D03*
X14105000Y7290000D03*
X14195000D03*
X14105000Y7390000D03*
X14195000D03*
X14105000Y7490000D03*
X14195000D03*
X14105000Y7590000D03*
X14195000D03*
X14105000Y7690000D03*
X14195000D03*
X14105000Y7790000D03*
X14195000D03*
X14105000Y7890000D03*
X14195000D03*
X14105000Y8090000D03*
X14195000D03*
X14105000Y7990000D03*
X14195000D03*
X14105000Y8190000D03*
X14195000D03*
X14105000Y8290000D03*
X14195000D03*
X14105000Y8390000D03*
X14195000D03*
X14105000Y8490000D03*
X14195000D03*
X14105000Y8590000D03*
X14195000D03*
X14105000Y8690000D03*
X14195000D03*
X14105000Y8790000D03*
X14195000D03*
G54D43*
X2060000Y1560000D03*
Y1650000D03*
X1950000Y1955000D03*
Y2045000D03*
X2050000Y6005000D03*
Y6095000D03*
X1950000Y6395000D03*
Y6485000D03*
X2050000Y10430000D03*
Y10520000D03*
X1950000Y10915000D03*
Y10825000D03*
X2050000Y11860000D03*
Y11950000D03*
X1950000Y12345000D03*
Y12255000D03*
X2050000Y14795000D03*
Y14885000D03*
X2060000Y16470000D03*
Y16560000D03*
X1950000Y16855000D03*
Y16945000D03*
X2050000Y26790000D03*
Y26880000D03*
X1950000Y27190000D03*
Y27280000D03*
X6250000Y18645000D03*
Y18735000D03*
X6700000Y3845000D03*
Y3935000D03*
Y22745000D03*
Y22835000D03*
X7350000Y24395000D03*
Y24485000D03*
Y24595000D03*
Y24685000D03*
Y24795000D03*
Y24885000D03*
Y24995000D03*
Y25085000D03*
Y25195000D03*
Y25285000D03*
Y25395000D03*
Y25485000D03*
Y25595000D03*
Y25685000D03*
Y25795000D03*
Y25885000D03*
X8050000Y26845000D03*
Y26935000D03*
X8750000Y26845000D03*
Y26935000D03*
X8900000Y26595000D03*
Y26685000D03*
X9500000Y26595000D03*
Y26685000D03*
X10100000Y1495000D03*
Y1585000D03*
X12890000Y8060000D03*
Y8150000D03*
X13110000Y17620000D03*
Y17710000D03*
X13960000Y9200000D03*
Y9380000D03*
X13870000Y9290000D03*
X13960000D03*
Y9600000D03*
Y9780000D03*
X13870000Y9690000D03*
X13960000D03*
X14140000Y9200000D03*
Y9380000D03*
X14230000Y9290000D03*
X14140000D03*
Y9600000D03*
Y9780000D03*
X14230000Y9690000D03*
X14140000D03*
X17750000Y15845000D03*
Y15935000D03*
G54D61*
X6900000Y15590000D03*
X7300000Y6590000D03*
X12100000Y21190000D03*
X12500000Y12190000D03*
G54D25*
X565000Y19570000D03*
Y19970000D03*
X715000Y10440000D03*
Y10690000D03*
Y10940000D03*
X705000Y18775000D03*
Y19025000D03*
Y19275000D03*
X735000Y19505000D03*
Y19635000D03*
Y19905000D03*
Y20035000D03*
X705000Y20240000D03*
Y20490000D03*
Y20740000D03*
X885000Y10375000D03*
Y10505000D03*
Y10625000D03*
Y10755000D03*
Y10875000D03*
Y11005000D03*
X875000Y18710000D03*
Y18840000D03*
Y18960000D03*
Y19090000D03*
Y19210000D03*
Y19340000D03*
Y20175000D03*
Y20305000D03*
Y20425000D03*
Y20555000D03*
Y20675000D03*
Y20805000D03*
X10315000Y24525000D03*
Y24655000D03*
Y25525000D03*
Y25655000D03*
Y25775000D03*
Y25905000D03*
Y26025000D03*
Y26155000D03*
Y26340000D03*
Y26590000D03*
X10485000Y24590000D03*
Y25590000D03*
Y25840000D03*
Y26090000D03*
Y26275000D03*
Y26405000D03*
Y26525000D03*
Y26655000D03*
G54D52*
X4646000Y890000D03*
Y940000D03*
Y990000D03*
Y1040000D03*
Y1090000D03*
Y1140000D03*
Y1190000D03*
Y1240000D03*
Y1290000D03*
Y1340000D03*
Y1390000D03*
Y1440000D03*
Y1490000D03*
Y1540000D03*
Y1590000D03*
Y1640000D03*
Y1690000D03*
Y1740000D03*
Y1790000D03*
Y2190000D03*
Y2240000D03*
Y2290000D03*
Y2340000D03*
Y2390000D03*
Y2440000D03*
Y2490000D03*
Y2540000D03*
Y2590000D03*
Y2640000D03*
Y2690000D03*
Y2740000D03*
Y2790000D03*
Y2840000D03*
Y2890000D03*
Y2940000D03*
Y2990000D03*
Y3040000D03*
Y3090000D03*
Y3490000D03*
Y3540000D03*
Y3590000D03*
Y3640000D03*
Y3690000D03*
Y3740000D03*
Y3790000D03*
Y3840000D03*
Y3890000D03*
Y3940000D03*
Y3990000D03*
Y4040000D03*
Y4090000D03*
Y4140000D03*
Y4190000D03*
Y4240000D03*
Y4290000D03*
Y4340000D03*
Y4390000D03*
Y4790000D03*
Y4840000D03*
Y4890000D03*
Y4940000D03*
Y4990000D03*
Y5040000D03*
Y5090000D03*
Y5140000D03*
Y5190000D03*
Y5240000D03*
Y5290000D03*
Y5340000D03*
Y5390000D03*
Y5440000D03*
Y5490000D03*
Y5540000D03*
Y5590000D03*
Y5640000D03*
Y5690000D03*
Y6090000D03*
Y6140000D03*
Y6190000D03*
Y6240000D03*
Y6290000D03*
Y6340000D03*
Y6390000D03*
Y6440000D03*
Y6490000D03*
Y6540000D03*
Y6590000D03*
Y6640000D03*
Y6690000D03*
Y6740000D03*
Y6790000D03*
Y6840000D03*
Y6890000D03*
Y6940000D03*
Y6990000D03*
Y7390000D03*
Y7440000D03*
Y7490000D03*
Y7540000D03*
Y7590000D03*
Y7640000D03*
Y7690000D03*
Y7740000D03*
Y7790000D03*
Y7840000D03*
Y7890000D03*
Y7940000D03*
Y7990000D03*
Y8040000D03*
Y8090000D03*
Y8140000D03*
Y8190000D03*
Y8240000D03*
Y8290000D03*
Y8690000D03*
Y8740000D03*
Y8790000D03*
Y8840000D03*
Y8890000D03*
Y8940000D03*
Y8990000D03*
Y9040000D03*
Y9090000D03*
Y9140000D03*
Y9190000D03*
Y9240000D03*
Y9290000D03*
Y9340000D03*
Y9390000D03*
Y9440000D03*
Y9490000D03*
Y9540000D03*
Y9590000D03*
Y9990000D03*
Y10040000D03*
Y10090000D03*
Y10140000D03*
Y10190000D03*
Y10240000D03*
Y10290000D03*
Y10340000D03*
Y10390000D03*
Y10440000D03*
Y10490000D03*
Y10540000D03*
Y10590000D03*
Y10640000D03*
Y10690000D03*
Y10740000D03*
Y10790000D03*
Y10840000D03*
Y10890000D03*
Y11290000D03*
Y11340000D03*
Y11390000D03*
Y11440000D03*
Y11490000D03*
Y11540000D03*
Y11590000D03*
Y11640000D03*
Y11690000D03*
Y11740000D03*
Y11790000D03*
Y11840000D03*
Y11890000D03*
Y11940000D03*
Y11990000D03*
Y12040000D03*
Y12090000D03*
Y12140000D03*
Y12190000D03*
Y12590000D03*
Y12640000D03*
Y12690000D03*
Y12740000D03*
Y12790000D03*
Y12840000D03*
Y12890000D03*
Y12940000D03*
Y12990000D03*
Y13040000D03*
Y13090000D03*
Y13140000D03*
Y13190000D03*
Y13240000D03*
Y13290000D03*
Y13340000D03*
Y13390000D03*
Y13440000D03*
Y13490000D03*
Y14290000D03*
Y14340000D03*
Y14390000D03*
Y14440000D03*
Y14490000D03*
Y14540000D03*
Y14590000D03*
Y14640000D03*
Y14690000D03*
Y14740000D03*
Y14790000D03*
Y14840000D03*
Y14890000D03*
Y14940000D03*
Y14990000D03*
Y15040000D03*
Y15090000D03*
Y15140000D03*
Y15190000D03*
Y15590000D03*
Y15640000D03*
Y15690000D03*
Y15740000D03*
Y15790000D03*
Y15840000D03*
Y15890000D03*
Y15940000D03*
Y15990000D03*
Y16040000D03*
Y16090000D03*
Y16140000D03*
Y16190000D03*
Y16240000D03*
Y16290000D03*
Y16340000D03*
Y16390000D03*
Y16440000D03*
Y16490000D03*
Y16890000D03*
Y16940000D03*
Y16990000D03*
Y17040000D03*
Y17090000D03*
Y17140000D03*
Y17190000D03*
Y17240000D03*
Y17290000D03*
Y17340000D03*
Y17390000D03*
Y17440000D03*
Y17490000D03*
Y17540000D03*
Y17590000D03*
Y17640000D03*
Y17690000D03*
Y17740000D03*
Y17790000D03*
Y18190000D03*
Y18240000D03*
Y18290000D03*
Y18340000D03*
Y18390000D03*
Y18440000D03*
Y18490000D03*
Y18540000D03*
Y18590000D03*
Y18640000D03*
Y18690000D03*
Y18740000D03*
Y18790000D03*
Y18840000D03*
Y18890000D03*
Y18940000D03*
Y18990000D03*
Y19040000D03*
Y19090000D03*
Y19490000D03*
Y19540000D03*
Y19590000D03*
Y19640000D03*
Y19690000D03*
Y19740000D03*
Y19790000D03*
Y19840000D03*
Y19890000D03*
Y19940000D03*
Y19990000D03*
Y20040000D03*
Y20090000D03*
Y20140000D03*
Y20190000D03*
Y20240000D03*
Y20290000D03*
Y20340000D03*
Y20390000D03*
Y20790000D03*
Y20840000D03*
Y20890000D03*
Y20940000D03*
Y20990000D03*
Y21040000D03*
Y21090000D03*
Y21140000D03*
Y21190000D03*
Y21240000D03*
Y21290000D03*
Y21340000D03*
Y21390000D03*
Y21440000D03*
Y21490000D03*
Y21540000D03*
Y21590000D03*
Y21640000D03*
Y21690000D03*
Y22090000D03*
Y22140000D03*
Y22190000D03*
Y22240000D03*
Y22290000D03*
Y22340000D03*
Y22390000D03*
Y22440000D03*
Y22490000D03*
Y22540000D03*
Y22590000D03*
Y22640000D03*
Y22690000D03*
Y22740000D03*
Y22790000D03*
Y22840000D03*
Y22890000D03*
Y22940000D03*
Y22990000D03*
Y23390000D03*
Y23440000D03*
Y23490000D03*
Y23540000D03*
Y23590000D03*
Y23640000D03*
Y23690000D03*
Y23740000D03*
Y23790000D03*
Y23840000D03*
Y23890000D03*
Y23940000D03*
Y23990000D03*
Y24040000D03*
Y24090000D03*
Y24140000D03*
Y24190000D03*
Y24240000D03*
Y24290000D03*
Y24690000D03*
Y24740000D03*
Y24790000D03*
Y24840000D03*
Y24890000D03*
Y24940000D03*
Y24990000D03*
Y25040000D03*
Y25090000D03*
Y25140000D03*
Y25190000D03*
Y25240000D03*
Y25290000D03*
Y25340000D03*
Y25390000D03*
Y25440000D03*
Y25490000D03*
Y25540000D03*
Y25590000D03*
Y25990000D03*
Y26040000D03*
Y26090000D03*
Y26140000D03*
Y26190000D03*
Y26240000D03*
Y26290000D03*
Y26340000D03*
Y26390000D03*
Y26440000D03*
Y26490000D03*
Y26540000D03*
Y26590000D03*
Y26640000D03*
Y26690000D03*
Y26740000D03*
Y26790000D03*
Y26840000D03*
Y26890000D03*
X4806000Y940000D03*
Y990000D03*
Y1090000D03*
Y1140000D03*
Y1240000D03*
Y1290000D03*
Y1390000D03*
Y1440000D03*
Y1540000D03*
Y1590000D03*
Y1690000D03*
Y1740000D03*
Y2240000D03*
Y2290000D03*
Y2390000D03*
Y2440000D03*
Y2540000D03*
Y2590000D03*
Y2690000D03*
Y2740000D03*
Y2840000D03*
Y2890000D03*
Y2990000D03*
Y3040000D03*
Y3540000D03*
Y3590000D03*
Y3690000D03*
Y3740000D03*
Y3840000D03*
Y3890000D03*
Y3990000D03*
Y4040000D03*
Y4140000D03*
Y4190000D03*
Y4290000D03*
Y4340000D03*
Y4840000D03*
Y4890000D03*
Y4990000D03*
Y5040000D03*
Y5140000D03*
Y5190000D03*
Y5290000D03*
Y5340000D03*
Y5440000D03*
Y5490000D03*
Y5590000D03*
Y5640000D03*
Y6140000D03*
Y6190000D03*
Y6290000D03*
Y6340000D03*
Y6440000D03*
Y6490000D03*
Y6590000D03*
Y6640000D03*
Y6740000D03*
Y6790000D03*
Y6890000D03*
Y6940000D03*
Y7440000D03*
Y7490000D03*
Y7590000D03*
Y7640000D03*
Y7740000D03*
Y7790000D03*
Y7890000D03*
Y7940000D03*
Y8040000D03*
Y8090000D03*
Y8190000D03*
Y8240000D03*
Y8740000D03*
Y8790000D03*
Y8890000D03*
Y8940000D03*
Y9040000D03*
Y9090000D03*
Y9190000D03*
Y9240000D03*
Y9340000D03*
Y9390000D03*
Y9490000D03*
Y9540000D03*
Y10040000D03*
Y10090000D03*
Y10190000D03*
Y10240000D03*
Y10340000D03*
Y10390000D03*
Y10490000D03*
Y10540000D03*
Y10640000D03*
Y10690000D03*
Y10790000D03*
Y10840000D03*
Y11340000D03*
Y11390000D03*
Y11490000D03*
Y11540000D03*
Y11640000D03*
Y11690000D03*
Y11790000D03*
Y11840000D03*
Y11940000D03*
Y11990000D03*
Y12090000D03*
Y12140000D03*
Y12640000D03*
Y12690000D03*
Y12790000D03*
Y12840000D03*
Y12940000D03*
Y12990000D03*
Y13090000D03*
Y13140000D03*
Y13240000D03*
Y13290000D03*
Y13390000D03*
Y13440000D03*
Y14340000D03*
Y14390000D03*
Y14490000D03*
Y14540000D03*
Y14640000D03*
Y14690000D03*
Y14790000D03*
Y14840000D03*
Y14940000D03*
Y14990000D03*
Y15090000D03*
Y15140000D03*
Y15640000D03*
Y15690000D03*
Y15790000D03*
Y15840000D03*
Y15940000D03*
Y15990000D03*
Y16090000D03*
Y16140000D03*
Y16240000D03*
Y16290000D03*
Y16390000D03*
Y16440000D03*
Y16940000D03*
Y16990000D03*
Y17090000D03*
Y17140000D03*
Y17240000D03*
Y17290000D03*
Y17390000D03*
Y17440000D03*
Y17540000D03*
Y17590000D03*
Y17690000D03*
Y17740000D03*
Y18240000D03*
Y18290000D03*
Y18390000D03*
Y18440000D03*
Y18540000D03*
Y18590000D03*
Y18690000D03*
Y18740000D03*
Y18840000D03*
Y18890000D03*
Y18990000D03*
Y19040000D03*
Y19540000D03*
Y19590000D03*
Y19690000D03*
Y19740000D03*
Y19840000D03*
Y19890000D03*
Y19990000D03*
Y20040000D03*
Y20140000D03*
Y20190000D03*
Y20290000D03*
Y20340000D03*
Y20840000D03*
Y20890000D03*
Y20990000D03*
Y21040000D03*
Y21140000D03*
Y21190000D03*
Y21290000D03*
Y21340000D03*
Y21440000D03*
Y21490000D03*
Y21590000D03*
Y21640000D03*
Y22140000D03*
Y22190000D03*
Y22290000D03*
Y22340000D03*
Y22440000D03*
Y22490000D03*
Y22590000D03*
Y22640000D03*
Y22740000D03*
Y22790000D03*
Y22890000D03*
Y22940000D03*
Y23440000D03*
Y23490000D03*
Y23590000D03*
Y23640000D03*
Y23740000D03*
Y23790000D03*
Y23890000D03*
Y23940000D03*
Y24040000D03*
Y24090000D03*
Y24190000D03*
Y24240000D03*
Y24740000D03*
Y24790000D03*
Y24890000D03*
Y24940000D03*
Y25040000D03*
Y25090000D03*
Y25190000D03*
Y25240000D03*
Y25340000D03*
Y25390000D03*
Y25490000D03*
Y25540000D03*
Y26040000D03*
Y26090000D03*
Y26190000D03*
Y26240000D03*
Y26340000D03*
Y26390000D03*
Y26490000D03*
Y26540000D03*
Y26640000D03*
Y26690000D03*
Y26790000D03*
Y26840000D03*
G54D80*
X10350000Y1465000D03*
Y1515000D03*
Y1565000D03*
Y1615000D03*
X10650000Y1465000D03*
Y1615000D03*
Y1565000D03*
Y1515000D03*
X11905000Y1065000D03*
Y1115000D03*
Y1165000D03*
Y1215000D03*
Y1265000D03*
Y1315000D03*
Y1365000D03*
Y1415000D03*
Y1465000D03*
Y1515000D03*
Y1565000D03*
Y1615000D03*
Y1665000D03*
Y1715000D03*
Y1765000D03*
Y1815000D03*
Y2815000D03*
Y2865000D03*
Y2915000D03*
Y2965000D03*
Y3015000D03*
Y3065000D03*
Y3115000D03*
Y3165000D03*
Y3215000D03*
Y3265000D03*
Y3315000D03*
Y3365000D03*
Y3415000D03*
Y3465000D03*
Y3515000D03*
Y3565000D03*
Y4615000D03*
Y4665000D03*
Y4715000D03*
Y4765000D03*
Y4815000D03*
Y4865000D03*
Y4915000D03*
Y4965000D03*
Y5015000D03*
Y5065000D03*
Y5115000D03*
Y5165000D03*
Y5215000D03*
Y5265000D03*
Y5315000D03*
Y5365000D03*
X11855000Y23015000D03*
Y23065000D03*
Y23115000D03*
Y23165000D03*
Y23215000D03*
Y23265000D03*
Y23315000D03*
Y23365000D03*
Y23415000D03*
Y23465000D03*
Y23515000D03*
Y23565000D03*
Y23615000D03*
Y23665000D03*
Y23715000D03*
Y23765000D03*
Y24665000D03*
Y24715000D03*
Y24765000D03*
Y24815000D03*
Y24865000D03*
Y24915000D03*
Y24965000D03*
Y25015000D03*
Y25065000D03*
Y25115000D03*
Y25165000D03*
Y25215000D03*
Y25265000D03*
Y25315000D03*
Y25365000D03*
Y25415000D03*
X12795000Y1065000D03*
Y1215000D03*
Y1165000D03*
Y1115000D03*
Y1315000D03*
Y1265000D03*
Y1465000D03*
Y1415000D03*
Y1365000D03*
Y1615000D03*
Y1565000D03*
Y1515000D03*
Y1715000D03*
Y1665000D03*
Y1815000D03*
Y1765000D03*
Y2915000D03*
Y2865000D03*
Y2815000D03*
Y3015000D03*
Y2965000D03*
Y3165000D03*
Y3115000D03*
Y3065000D03*
Y3265000D03*
Y3215000D03*
Y3415000D03*
Y3365000D03*
Y3315000D03*
Y3515000D03*
Y3465000D03*
Y3565000D03*
Y4715000D03*
Y4665000D03*
Y4615000D03*
Y4815000D03*
Y4765000D03*
Y4965000D03*
Y4915000D03*
Y4865000D03*
Y5115000D03*
Y5065000D03*
Y5015000D03*
Y5215000D03*
Y5165000D03*
Y5365000D03*
Y5315000D03*
Y5265000D03*
X12745000Y23065000D03*
Y23015000D03*
Y23215000D03*
Y23165000D03*
Y23115000D03*
Y23315000D03*
Y23265000D03*
Y23465000D03*
Y23415000D03*
Y23365000D03*
Y23565000D03*
Y23515000D03*
Y23715000D03*
Y23665000D03*
Y23615000D03*
Y23765000D03*
Y24765000D03*
Y24715000D03*
Y24665000D03*
Y24865000D03*
Y24815000D03*
Y25015000D03*
Y24965000D03*
Y24915000D03*
Y25115000D03*
Y25065000D03*
Y25265000D03*
Y25215000D03*
Y25165000D03*
Y25415000D03*
Y25365000D03*
Y25315000D03*
G54D62*
X6950000Y22216000D03*
Y22364000D03*
X7050000Y22216000D03*
X7000000Y22364000D03*
X7050000D03*
X7200000Y22216000D03*
Y22364000D03*
X7300000Y22216000D03*
X7250000Y22364000D03*
X7300000D03*
X7450000Y22216000D03*
Y22364000D03*
X7550000Y22216000D03*
X7500000Y22364000D03*
X7550000D03*
X7700000Y22216000D03*
Y22364000D03*
X7750000D03*
X7800000Y22216000D03*
Y22364000D03*
X8000000Y22216000D03*
Y22364000D03*
X8100000Y22216000D03*
X8050000Y22364000D03*
X8100000D03*
X8250000Y22216000D03*
Y22364000D03*
X8350000Y22216000D03*
X8300000Y22364000D03*
X8350000D03*
X8500000Y22216000D03*
Y22364000D03*
X8600000Y22216000D03*
X8550000Y22364000D03*
X8600000D03*
X8750000Y22216000D03*
Y22364000D03*
X8850000Y22216000D03*
X8800000Y22364000D03*
X8850000D03*
X8900000Y27066000D03*
Y27214000D03*
X9000000Y27066000D03*
X8950000Y27214000D03*
X9000000D03*
X9150000Y22216000D03*
X9050000D03*
Y22364000D03*
X9100000D03*
X9150000D03*
X9400000Y22216000D03*
Y22364000D03*
X9500000Y22216000D03*
X9450000Y22364000D03*
X9500000D03*
X9660000Y22721000D03*
Y22869000D03*
X9760000Y22721000D03*
X9710000Y22869000D03*
X9760000D03*
X16600000Y10516000D03*
Y10664000D03*
X16650000D03*
X16700000Y10516000D03*
Y10664000D03*
G54D44*
X2400000Y390000D03*
Y13890000D03*
Y27390000D03*
X14950000Y790000D03*
X16500000Y26890000D03*
X17050000Y13140000D03*
G54D17*
X280000Y5722500D03*
Y5787500D03*
Y5852500D03*
Y5917500D03*
Y5982500D03*
Y6047500D03*
Y6112500D03*
Y6177500D03*
Y6242500D03*
Y6307500D03*
Y6372500D03*
Y6437500D03*
Y6922500D03*
Y6987500D03*
Y7052500D03*
Y7117500D03*
Y7182500D03*
Y7247500D03*
Y7312500D03*
Y7377500D03*
Y7442500D03*
Y7507500D03*
Y7572500D03*
Y7637500D03*
X840000Y5722500D03*
Y5852500D03*
Y5787500D03*
Y5982500D03*
Y5917500D03*
Y6112500D03*
Y6047500D03*
Y6242500D03*
Y6177500D03*
Y6372500D03*
Y6307500D03*
Y6437500D03*
Y6922500D03*
Y7052500D03*
Y6987500D03*
Y7182500D03*
Y7117500D03*
Y7312500D03*
Y7247500D03*
Y7442500D03*
Y7377500D03*
Y7572500D03*
Y7507500D03*
Y7637500D03*
X1170000Y3182500D03*
Y3247500D03*
Y3312500D03*
Y3377500D03*
Y3442500D03*
Y3507500D03*
Y3572500D03*
Y3637500D03*
Y3702500D03*
Y3767500D03*
Y3832500D03*
Y3897500D03*
Y4382500D03*
Y4447500D03*
Y4512500D03*
Y4577500D03*
Y4642500D03*
Y4707500D03*
Y4772500D03*
Y4837500D03*
Y4902500D03*
Y4967500D03*
Y5032500D03*
Y5097500D03*
X1320000Y19832500D03*
Y19897500D03*
Y19962500D03*
Y20027500D03*
Y20092500D03*
Y20157500D03*
Y20222500D03*
Y20287500D03*
Y20352500D03*
Y20417500D03*
Y20482500D03*
Y20547500D03*
Y20782500D03*
Y20847500D03*
Y20912500D03*
Y20977500D03*
Y21042500D03*
Y21107500D03*
Y21172500D03*
Y21237500D03*
Y21302500D03*
Y21367500D03*
Y21432500D03*
Y21497500D03*
Y23482500D03*
Y23547500D03*
Y23612500D03*
Y23677500D03*
Y23742500D03*
Y23807500D03*
Y23872500D03*
Y23937500D03*
Y24002500D03*
Y24067500D03*
Y24132500D03*
Y24197500D03*
Y25267500D03*
Y25332500D03*
Y25397500D03*
Y25462500D03*
Y25527500D03*
Y25592500D03*
Y25657500D03*
Y25722500D03*
Y25787500D03*
Y25852500D03*
Y25917500D03*
Y25982500D03*
X1730000Y3247500D03*
Y3182500D03*
Y3377500D03*
Y3312500D03*
Y3507500D03*
Y3442500D03*
Y3637500D03*
Y3572500D03*
Y3767500D03*
Y3702500D03*
Y3897500D03*
Y3832500D03*
Y4447500D03*
Y4382500D03*
Y4577500D03*
Y4512500D03*
Y4707500D03*
Y4642500D03*
Y4837500D03*
Y4772500D03*
Y4967500D03*
Y4902500D03*
Y5097500D03*
Y5032500D03*
X1880000Y19832500D03*
Y19962500D03*
Y19897500D03*
Y20092500D03*
Y20027500D03*
Y20222500D03*
Y20157500D03*
Y20352500D03*
Y20287500D03*
Y20482500D03*
Y20417500D03*
Y20547500D03*
Y20847500D03*
Y20782500D03*
Y20977500D03*
Y20912500D03*
Y21107500D03*
Y21042500D03*
Y21237500D03*
Y21172500D03*
Y21367500D03*
Y21302500D03*
Y21497500D03*
Y21432500D03*
Y23547500D03*
Y23482500D03*
Y23677500D03*
Y23612500D03*
Y23807500D03*
Y23742500D03*
Y23937500D03*
Y23872500D03*
Y24067500D03*
Y24002500D03*
Y24197500D03*
Y24132500D03*
Y25267500D03*
Y25397500D03*
Y25332500D03*
Y25527500D03*
Y25462500D03*
Y25657500D03*
Y25592500D03*
Y25787500D03*
Y25722500D03*
Y25917500D03*
Y25852500D03*
Y25982500D03*
X5470000Y13632500D03*
Y13697500D03*
Y13762500D03*
Y13827500D03*
Y13892500D03*
Y13957500D03*
Y14022500D03*
Y14087500D03*
Y14152500D03*
Y14217500D03*
Y14282500D03*
Y14347500D03*
X6030000Y13632500D03*
Y13762500D03*
Y13697500D03*
Y13892500D03*
Y13827500D03*
Y14022500D03*
Y13957500D03*
Y14152500D03*
Y14087500D03*
Y14282500D03*
Y14217500D03*
Y14347500D03*
X10420000Y2732500D03*
Y2797500D03*
Y2862500D03*
Y2927500D03*
Y2992500D03*
Y3057500D03*
Y3122500D03*
Y3187500D03*
Y3252500D03*
Y3317500D03*
Y3382500D03*
Y3447500D03*
X10980000Y2732500D03*
Y2862500D03*
Y2797500D03*
Y2992500D03*
Y2927500D03*
Y3122500D03*
Y3057500D03*
Y3252500D03*
Y3187500D03*
Y3382500D03*
Y3317500D03*
Y3447500D03*
X11070000Y26482500D03*
Y26547500D03*
Y26612500D03*
Y26677500D03*
Y26742500D03*
Y26807500D03*
Y26872500D03*
Y26937500D03*
Y27002500D03*
Y27067500D03*
Y27132500D03*
Y27197500D03*
X11630000Y26547500D03*
Y26482500D03*
Y26677500D03*
Y26612500D03*
Y26807500D03*
Y26742500D03*
Y26937500D03*
Y26872500D03*
Y27067500D03*
Y27002500D03*
Y27197500D03*
Y27132500D03*
X12070000Y26482500D03*
Y26547500D03*
Y26612500D03*
Y26677500D03*
Y26742500D03*
Y26807500D03*
Y26872500D03*
Y26937500D03*
Y27002500D03*
Y27067500D03*
Y27132500D03*
Y27197500D03*
X12630000Y26547500D03*
Y26482500D03*
Y26677500D03*
Y26612500D03*
Y26807500D03*
Y26742500D03*
Y26937500D03*
Y26872500D03*
Y27067500D03*
Y27002500D03*
Y27197500D03*
Y27132500D03*
X13870000Y23532500D03*
Y23597500D03*
Y23662500D03*
Y23727500D03*
Y23792500D03*
Y23857500D03*
Y23922500D03*
Y23987500D03*
Y24052500D03*
Y24117500D03*
Y24182500D03*
Y24247500D03*
X14430000Y23597500D03*
Y23532500D03*
Y23727500D03*
Y23662500D03*
Y23857500D03*
Y23792500D03*
Y23987500D03*
Y23922500D03*
Y24117500D03*
Y24052500D03*
Y24247500D03*
Y24182500D03*
G54D53*
X4796000Y890000D03*
Y1040000D03*
Y1190000D03*
Y1340000D03*
Y1490000D03*
Y1640000D03*
Y1790000D03*
Y2190000D03*
Y2340000D03*
Y2490000D03*
Y2640000D03*
Y2790000D03*
Y2940000D03*
Y3090000D03*
Y3490000D03*
Y3640000D03*
Y3790000D03*
Y3940000D03*
Y4090000D03*
Y4240000D03*
Y4390000D03*
Y4790000D03*
Y4940000D03*
Y5090000D03*
Y5240000D03*
Y5390000D03*
Y5540000D03*
Y5690000D03*
Y6090000D03*
Y6240000D03*
Y6390000D03*
Y6540000D03*
Y6690000D03*
Y6840000D03*
Y6990000D03*
Y7390000D03*
Y7540000D03*
Y7690000D03*
Y7840000D03*
Y7990000D03*
Y8140000D03*
Y8290000D03*
Y8690000D03*
Y8840000D03*
Y8990000D03*
Y9140000D03*
Y9290000D03*
Y9440000D03*
Y9590000D03*
Y9990000D03*
Y10140000D03*
Y10290000D03*
Y10440000D03*
Y10590000D03*
Y10740000D03*
Y10890000D03*
Y11290000D03*
Y11440000D03*
Y11590000D03*
Y11740000D03*
Y11890000D03*
Y12040000D03*
Y12190000D03*
Y12590000D03*
Y12740000D03*
Y12890000D03*
Y13040000D03*
Y13190000D03*
Y13340000D03*
Y13490000D03*
Y14290000D03*
Y14440000D03*
Y14590000D03*
Y14740000D03*
Y14890000D03*
Y15040000D03*
Y15190000D03*
Y15590000D03*
Y15740000D03*
Y15890000D03*
Y16040000D03*
Y16190000D03*
Y16340000D03*
Y16490000D03*
Y16890000D03*
Y17040000D03*
Y17190000D03*
Y17340000D03*
Y17490000D03*
Y17640000D03*
Y17790000D03*
Y18190000D03*
Y18340000D03*
Y18490000D03*
Y18640000D03*
Y18790000D03*
Y18940000D03*
Y19090000D03*
Y19490000D03*
Y19640000D03*
Y19790000D03*
Y19940000D03*
Y20090000D03*
Y20240000D03*
Y20390000D03*
Y20790000D03*
Y20940000D03*
Y21090000D03*
Y21240000D03*
Y21390000D03*
Y21540000D03*
Y21690000D03*
Y22090000D03*
Y22240000D03*
Y22390000D03*
Y22540000D03*
Y22690000D03*
Y22840000D03*
Y22990000D03*
Y23390000D03*
Y23540000D03*
Y23690000D03*
Y23840000D03*
Y23990000D03*
Y24140000D03*
Y24290000D03*
Y24690000D03*
Y24840000D03*
Y24990000D03*
Y25140000D03*
Y25290000D03*
Y25440000D03*
Y25590000D03*
Y25990000D03*
Y26140000D03*
Y26290000D03*
Y26440000D03*
Y26590000D03*
Y26740000D03*
Y26890000D03*
G54D26*
X740170Y8584400D03*
Y8533600D03*
Y8482800D03*
Y8736800D03*
Y8686000D03*
Y8635200D03*
Y8838400D03*
Y8787600D03*
Y8990800D03*
Y8940000D03*
Y8889200D03*
Y9092400D03*
Y9041600D03*
Y9244800D03*
Y9194000D03*
Y9143200D03*
Y9346400D03*
Y9295600D03*
Y9397200D03*
Y17242800D03*
Y17395200D03*
Y17344400D03*
Y17293600D03*
Y17496800D03*
Y17446000D03*
Y17649200D03*
Y17598400D03*
Y17547600D03*
Y17750800D03*
Y17700000D03*
Y17903200D03*
Y17852400D03*
Y17801600D03*
Y18004800D03*
Y17954000D03*
Y18157200D03*
Y18106400D03*
Y18055600D03*
G54D35*
X1346000Y1659880D03*
Y6099880D03*
Y10529880D03*
Y11959880D03*
Y16559880D03*
Y26894880D03*
X1473000Y1659880D03*
Y6099880D03*
Y10529880D03*
Y11959880D03*
Y16559880D03*
Y26894880D03*
X1600000Y1659880D03*
Y6099880D03*
Y10529880D03*
Y11959880D03*
Y16559880D03*
Y26894880D03*
X1727000Y1659880D03*
Y6099880D03*
Y10529880D03*
Y11959880D03*
Y16559880D03*
Y26894880D03*
X1854000Y1659880D03*
Y6099880D03*
Y10529880D03*
Y11959880D03*
Y16559880D03*
Y26894880D03*
G54D71*
X7900000Y24920000D03*
Y24960000D03*
Y25000000D03*
Y25040000D03*
Y25080000D03*
Y25120000D03*
Y25160000D03*
Y25200000D03*
Y25240000D03*
Y25280000D03*
Y25320000D03*
Y25360000D03*
Y25400000D03*
Y25440000D03*
Y25480000D03*
Y25520000D03*
Y25560000D03*
Y25600000D03*
Y25640000D03*
Y25680000D03*
Y25720000D03*
Y25760000D03*
Y25800000D03*
Y25840000D03*
Y25880000D03*
Y25920000D03*
Y25960000D03*
Y26000000D03*
Y26040000D03*
Y26080000D03*
Y26120000D03*
Y26160000D03*
X9400000Y25000000D03*
Y24960000D03*
Y24920000D03*
Y25120000D03*
Y25080000D03*
Y25040000D03*
Y25280000D03*
Y25240000D03*
Y25200000D03*
Y25160000D03*
Y25400000D03*
Y25360000D03*
Y25320000D03*
Y25520000D03*
Y25480000D03*
Y25440000D03*
Y25640000D03*
Y25600000D03*
Y25560000D03*
Y25800000D03*
Y25760000D03*
Y25720000D03*
Y25680000D03*
Y25920000D03*
Y25880000D03*
Y25840000D03*
Y26040000D03*
Y26000000D03*
Y25960000D03*
Y26160000D03*
Y26120000D03*
Y26080000D03*
G54D36*
X1800000Y390000D03*
Y13890000D03*
Y24690000D03*
X1950000Y8500000D03*
Y19300000D03*
X4400000Y390000D03*
Y27440000D03*
X14100000Y26940000D03*
X14800000Y11890000D03*
X15550000Y790000D03*
X16200000D03*
Y19390000D03*
X16500000Y26290000D03*
X17650000Y13140000D03*
G54D45*
X2179880Y22000000D03*
Y22900000D03*
G54D81*
X10425000Y1390000D03*
Y1690000D03*
X10575000Y1390000D03*
X10525000D03*
X10475000D03*
Y1690000D03*
X10525000D03*
X10575000D03*
X11975000Y995000D03*
Y1885000D03*
Y2745000D03*
Y3635000D03*
Y4545000D03*
Y5435000D03*
Y22945000D03*
X11925000D03*
Y23835000D03*
X11975000D03*
Y24595000D03*
X11925000D03*
Y25485000D03*
X11975000D03*
X12125000Y995000D03*
X12075000D03*
X12025000D03*
Y1885000D03*
X12075000D03*
X12125000D03*
Y2745000D03*
X12075000D03*
X12025000D03*
Y3635000D03*
X12075000D03*
X12125000D03*
Y4545000D03*
X12075000D03*
X12025000D03*
Y5435000D03*
X12075000D03*
X12125000D03*
Y22945000D03*
X12075000D03*
X12025000D03*
Y23835000D03*
X12075000D03*
X12125000D03*
Y24595000D03*
X12075000D03*
X12025000D03*
Y25485000D03*
X12075000D03*
X12125000D03*
X12275000Y995000D03*
X12225000D03*
X12175000D03*
Y1885000D03*
X12225000D03*
X12275000D03*
Y2745000D03*
X12225000D03*
X12175000D03*
Y3635000D03*
X12225000D03*
X12275000D03*
Y4545000D03*
X12225000D03*
X12175000D03*
Y5435000D03*
X12225000D03*
X12275000D03*
Y22945000D03*
X12225000D03*
X12175000D03*
Y23835000D03*
X12225000D03*
X12275000D03*
Y24595000D03*
X12225000D03*
X12175000D03*
Y25485000D03*
X12225000D03*
X12275000D03*
X12375000Y995000D03*
X12325000D03*
Y1885000D03*
X12375000D03*
Y2745000D03*
X12325000D03*
Y3635000D03*
X12375000D03*
Y4545000D03*
X12325000D03*
Y5435000D03*
X12375000D03*
Y22945000D03*
X12325000D03*
Y23835000D03*
X12375000D03*
Y24595000D03*
X12325000D03*
Y25485000D03*
X12375000D03*
X12525000Y995000D03*
X12475000D03*
X12425000D03*
Y1885000D03*
X12475000D03*
X12525000D03*
Y2745000D03*
X12475000D03*
X12425000D03*
Y3635000D03*
X12475000D03*
X12525000D03*
Y4545000D03*
X12475000D03*
X12425000D03*
Y5435000D03*
X12475000D03*
X12525000D03*
Y22945000D03*
X12475000D03*
X12425000D03*
Y23835000D03*
X12475000D03*
X12525000D03*
Y24595000D03*
X12475000D03*
X12425000D03*
Y25485000D03*
X12475000D03*
X12525000D03*
X12625000Y995000D03*
X12575000D03*
Y1885000D03*
X12625000D03*
Y2745000D03*
X12575000D03*
Y3635000D03*
X12625000D03*
Y4545000D03*
X12575000D03*
Y5435000D03*
X12625000D03*
Y22945000D03*
X12575000D03*
Y23835000D03*
X12625000D03*
Y24595000D03*
X12575000D03*
Y25485000D03*
X12625000D03*
X12725000Y995000D03*
X12675000D03*
Y1885000D03*
X12725000D03*
Y2745000D03*
X12675000D03*
Y3635000D03*
X12725000D03*
Y4545000D03*
X12675000D03*
Y5435000D03*
X12725000D03*
X12675000Y22945000D03*
Y23835000D03*
Y24595000D03*
Y25485000D03*
G54D18*
X200000Y21100000D03*
Y21300000D03*
Y21500000D03*
Y21700000D03*
Y21900000D03*
Y22100000D03*
Y22300000D03*
X409640Y14326600D03*
X400000Y21100000D03*
Y21300000D03*
Y21500000D03*
Y21700000D03*
Y21900000D03*
Y22100000D03*
Y22300000D03*
X579820Y14326600D03*
X750000D03*
X920180D03*
X1143700Y12853400D03*
X1090360Y14326600D03*
X1250000Y340000D03*
X1700000Y12740000D03*
Y13090000D03*
X2300000Y15190000D03*
X2895000Y27450000D03*
X3200000D03*
X3500000D03*
X3800000D03*
X4900000Y27440000D03*
X5450000Y23190000D03*
X5700000Y3365000D03*
X6550000Y5135000D03*
X7200000Y24040000D03*
X9900000Y23640000D03*
X10100000D03*
X10400000D03*
X12100000Y5690000D03*
X12450000Y21440000D03*
X15600000Y1340000D03*
Y1590000D03*
Y4290000D03*
X15850000Y27240000D03*
X16100000D03*
X16650000Y16990000D03*
X16909640Y15326600D03*
X16955000Y16840000D03*
X16950000Y17140000D03*
X17079820Y15326600D03*
X17250000D03*
X17420180D03*
X17590360D03*
X17643700Y13853400D03*
G54D27*
X740000Y22640000D03*
X5545000Y27475000D03*
X5850000Y27470000D03*
X6150000D03*
X6450000D03*
G54D63*
X7008560Y24390000D03*
Y24590000D03*
Y24790000D03*
Y24990000D03*
Y25190000D03*
Y25390000D03*
Y25590000D03*
Y25790000D03*
X7191440Y24390000D03*
Y24590000D03*
Y24790000D03*
Y24990000D03*
Y25190000D03*
Y25390000D03*
Y25590000D03*
Y25790000D03*
G54D90*
X14595000Y13437500D03*
Y13762500D03*
Y14087500D03*
Y14412500D03*
Y14737500D03*
Y17237500D03*
Y17562500D03*
Y17887500D03*
Y18212500D03*
Y18537500D03*
Y21037500D03*
Y21362500D03*
Y21687500D03*
Y22012500D03*
Y22337500D03*
Y24837500D03*
Y25162500D03*
Y25487500D03*
Y25812500D03*
Y26137500D03*
X15345000Y9337500D03*
Y9662500D03*
Y9987500D03*
Y10312500D03*
Y10637500D03*
X15605000Y13467500D03*
Y13817500D03*
Y17267500D03*
Y17617500D03*
Y21067500D03*
Y21417500D03*
Y24867500D03*
Y25217500D03*
X16045000Y2287500D03*
Y2612500D03*
Y2937500D03*
Y3262500D03*
Y3587500D03*
Y5837500D03*
Y6162500D03*
Y6487500D03*
Y6812500D03*
Y7137500D03*
X16355000Y9367500D03*
Y9717500D03*
X17055000Y2317500D03*
Y2667500D03*
Y5867500D03*
Y6217500D03*
G54D54*
X5578550Y18240000D03*
X5728550Y15740000D03*
X5658550Y21145000D03*
X5921450Y18240000D03*
X6071450Y15740000D03*
X6001450Y21145000D03*
X10618550Y6135000D03*
X10563550Y15250000D03*
X10906450D03*
X10961450Y6135000D03*
X12853550Y20970000D03*
X13196450D03*
X13988550Y12565000D03*
X14331450D03*
G54D72*
X8110000Y24790000D03*
X8070000D03*
X8030000D03*
Y26290000D03*
X8070000D03*
X8110000D03*
X8230000Y24790000D03*
X8190000D03*
X8150000D03*
Y26290000D03*
X8190000D03*
X8230000D03*
X8390000Y24790000D03*
X8350000D03*
X8310000D03*
X8270000D03*
Y26290000D03*
X8310000D03*
X8350000D03*
X8390000D03*
X8510000Y24790000D03*
X8470000D03*
X8430000D03*
Y26290000D03*
X8470000D03*
X8510000D03*
X8630000Y24790000D03*
X8590000D03*
X8550000D03*
Y26290000D03*
X8590000D03*
X8630000D03*
X8750000Y24790000D03*
X8710000D03*
X8670000D03*
Y26290000D03*
X8710000D03*
X8750000D03*
X8910000Y24790000D03*
X8870000D03*
X8830000D03*
X8790000D03*
Y26290000D03*
X8830000D03*
X8870000D03*
X8910000D03*
X9030000Y24790000D03*
X8990000D03*
X8950000D03*
Y26290000D03*
X8990000D03*
X9030000D03*
X9150000Y24790000D03*
X9110000D03*
X9070000D03*
Y26290000D03*
X9110000D03*
X9150000D03*
X9270000Y24790000D03*
X9230000D03*
X9190000D03*
Y26290000D03*
X9230000D03*
X9270000D03*
G54D55*
X5930000Y3940000D03*
Y4240000D03*
Y22770000D03*
Y23070000D03*
X6070000Y3940000D03*
Y4240000D03*
Y22770000D03*
Y23070000D03*
X14830000Y15617500D03*
Y19417500D03*
Y23217500D03*
Y27017500D03*
X15010000Y15617500D03*
Y19417500D03*
Y23217500D03*
Y27017500D03*
X15190000Y15617500D03*
Y19417500D03*
Y23217500D03*
Y27017500D03*
X15370000Y15617500D03*
Y19417500D03*
Y23217500D03*
Y27017500D03*
X15580000Y11517500D03*
X15760000D03*
X15940000D03*
X16120000D03*
X16280000Y4467500D03*
Y8017500D03*
X16460000Y4467500D03*
Y8017500D03*
X16640000Y4467500D03*
Y8017500D03*
X16820000Y4467500D03*
Y8017500D03*
G54D73*
X8250000Y26810000D03*
Y26970000D03*
X8550000Y26810000D03*
Y26970000D03*
G54D37*
X1600000Y1040120D03*
Y5480120D03*
Y9910120D03*
Y11340120D03*
Y15940120D03*
Y26275120D03*
G54D82*
X10500000Y1540000D03*
G54D19*
X470000Y1315000D03*
Y2065000D03*
Y11515000D03*
Y12265000D03*
Y25765000D03*
Y26515000D03*
X970000Y1315000D03*
Y2065000D03*
Y11515000D03*
Y12265000D03*
Y25765000D03*
Y26515000D03*
G54D91*
X14925000Y13402500D03*
Y17202500D03*
Y21002500D03*
Y24802500D03*
X15275000Y13402500D03*
Y17202500D03*
Y21002500D03*
Y24802500D03*
X15675000Y9302500D03*
X16025000D03*
X16375000Y2252500D03*
Y5802500D03*
X16725000Y2252500D03*
Y5802500D03*
G54D28*
X900000Y14718550D03*
Y15061450D03*
X6095000Y6818550D03*
Y7161450D03*
X6110000Y9358550D03*
Y9701450D03*
X6100000Y11863550D03*
Y12206450D03*
X16650000Y15768550D03*
Y16111450D03*
G54D64*
X6990780Y25973960D03*
Y26040000D03*
Y26223960D03*
Y26290000D03*
Y26523960D03*
Y26656040D03*
Y26773960D03*
Y26906040D03*
Y27073960D03*
Y27140000D03*
Y27323960D03*
Y27390000D03*
X7209220Y25973960D03*
Y26106040D03*
Y26223960D03*
Y26356040D03*
Y26590000D03*
Y26656040D03*
Y26840000D03*
Y26906040D03*
Y27073960D03*
Y27206040D03*
Y27323960D03*
Y27456040D03*
G54D46*
X2800000Y980000D03*
Y1060000D03*
Y1140000D03*
Y1220000D03*
Y1300000D03*
Y1380000D03*
Y1460000D03*
Y1540000D03*
Y1620000D03*
Y1700000D03*
Y2280000D03*
Y2360000D03*
Y2440000D03*
Y2520000D03*
Y2600000D03*
Y2680000D03*
Y2760000D03*
Y2840000D03*
Y2920000D03*
Y3000000D03*
Y3580000D03*
Y3660000D03*
Y3740000D03*
Y3820000D03*
Y3900000D03*
Y3980000D03*
Y4060000D03*
Y4140000D03*
Y4220000D03*
Y4300000D03*
Y4880000D03*
Y4960000D03*
Y5040000D03*
Y5120000D03*
Y5200000D03*
Y5280000D03*
Y5360000D03*
Y5440000D03*
Y5520000D03*
Y5600000D03*
Y6180000D03*
Y6260000D03*
Y6340000D03*
Y6420000D03*
Y6500000D03*
Y6580000D03*
Y6660000D03*
Y6740000D03*
Y6820000D03*
Y6900000D03*
Y7480000D03*
Y7560000D03*
Y7640000D03*
Y7720000D03*
Y7800000D03*
Y7880000D03*
Y7960000D03*
Y8040000D03*
Y8120000D03*
Y8200000D03*
Y8780000D03*
Y8860000D03*
Y8940000D03*
Y9020000D03*
Y9100000D03*
Y9180000D03*
Y9260000D03*
Y9340000D03*
Y9420000D03*
Y9500000D03*
Y10080000D03*
Y10160000D03*
Y10240000D03*
Y10320000D03*
Y10400000D03*
Y10480000D03*
Y10560000D03*
Y10640000D03*
Y10720000D03*
Y10800000D03*
Y11380000D03*
Y11460000D03*
Y11540000D03*
Y11620000D03*
Y11700000D03*
Y11780000D03*
Y11860000D03*
Y11940000D03*
Y12020000D03*
Y12100000D03*
Y12680000D03*
Y12760000D03*
Y12840000D03*
Y12920000D03*
Y13000000D03*
Y13080000D03*
Y13160000D03*
Y13240000D03*
Y13320000D03*
Y13400000D03*
Y14380000D03*
Y14460000D03*
Y14540000D03*
Y14620000D03*
Y14700000D03*
Y14780000D03*
Y14860000D03*
Y14940000D03*
Y15020000D03*
Y15100000D03*
Y15680000D03*
Y15760000D03*
Y15840000D03*
Y15920000D03*
Y16000000D03*
Y16080000D03*
Y16160000D03*
Y16240000D03*
Y16320000D03*
Y16400000D03*
Y16980000D03*
Y17060000D03*
Y17140000D03*
Y17220000D03*
Y17300000D03*
Y17380000D03*
Y17460000D03*
Y17540000D03*
Y17620000D03*
Y17700000D03*
Y18280000D03*
Y18360000D03*
Y18440000D03*
Y18520000D03*
Y18600000D03*
Y18680000D03*
Y18760000D03*
Y18840000D03*
Y18920000D03*
Y19000000D03*
Y19580000D03*
Y19660000D03*
Y19740000D03*
Y19820000D03*
Y19900000D03*
Y19980000D03*
Y20060000D03*
Y20140000D03*
Y20220000D03*
Y20300000D03*
Y20880000D03*
Y20960000D03*
Y21040000D03*
Y21120000D03*
Y21200000D03*
Y21280000D03*
Y21360000D03*
Y21440000D03*
Y21520000D03*
Y21600000D03*
Y22180000D03*
Y22260000D03*
Y22340000D03*
Y22420000D03*
Y22500000D03*
Y22580000D03*
Y22660000D03*
Y22740000D03*
Y22820000D03*
Y22900000D03*
Y23480000D03*
Y23560000D03*
Y23640000D03*
Y23720000D03*
Y23800000D03*
Y23880000D03*
Y23960000D03*
Y24040000D03*
Y24120000D03*
Y24200000D03*
Y24780000D03*
Y24860000D03*
Y24940000D03*
Y25020000D03*
Y25100000D03*
Y25180000D03*
Y25260000D03*
Y25340000D03*
Y25420000D03*
Y25500000D03*
Y26080000D03*
Y26160000D03*
Y26240000D03*
Y26320000D03*
Y26400000D03*
Y26480000D03*
Y26560000D03*
Y26640000D03*
Y26720000D03*
Y26800000D03*
G54D92*
X15150000Y12360000D03*
Y12920000D03*
Y16160000D03*
Y16720000D03*
Y19960000D03*
Y20520000D03*
Y23760000D03*
Y24320000D03*
X15950000Y12360000D03*
Y12920000D03*
Y16160000D03*
Y16720000D03*
Y19960000D03*
Y20520000D03*
Y23760000D03*
Y24320000D03*
G54D83*
X11285000Y1297000D03*
Y1483000D03*
Y3047000D03*
Y3233000D03*
Y4847000D03*
Y5033000D03*
X11235000Y23247000D03*
Y23433000D03*
Y24897000D03*
Y25083000D03*
X11515000Y1297000D03*
Y1483000D03*
Y3047000D03*
Y3233000D03*
Y4847000D03*
Y5033000D03*
X11465000Y23247000D03*
Y23433000D03*
Y24897000D03*
Y25083000D03*
G54D47*
X2956000Y867500D03*
Y1812500D03*
Y2167500D03*
Y3112500D03*
Y3467500D03*
Y4412500D03*
Y4767500D03*
Y5712500D03*
Y6067500D03*
Y7012500D03*
Y7367500D03*
Y8312500D03*
Y8667500D03*
Y9612500D03*
Y9967500D03*
Y10912500D03*
Y11267500D03*
Y12212500D03*
Y12567500D03*
Y13512500D03*
Y14267500D03*
Y15212500D03*
Y15567500D03*
Y16512500D03*
Y16867500D03*
Y17812500D03*
Y18167500D03*
Y19112500D03*
Y19467500D03*
Y20412500D03*
Y20767500D03*
Y21712500D03*
Y22067500D03*
Y23012500D03*
Y23367500D03*
Y24312500D03*
Y24667500D03*
Y25612500D03*
Y25967500D03*
Y26912500D03*
X4411000Y1812500D03*
Y3112500D03*
Y4412500D03*
Y5712500D03*
Y7012500D03*
Y8312500D03*
Y9612500D03*
Y10912500D03*
Y12212500D03*
Y13512500D03*
Y15212500D03*
Y16512500D03*
Y17812500D03*
Y19112500D03*
Y20412500D03*
Y21712500D03*
Y23012500D03*
Y24312500D03*
Y25612500D03*
Y26912500D03*
X4451000Y867500D03*
Y2167500D03*
Y3467500D03*
Y4767500D03*
Y6067500D03*
Y7367500D03*
Y8667500D03*
Y9967500D03*
Y11267500D03*
Y12567500D03*
Y14267500D03*
Y15567500D03*
Y16867500D03*
Y18167500D03*
Y19467500D03*
Y20767500D03*
Y22067500D03*
Y23367500D03*
Y24667500D03*
Y25967500D03*
G54D65*
X6990780Y26106040D03*
Y26356040D03*
Y27206040D03*
Y27456040D03*
X7209220Y26523960D03*
Y26773960D03*
G54D56*
X5959500Y4570760D03*
Y23470760D03*
X8561000Y4637500D03*
Y5590000D03*
X8688000Y4637500D03*
Y5590000D03*
X8815000Y4637500D03*
Y5590000D03*
X8942000Y4637500D03*
Y5590000D03*
X9069000Y4637500D03*
Y5590000D03*
X9196000Y4637500D03*
Y5590000D03*
X9323000Y4637500D03*
Y5590000D03*
X9450000Y4637500D03*
X10950000Y22642500D03*
X11077000Y21690000D03*
Y22642500D03*
X11204000Y21690000D03*
Y22642500D03*
X11331000Y21690000D03*
Y22642500D03*
X11458000Y21690000D03*
Y22642500D03*
X11585000Y21690000D03*
Y22642500D03*
X11712000Y21690000D03*
Y22642500D03*
X11839000Y21690000D03*
Y22642500D03*
G54D38*
X1480760Y15199500D03*
Y15326500D03*
Y15453500D03*
X2019240Y15196960D03*
Y15326500D03*
Y15453500D03*
Y15580500D03*
X13065760Y26744500D03*
Y26871500D03*
Y26998500D03*
X13604240Y26741960D03*
Y26871500D03*
Y26998500D03*
Y27125500D03*
X16430760Y17399500D03*
Y17526500D03*
Y17653500D03*
X16969240Y17396960D03*
Y17526500D03*
Y17653500D03*
Y17780500D03*
X17230760Y16249500D03*
Y16376500D03*
Y16503500D03*
X17769240Y16246960D03*
Y16376500D03*
Y16503500D03*
Y16630500D03*
G54D74*
X8270460Y27193480D03*
Y27290000D03*
Y27386520D03*
X8529540Y27193480D03*
Y27290000D03*
Y27386520D03*
G54D29*
X853480Y15710460D03*
Y15969540D03*
X950000Y15710460D03*
Y15969540D03*
X1046520Y15710460D03*
Y15969540D03*
X6803480Y4560460D03*
Y4819540D03*
Y23460460D03*
Y23719540D03*
X6900000Y4560460D03*
Y4819540D03*
Y23460460D03*
Y23719540D03*
X6996520Y4560460D03*
Y4819540D03*
Y23460460D03*
Y23719540D03*
G54D93*
X15320000Y8640000D03*
X15880000D03*
X16020000Y1590000D03*
Y5140000D03*
X16320000Y8640000D03*
X16580000Y1590000D03*
Y5140000D03*
X16880000Y8640000D03*
X17020000Y1590000D03*
Y5140000D03*
X17580000Y1590000D03*
Y5140000D03*
G54D48*
X3101000Y854500D03*
Y2154500D03*
Y3454500D03*
Y4754500D03*
Y6054500D03*
Y7354500D03*
Y8654500D03*
Y9954500D03*
Y11254500D03*
Y12554500D03*
Y14254500D03*
Y15554500D03*
Y16854500D03*
Y18154500D03*
Y19454500D03*
Y20754500D03*
Y22054500D03*
Y23354500D03*
Y24654500D03*
Y25954500D03*
G54D84*
X13257500Y17585000D03*
Y17635000D03*
X13347500Y9480000D03*
Y9530000D03*
X13542500Y17635000D03*
Y17585000D03*
Y17685000D03*
X13632500Y9480000D03*
Y9580000D03*
Y9530000D03*
G54D39*
X1480760Y15580500D03*
X13065760Y27125500D03*
X16430760Y17780500D03*
X17230760Y16630500D03*
G54D75*
X8352500Y23919000D03*
X8355000Y24181000D03*
X8450000Y23919000D03*
Y24181000D03*
X8545000Y23919000D03*
Y24181000D03*
G54D57*
X5959500Y5109240D03*
Y24009240D03*
X6213500Y4570760D03*
X6086500D03*
Y5109240D03*
X6213500D03*
Y23470760D03*
X6086500D03*
Y24009240D03*
X6213500D03*
X6340500Y4570760D03*
X6343040Y5109240D03*
X6340500Y23470760D03*
X6343040Y24009240D03*
X9450000Y5590000D03*
X10950000Y21690000D03*
G54D66*
X7200000Y7190000D03*
Y7290000D03*
Y7390000D03*
Y7490000D03*
Y7590000D03*
Y7690000D03*
Y7790000D03*
Y7890000D03*
Y7990000D03*
Y8090000D03*
Y8190000D03*
Y8290000D03*
Y8390000D03*
Y8490000D03*
Y8590000D03*
Y8690000D03*
Y8790000D03*
Y8890000D03*
Y8990000D03*
Y9090000D03*
Y9190000D03*
Y9290000D03*
Y9390000D03*
Y9490000D03*
Y9590000D03*
Y9690000D03*
Y9790000D03*
Y9890000D03*
Y9990000D03*
Y10090000D03*
Y10190000D03*
Y10290000D03*
Y10390000D03*
Y10490000D03*
Y10590000D03*
Y10690000D03*
Y10790000D03*
Y10890000D03*
Y10990000D03*
Y11090000D03*
Y11190000D03*
Y11290000D03*
Y11390000D03*
Y11490000D03*
Y11590000D03*
Y16190000D03*
Y16290000D03*
Y16490000D03*
Y16390000D03*
Y16590000D03*
Y16690000D03*
Y16890000D03*
Y16790000D03*
Y16990000D03*
Y17090000D03*
Y17190000D03*
Y17390000D03*
Y17290000D03*
Y17490000D03*
Y17590000D03*
Y17790000D03*
Y17690000D03*
Y17890000D03*
Y17990000D03*
Y18090000D03*
Y18290000D03*
Y18190000D03*
Y18390000D03*
Y18490000D03*
Y18690000D03*
Y18590000D03*
Y18790000D03*
Y18890000D03*
Y19090000D03*
Y18990000D03*
Y19190000D03*
Y19290000D03*
Y19390000D03*
Y19590000D03*
Y19490000D03*
Y19690000D03*
Y19790000D03*
Y19990000D03*
Y19890000D03*
Y20090000D03*
Y20190000D03*
Y20290000D03*
Y20490000D03*
Y20390000D03*
Y20590000D03*
X7300000Y7090000D03*
Y7190000D03*
Y7290000D03*
Y7390000D03*
Y7490000D03*
Y7590000D03*
Y7690000D03*
Y7790000D03*
Y7890000D03*
Y7990000D03*
Y8090000D03*
Y8190000D03*
Y8290000D03*
Y8390000D03*
Y8490000D03*
Y8590000D03*
Y8690000D03*
Y8790000D03*
Y8890000D03*
Y8990000D03*
Y9090000D03*
Y9190000D03*
Y9290000D03*
Y9390000D03*
Y9490000D03*
Y9590000D03*
Y9690000D03*
Y9790000D03*
Y9890000D03*
Y9990000D03*
Y10090000D03*
Y10190000D03*
Y10290000D03*
Y10390000D03*
Y10490000D03*
Y10590000D03*
Y10690000D03*
Y10790000D03*
Y10890000D03*
Y10990000D03*
Y11090000D03*
Y11190000D03*
Y11290000D03*
Y11390000D03*
Y11490000D03*
Y11590000D03*
Y11690000D03*
Y16090000D03*
Y16190000D03*
Y16290000D03*
Y16490000D03*
Y16390000D03*
Y16590000D03*
Y16690000D03*
Y16890000D03*
Y16790000D03*
Y16990000D03*
Y17090000D03*
Y17190000D03*
Y17390000D03*
Y17290000D03*
Y17490000D03*
Y17590000D03*
Y17790000D03*
Y17690000D03*
Y17890000D03*
Y17990000D03*
Y18090000D03*
Y18290000D03*
Y18190000D03*
Y18390000D03*
Y18490000D03*
Y18690000D03*
Y18590000D03*
Y18790000D03*
Y18890000D03*
Y19090000D03*
Y18990000D03*
Y19190000D03*
Y19290000D03*
Y19390000D03*
Y19590000D03*
Y19490000D03*
Y19690000D03*
Y19790000D03*
Y19990000D03*
Y19890000D03*
Y20090000D03*
Y20190000D03*
Y20290000D03*
Y20490000D03*
Y20390000D03*
Y20590000D03*
Y20690000D03*
X7500000Y6890000D03*
X7400000Y6990000D03*
X7500000D03*
X7400000Y7090000D03*
Y7190000D03*
X7500000Y7090000D03*
Y7190000D03*
X7400000Y7290000D03*
X7500000D03*
X7400000Y7390000D03*
X7500000D03*
X7400000Y7490000D03*
X7500000D03*
X7400000Y7590000D03*
Y7690000D03*
X7500000Y7590000D03*
Y7690000D03*
X7400000Y7790000D03*
X7500000D03*
X7400000Y7890000D03*
X7500000D03*
X7400000Y7990000D03*
Y8090000D03*
X7500000Y7990000D03*
Y8090000D03*
X7400000Y8190000D03*
X7500000D03*
X7400000Y8290000D03*
X7500000D03*
X7400000Y8390000D03*
X7500000D03*
X7400000Y8490000D03*
Y8590000D03*
X7500000Y8490000D03*
Y8590000D03*
X7400000Y8690000D03*
X7500000D03*
X7400000Y8790000D03*
X7500000D03*
X7400000Y8890000D03*
Y8990000D03*
X7500000Y8890000D03*
Y8990000D03*
X7400000Y9090000D03*
X7500000D03*
X7400000Y9190000D03*
X7500000D03*
X7400000Y9290000D03*
Y9390000D03*
X7500000Y9290000D03*
Y9390000D03*
X7400000Y9490000D03*
X7500000D03*
X7400000Y9590000D03*
X7500000D03*
X7400000Y9690000D03*
X7500000D03*
X7400000Y9790000D03*
Y9890000D03*
X7500000Y9790000D03*
Y9890000D03*
X7400000Y9990000D03*
X7500000D03*
X7400000Y10090000D03*
X7500000D03*
X7400000Y10190000D03*
Y10290000D03*
X7500000Y10190000D03*
Y10290000D03*
X7400000Y10390000D03*
X7500000D03*
X7400000Y10490000D03*
X7500000D03*
X7400000Y10590000D03*
X7500000D03*
X7400000Y10690000D03*
Y10790000D03*
X7500000Y10690000D03*
Y10790000D03*
X7400000Y10890000D03*
X7500000D03*
X7400000Y10990000D03*
X7500000D03*
X7400000Y11090000D03*
Y11190000D03*
X7500000Y11090000D03*
Y11190000D03*
X7400000Y11290000D03*
X7500000D03*
X7400000Y11390000D03*
X7500000D03*
X7400000Y11490000D03*
Y11590000D03*
X7500000Y11490000D03*
Y11590000D03*
X7400000Y11690000D03*
X7500000D03*
X7400000Y11790000D03*
X7500000D03*
Y11890000D03*
Y15990000D03*
Y15890000D03*
X7400000Y15990000D03*
X7500000Y16090000D03*
X7400000D03*
X7500000Y16190000D03*
X7400000D03*
X7500000Y16290000D03*
X7400000D03*
X7500000Y16490000D03*
Y16390000D03*
X7400000Y16490000D03*
Y16390000D03*
X7500000Y16590000D03*
X7400000D03*
X7500000Y16690000D03*
X7400000D03*
X7500000Y16890000D03*
Y16790000D03*
X7400000Y16890000D03*
Y16790000D03*
X7500000Y16990000D03*
X7400000D03*
X7500000Y17090000D03*
X7400000D03*
X7500000Y17190000D03*
X7400000D03*
X7500000Y17390000D03*
Y17290000D03*
X7400000Y17390000D03*
Y17290000D03*
X7500000Y17490000D03*
X7400000D03*
X7500000Y17590000D03*
X7400000D03*
X7500000Y17790000D03*
Y17690000D03*
X7400000Y17790000D03*
Y17690000D03*
X7500000Y17890000D03*
X7400000D03*
X7500000Y17990000D03*
X7400000D03*
X7500000Y18090000D03*
X7400000D03*
X7500000Y18290000D03*
Y18190000D03*
X7400000Y18290000D03*
Y18190000D03*
X7500000Y18390000D03*
X7400000D03*
X7500000Y18490000D03*
X7400000D03*
X7500000Y18690000D03*
Y18590000D03*
X7400000Y18690000D03*
Y18590000D03*
X7500000Y18790000D03*
X7400000D03*
X7500000Y18890000D03*
X7400000D03*
X7500000Y19090000D03*
Y18990000D03*
X7400000Y19090000D03*
Y18990000D03*
X7500000Y19190000D03*
X7400000D03*
X7500000Y19290000D03*
X7400000D03*
X7500000Y19390000D03*
X7400000D03*
X7500000Y19590000D03*
Y19490000D03*
X7400000Y19590000D03*
Y19490000D03*
X7500000Y19690000D03*
X7400000D03*
X7500000Y19790000D03*
X7400000D03*
X7500000Y19990000D03*
Y19890000D03*
X7400000Y19990000D03*
Y19890000D03*
X7500000Y20090000D03*
X7400000D03*
X7500000Y20190000D03*
X7400000D03*
X7500000Y20290000D03*
X7400000D03*
X7500000Y20490000D03*
Y20390000D03*
X7400000Y20490000D03*
Y20390000D03*
X7500000Y20590000D03*
X7400000D03*
X7500000Y20690000D03*
X7400000D03*
X7500000Y20890000D03*
Y20790000D03*
X7400000D03*
X7600000Y6890000D03*
Y6990000D03*
Y7090000D03*
Y7190000D03*
Y7290000D03*
Y7390000D03*
Y7490000D03*
Y7590000D03*
Y7690000D03*
Y7790000D03*
Y7890000D03*
Y7990000D03*
Y8090000D03*
Y8190000D03*
Y8290000D03*
Y8390000D03*
Y8490000D03*
Y8590000D03*
Y8690000D03*
Y8790000D03*
Y8890000D03*
Y8990000D03*
Y9090000D03*
Y9190000D03*
Y9290000D03*
Y9390000D03*
Y9490000D03*
Y9590000D03*
Y9690000D03*
Y9790000D03*
Y9890000D03*
Y9990000D03*
Y10090000D03*
Y10190000D03*
Y10290000D03*
Y10390000D03*
Y10490000D03*
Y10590000D03*
Y10690000D03*
Y10790000D03*
Y10890000D03*
Y10990000D03*
Y11090000D03*
Y11190000D03*
Y11290000D03*
Y11390000D03*
Y11490000D03*
Y11590000D03*
Y11690000D03*
Y11790000D03*
Y11890000D03*
Y15990000D03*
Y15890000D03*
Y16090000D03*
Y16190000D03*
Y16290000D03*
Y16490000D03*
Y16390000D03*
Y16590000D03*
Y16690000D03*
Y16890000D03*
Y16790000D03*
Y16990000D03*
Y17090000D03*
Y17190000D03*
Y17390000D03*
Y17290000D03*
Y17490000D03*
Y17590000D03*
Y17790000D03*
Y17690000D03*
Y17890000D03*
Y17990000D03*
Y18090000D03*
Y18290000D03*
Y18190000D03*
Y18390000D03*
Y18490000D03*
Y18690000D03*
Y18590000D03*
Y18790000D03*
Y18890000D03*
Y19090000D03*
Y18990000D03*
Y19190000D03*
Y19290000D03*
Y19390000D03*
Y19590000D03*
Y19490000D03*
Y19690000D03*
Y19790000D03*
Y19990000D03*
Y19890000D03*
Y20090000D03*
Y20190000D03*
Y20290000D03*
Y20490000D03*
Y20390000D03*
Y20590000D03*
Y20690000D03*
Y20890000D03*
Y20790000D03*
X7700000Y6890000D03*
Y6990000D03*
Y7090000D03*
Y7190000D03*
Y7290000D03*
Y7390000D03*
Y7490000D03*
Y7590000D03*
Y7690000D03*
Y7790000D03*
Y7890000D03*
Y7990000D03*
Y8090000D03*
Y8190000D03*
Y8290000D03*
Y8390000D03*
Y8490000D03*
Y8590000D03*
Y8690000D03*
Y8790000D03*
Y8890000D03*
Y8990000D03*
Y9090000D03*
Y9190000D03*
Y9290000D03*
Y9390000D03*
Y9490000D03*
Y9590000D03*
Y9690000D03*
Y9790000D03*
Y9890000D03*
Y9990000D03*
Y10090000D03*
Y10190000D03*
Y10290000D03*
Y10390000D03*
Y10490000D03*
Y10590000D03*
Y10690000D03*
Y10790000D03*
Y10890000D03*
Y10990000D03*
Y11090000D03*
Y11190000D03*
Y11290000D03*
Y11390000D03*
Y11490000D03*
Y11590000D03*
Y11690000D03*
Y11790000D03*
Y11890000D03*
Y15990000D03*
Y15890000D03*
Y16090000D03*
Y16190000D03*
Y16290000D03*
Y16490000D03*
Y16390000D03*
Y16590000D03*
Y16690000D03*
Y16890000D03*
Y16790000D03*
Y16990000D03*
Y17090000D03*
Y17190000D03*
Y17390000D03*
Y17290000D03*
Y17490000D03*
Y17590000D03*
Y17790000D03*
Y17690000D03*
Y17890000D03*
Y17990000D03*
Y18090000D03*
Y18290000D03*
Y18190000D03*
Y18390000D03*
Y18490000D03*
Y18690000D03*
Y18590000D03*
Y18790000D03*
Y18890000D03*
Y19090000D03*
Y18990000D03*
Y19190000D03*
Y19290000D03*
Y19390000D03*
Y19590000D03*
Y19490000D03*
Y19690000D03*
Y19790000D03*
Y19990000D03*
Y19890000D03*
Y20090000D03*
Y20190000D03*
Y20290000D03*
Y20490000D03*
Y20390000D03*
Y20590000D03*
Y20690000D03*
Y20890000D03*
Y20790000D03*
X7800000Y6890000D03*
Y6990000D03*
Y7090000D03*
Y7190000D03*
Y7290000D03*
Y7390000D03*
Y7490000D03*
Y7590000D03*
Y7690000D03*
Y7790000D03*
Y7890000D03*
Y7990000D03*
Y8090000D03*
Y8190000D03*
Y8290000D03*
Y8390000D03*
Y8490000D03*
Y8590000D03*
Y8690000D03*
Y8790000D03*
Y8890000D03*
Y8990000D03*
Y9090000D03*
Y9190000D03*
Y9290000D03*
Y9390000D03*
Y9490000D03*
Y9590000D03*
Y9690000D03*
Y9790000D03*
Y9890000D03*
Y9990000D03*
Y10090000D03*
Y10190000D03*
Y10290000D03*
Y10390000D03*
Y10490000D03*
Y10590000D03*
Y10690000D03*
Y10790000D03*
Y10890000D03*
Y10990000D03*
Y11090000D03*
Y11190000D03*
Y11290000D03*
Y11390000D03*
Y11490000D03*
Y11590000D03*
Y11690000D03*
Y11790000D03*
Y11890000D03*
Y15990000D03*
Y15890000D03*
Y16090000D03*
Y16190000D03*
Y16290000D03*
Y16490000D03*
Y16390000D03*
Y16590000D03*
Y16690000D03*
Y16890000D03*
Y16790000D03*
Y16990000D03*
Y17090000D03*
Y17190000D03*
Y17390000D03*
Y17290000D03*
Y17490000D03*
Y17590000D03*
Y17790000D03*
Y17690000D03*
Y17890000D03*
Y17990000D03*
Y18090000D03*
Y18290000D03*
Y18190000D03*
Y18390000D03*
Y18490000D03*
Y18690000D03*
Y18590000D03*
Y18790000D03*
Y18890000D03*
Y19090000D03*
Y18990000D03*
Y19190000D03*
Y19290000D03*
Y19390000D03*
Y19590000D03*
Y19490000D03*
Y19690000D03*
Y19790000D03*
Y19990000D03*
Y19890000D03*
Y20090000D03*
Y20190000D03*
Y20290000D03*
Y20490000D03*
Y20390000D03*
Y20590000D03*
Y20690000D03*
Y20890000D03*
Y20790000D03*
X7900000Y6890000D03*
X8000000D03*
X7900000Y6990000D03*
X8000000D03*
X7900000Y7090000D03*
Y7190000D03*
X8000000Y7090000D03*
Y7190000D03*
X7900000Y7290000D03*
X8000000D03*
X7900000Y7390000D03*
X8000000D03*
X7900000Y7490000D03*
X8000000D03*
X7900000Y7590000D03*
Y7690000D03*
X8000000Y7590000D03*
Y7690000D03*
X7900000Y7790000D03*
X8000000D03*
X7900000Y7890000D03*
X8000000D03*
X7900000Y7990000D03*
Y8090000D03*
X8000000Y7990000D03*
Y8090000D03*
X7900000Y8190000D03*
X8000000D03*
X7900000Y8290000D03*
X8000000D03*
X7900000Y8390000D03*
X8000000D03*
X7900000Y8490000D03*
Y8590000D03*
X8000000Y8490000D03*
Y8590000D03*
X7900000Y8690000D03*
X8000000D03*
X7900000Y8790000D03*
X8000000D03*
X7900000Y8890000D03*
Y8990000D03*
X8000000Y8890000D03*
Y8990000D03*
X7900000Y9090000D03*
X8000000D03*
X7900000Y9190000D03*
X8000000D03*
X7900000Y9290000D03*
Y9390000D03*
X8000000Y9290000D03*
Y9390000D03*
X7900000Y9490000D03*
X8000000D03*
X7900000Y9590000D03*
X8000000D03*
X7900000Y9690000D03*
X8000000D03*
X7900000Y9790000D03*
Y9890000D03*
X8000000Y9790000D03*
Y9890000D03*
X7900000Y9990000D03*
X8000000D03*
X7900000Y10090000D03*
X8000000D03*
X7900000Y10190000D03*
Y10290000D03*
X8000000Y10190000D03*
Y10290000D03*
X7900000Y10390000D03*
X8000000D03*
X7900000Y10490000D03*
X8000000D03*
X7900000Y10590000D03*
X8000000D03*
X7900000Y10690000D03*
Y10790000D03*
X8000000Y10690000D03*
Y10790000D03*
X7900000Y10890000D03*
X8000000D03*
X7900000Y10990000D03*
X8000000D03*
X7900000Y11090000D03*
Y11190000D03*
X8000000Y11090000D03*
Y11190000D03*
X7900000Y11290000D03*
X8000000D03*
X7900000Y11390000D03*
X8000000D03*
X7900000Y11490000D03*
Y11590000D03*
X8000000Y11490000D03*
Y11590000D03*
X7900000Y11690000D03*
X8000000D03*
X7900000Y11790000D03*
X8000000D03*
X7900000Y11890000D03*
X8000000D03*
Y15990000D03*
Y15890000D03*
X7900000Y15990000D03*
Y15890000D03*
X8000000Y16090000D03*
X7900000D03*
X8000000Y16190000D03*
X7900000D03*
X8000000Y16290000D03*
X7900000D03*
X8000000Y16490000D03*
Y16390000D03*
X7900000Y16490000D03*
Y16390000D03*
X8000000Y16590000D03*
X7900000D03*
X8000000Y16690000D03*
X7900000D03*
X8000000Y16890000D03*
Y16790000D03*
X7900000Y16890000D03*
Y16790000D03*
X8000000Y16990000D03*
X7900000D03*
X8000000Y17090000D03*
X7900000D03*
X8000000Y17190000D03*
X7900000D03*
X8000000Y17390000D03*
Y17290000D03*
X7900000Y17390000D03*
Y17290000D03*
X8000000Y17490000D03*
X7900000D03*
X8000000Y17590000D03*
X7900000D03*
X8000000Y17790000D03*
Y17690000D03*
X7900000Y17790000D03*
Y17690000D03*
X8000000Y17890000D03*
X7900000D03*
X8000000Y17990000D03*
X7900000D03*
X8000000Y18090000D03*
X7900000D03*
X8000000Y18290000D03*
Y18190000D03*
X7900000Y18290000D03*
Y18190000D03*
X8000000Y18390000D03*
X7900000D03*
X8000000Y18490000D03*
X7900000D03*
X8000000Y18690000D03*
Y18590000D03*
X7900000Y18690000D03*
Y18590000D03*
X8000000Y18790000D03*
X7900000D03*
X8000000Y18890000D03*
X7900000D03*
X8000000Y19090000D03*
Y18990000D03*
X7900000Y19090000D03*
Y18990000D03*
X8000000Y19190000D03*
X7900000D03*
X8000000Y19290000D03*
X7900000D03*
X8000000Y19390000D03*
X7900000D03*
X8000000Y19590000D03*
Y19490000D03*
X7900000Y19590000D03*
Y19490000D03*
X8000000Y19690000D03*
X7900000D03*
X8000000Y19790000D03*
X7900000D03*
X8000000Y19990000D03*
Y19890000D03*
X7900000Y19990000D03*
Y19890000D03*
X8000000Y20090000D03*
X7900000D03*
X8000000Y20190000D03*
X7900000D03*
X8000000Y20290000D03*
X7900000D03*
X8000000Y20490000D03*
Y20390000D03*
X7900000Y20490000D03*
Y20390000D03*
X8000000Y20590000D03*
X7900000D03*
X8000000Y20690000D03*
X7900000D03*
X8000000Y20890000D03*
Y20790000D03*
X7900000Y20890000D03*
Y20790000D03*
X8100000Y6890000D03*
Y6990000D03*
Y7090000D03*
Y7190000D03*
Y7290000D03*
Y7390000D03*
Y7490000D03*
Y7590000D03*
Y7690000D03*
Y7790000D03*
Y7890000D03*
Y7990000D03*
Y8090000D03*
Y8190000D03*
Y8290000D03*
Y8390000D03*
Y8490000D03*
Y8590000D03*
Y8690000D03*
Y8790000D03*
Y8890000D03*
Y8990000D03*
Y9090000D03*
Y9190000D03*
Y9290000D03*
Y9390000D03*
Y9490000D03*
Y9590000D03*
Y9690000D03*
Y9790000D03*
Y9890000D03*
Y9990000D03*
Y10090000D03*
Y10190000D03*
Y10290000D03*
Y10390000D03*
Y10490000D03*
Y10590000D03*
Y10690000D03*
Y10790000D03*
Y10890000D03*
Y10990000D03*
Y11090000D03*
Y11190000D03*
Y11290000D03*
Y11390000D03*
Y11490000D03*
Y11590000D03*
Y11690000D03*
Y11790000D03*
Y11890000D03*
Y15990000D03*
Y15890000D03*
Y16090000D03*
Y16190000D03*
Y16290000D03*
Y16490000D03*
Y16390000D03*
Y16590000D03*
Y16690000D03*
Y16890000D03*
Y16790000D03*
Y16990000D03*
Y17090000D03*
Y17190000D03*
Y17390000D03*
Y17290000D03*
Y17490000D03*
Y17590000D03*
Y17790000D03*
Y17690000D03*
Y17890000D03*
Y17990000D03*
Y18090000D03*
Y18290000D03*
Y18190000D03*
Y18390000D03*
Y18490000D03*
Y18690000D03*
Y18590000D03*
Y18790000D03*
Y18890000D03*
Y19090000D03*
Y18990000D03*
Y19190000D03*
Y19290000D03*
Y19390000D03*
Y19590000D03*
Y19490000D03*
Y19690000D03*
Y19790000D03*
Y19990000D03*
Y19890000D03*
Y20090000D03*
Y20190000D03*
Y20290000D03*
Y20490000D03*
Y20390000D03*
Y20590000D03*
Y20690000D03*
Y20890000D03*
Y20790000D03*
X8200000Y6890000D03*
Y6990000D03*
Y7090000D03*
Y7190000D03*
Y7290000D03*
Y7390000D03*
Y7490000D03*
Y7590000D03*
Y7690000D03*
Y7790000D03*
Y7890000D03*
Y7990000D03*
Y8090000D03*
Y8190000D03*
Y8290000D03*
Y8390000D03*
Y8490000D03*
Y8590000D03*
Y8690000D03*
Y8790000D03*
Y8890000D03*
Y8990000D03*
Y9090000D03*
Y9190000D03*
Y9290000D03*
Y9390000D03*
Y9490000D03*
Y9590000D03*
Y9690000D03*
Y9790000D03*
Y9890000D03*
Y9990000D03*
Y10090000D03*
Y10190000D03*
Y10290000D03*
Y10390000D03*
Y10490000D03*
Y10590000D03*
Y10690000D03*
Y10790000D03*
Y10890000D03*
Y10990000D03*
Y11090000D03*
Y11190000D03*
Y11290000D03*
Y11390000D03*
Y11490000D03*
Y11590000D03*
Y11690000D03*
Y11790000D03*
Y11890000D03*
Y15990000D03*
Y15890000D03*
Y16090000D03*
Y16190000D03*
Y16290000D03*
Y16490000D03*
Y16390000D03*
Y16590000D03*
Y16690000D03*
Y16890000D03*
Y16790000D03*
Y16990000D03*
Y17090000D03*
Y17190000D03*
Y17390000D03*
Y17290000D03*
Y17490000D03*
Y17590000D03*
Y17790000D03*
Y17690000D03*
Y17890000D03*
Y17990000D03*
Y18090000D03*
Y18290000D03*
Y18190000D03*
Y18390000D03*
Y18490000D03*
Y18690000D03*
Y18590000D03*
Y18790000D03*
Y18890000D03*
Y19090000D03*
Y18990000D03*
Y19190000D03*
Y19290000D03*
Y19390000D03*
Y19590000D03*
Y19490000D03*
Y19690000D03*
Y19790000D03*
Y19990000D03*
Y19890000D03*
Y20090000D03*
Y20190000D03*
Y20290000D03*
Y20490000D03*
Y20390000D03*
Y20590000D03*
Y20690000D03*
Y20890000D03*
Y20790000D03*
X8300000Y6890000D03*
X8400000D03*
X8300000Y6990000D03*
X8400000D03*
X8300000Y7090000D03*
Y7190000D03*
X8400000Y7090000D03*
Y7190000D03*
X8300000Y7290000D03*
X8400000D03*
X8300000Y7390000D03*
X8400000D03*
X8300000Y7490000D03*
X8400000D03*
X8300000Y7590000D03*
Y7690000D03*
X8400000Y7590000D03*
Y7690000D03*
X8300000Y7790000D03*
X8400000D03*
X8300000Y7890000D03*
X8400000D03*
X8300000Y7990000D03*
Y8090000D03*
X8400000Y7990000D03*
Y8090000D03*
X8300000Y8190000D03*
X8400000D03*
X8300000Y8290000D03*
X8400000D03*
X8300000Y8390000D03*
X8400000D03*
X8300000Y8490000D03*
Y8590000D03*
X8400000Y8490000D03*
Y8590000D03*
X8300000Y8690000D03*
X8400000D03*
X8300000Y8790000D03*
X8400000D03*
X8300000Y8890000D03*
Y8990000D03*
X8400000Y8890000D03*
Y8990000D03*
X8300000Y9090000D03*
X8400000D03*
X8300000Y9190000D03*
X8400000D03*
X8300000Y9290000D03*
Y9390000D03*
X8400000Y9290000D03*
Y9390000D03*
X8300000Y9490000D03*
X8400000D03*
X8300000Y9590000D03*
X8400000D03*
X8300000Y9690000D03*
X8400000D03*
X8300000Y9790000D03*
Y9890000D03*
X8400000Y9790000D03*
Y9890000D03*
X8300000Y9990000D03*
X8400000D03*
X8300000Y10090000D03*
X8400000D03*
X8300000Y10190000D03*
Y10290000D03*
X8400000Y10190000D03*
Y10290000D03*
X8300000Y10390000D03*
X8400000D03*
X8300000Y10490000D03*
X8400000D03*
X8300000Y10590000D03*
X8400000D03*
X8300000Y10690000D03*
Y10790000D03*
X8400000Y10690000D03*
Y10790000D03*
X8300000Y10890000D03*
X8400000D03*
X8300000Y10990000D03*
X8400000D03*
X8300000Y11090000D03*
Y11190000D03*
X8400000Y11090000D03*
Y11190000D03*
X8300000Y11290000D03*
X8400000D03*
X8300000Y11390000D03*
X8400000D03*
X8300000Y11490000D03*
Y11590000D03*
X8400000Y11490000D03*
Y11590000D03*
X8300000Y11690000D03*
X8400000D03*
X8300000Y11790000D03*
X8400000D03*
X8300000Y11890000D03*
X8400000D03*
Y15990000D03*
Y15890000D03*
X8300000Y15990000D03*
Y15890000D03*
X8400000Y16090000D03*
X8300000D03*
X8400000Y16190000D03*
X8300000D03*
X8400000Y16290000D03*
X8300000D03*
X8400000Y16490000D03*
Y16390000D03*
X8300000Y16490000D03*
Y16390000D03*
X8400000Y16590000D03*
X8300000D03*
X8400000Y16690000D03*
X8300000D03*
X8400000Y16890000D03*
Y16790000D03*
X8300000Y16890000D03*
Y16790000D03*
X8400000Y16990000D03*
X8300000D03*
X8400000Y17090000D03*
X8300000D03*
X8400000Y17190000D03*
X8300000D03*
X8400000Y17390000D03*
Y17290000D03*
X8300000Y17390000D03*
Y17290000D03*
X8400000Y17490000D03*
X8300000D03*
X8400000Y17590000D03*
X8300000D03*
X8400000Y17790000D03*
Y17690000D03*
X8300000Y17790000D03*
Y17690000D03*
X8400000Y17890000D03*
X8300000D03*
X8400000Y17990000D03*
X8300000D03*
X8400000Y18090000D03*
X8300000D03*
X8400000Y18290000D03*
Y18190000D03*
X8300000Y18290000D03*
Y18190000D03*
X8400000Y18390000D03*
X8300000D03*
X8400000Y18490000D03*
X8300000D03*
X8400000Y18690000D03*
Y18590000D03*
X8300000Y18690000D03*
Y18590000D03*
X8400000Y18790000D03*
X8300000D03*
X8400000Y18890000D03*
X8300000D03*
X8400000Y19090000D03*
Y18990000D03*
X8300000Y19090000D03*
Y18990000D03*
X8400000Y19190000D03*
X8300000D03*
X8400000Y19290000D03*
X8300000D03*
X8400000Y19390000D03*
X8300000D03*
X8400000Y19590000D03*
Y19490000D03*
X8300000Y19590000D03*
Y19490000D03*
X8400000Y19690000D03*
X8300000D03*
X8400000Y19790000D03*
X8300000D03*
X8400000Y19990000D03*
Y19890000D03*
X8300000Y19990000D03*
Y19890000D03*
X8400000Y20090000D03*
X8300000D03*
X8400000Y20190000D03*
X8300000D03*
X8400000Y20290000D03*
X8300000D03*
X8400000Y20490000D03*
Y20390000D03*
X8300000Y20490000D03*
Y20390000D03*
X8400000Y20590000D03*
X8300000D03*
X8400000Y20690000D03*
X8300000D03*
X8400000Y20890000D03*
Y20790000D03*
X8300000Y20890000D03*
Y20790000D03*
X8500000Y6890000D03*
Y6990000D03*
Y7090000D03*
Y7190000D03*
Y7290000D03*
Y7390000D03*
Y7490000D03*
Y7590000D03*
Y7690000D03*
Y7790000D03*
Y7890000D03*
Y7990000D03*
Y8090000D03*
Y8190000D03*
Y8290000D03*
Y8390000D03*
Y8490000D03*
Y8590000D03*
Y8690000D03*
Y8790000D03*
Y8890000D03*
Y8990000D03*
Y9090000D03*
Y9190000D03*
Y9290000D03*
Y9390000D03*
Y9490000D03*
Y9590000D03*
Y9690000D03*
Y9790000D03*
Y9890000D03*
Y9990000D03*
Y10090000D03*
Y10190000D03*
Y10290000D03*
Y10390000D03*
Y10490000D03*
Y10590000D03*
Y10690000D03*
Y10790000D03*
Y10890000D03*
Y10990000D03*
Y11090000D03*
Y11190000D03*
Y11290000D03*
Y11390000D03*
Y11490000D03*
Y11590000D03*
Y11690000D03*
Y11790000D03*
Y11890000D03*
Y15990000D03*
Y15890000D03*
Y16090000D03*
Y16190000D03*
Y16290000D03*
Y16490000D03*
Y16390000D03*
Y16590000D03*
Y16690000D03*
Y16890000D03*
Y16790000D03*
Y16990000D03*
Y17090000D03*
Y17190000D03*
Y17390000D03*
Y17290000D03*
Y17490000D03*
Y17590000D03*
Y17790000D03*
Y17690000D03*
Y17890000D03*
Y17990000D03*
Y18090000D03*
Y18290000D03*
Y18190000D03*
Y18390000D03*
Y18490000D03*
Y18690000D03*
Y18590000D03*
Y18790000D03*
Y18890000D03*
Y19090000D03*
Y18990000D03*
Y19190000D03*
Y19290000D03*
Y19390000D03*
Y19590000D03*
Y19490000D03*
Y19690000D03*
Y19790000D03*
Y19990000D03*
Y19890000D03*
Y20090000D03*
Y20190000D03*
Y20290000D03*
Y20490000D03*
Y20390000D03*
Y20590000D03*
Y20690000D03*
Y20890000D03*
Y20790000D03*
X8600000Y6890000D03*
Y6990000D03*
Y7090000D03*
Y7190000D03*
Y7290000D03*
Y7390000D03*
Y7490000D03*
Y7590000D03*
Y7690000D03*
Y7790000D03*
Y7890000D03*
Y7990000D03*
Y8090000D03*
Y8190000D03*
Y8290000D03*
Y8390000D03*
Y8490000D03*
Y8590000D03*
Y8690000D03*
Y8790000D03*
Y8890000D03*
Y8990000D03*
Y9090000D03*
Y9190000D03*
Y9290000D03*
Y9390000D03*
Y9490000D03*
Y9590000D03*
Y9690000D03*
Y9790000D03*
Y9890000D03*
Y9990000D03*
Y10090000D03*
Y10190000D03*
Y10290000D03*
Y10390000D03*
Y10490000D03*
Y10590000D03*
Y10690000D03*
Y10790000D03*
Y10890000D03*
Y10990000D03*
Y11090000D03*
Y11190000D03*
Y11290000D03*
Y11390000D03*
Y11490000D03*
Y11590000D03*
Y11690000D03*
Y11790000D03*
Y11890000D03*
Y15990000D03*
Y15890000D03*
Y16090000D03*
Y16190000D03*
Y16290000D03*
Y16490000D03*
Y16390000D03*
Y16590000D03*
Y16690000D03*
Y16890000D03*
Y16790000D03*
Y16990000D03*
Y17090000D03*
Y17190000D03*
Y17390000D03*
Y17290000D03*
Y17490000D03*
Y17590000D03*
Y17790000D03*
Y17690000D03*
Y17890000D03*
Y17990000D03*
Y18090000D03*
Y18290000D03*
Y18190000D03*
Y18390000D03*
Y18490000D03*
Y18690000D03*
Y18590000D03*
Y18790000D03*
Y18890000D03*
Y19090000D03*
Y18990000D03*
Y19190000D03*
Y19290000D03*
Y19390000D03*
Y19590000D03*
Y19490000D03*
Y19690000D03*
Y19790000D03*
Y19990000D03*
Y19890000D03*
Y20090000D03*
Y20190000D03*
Y20290000D03*
Y20490000D03*
Y20390000D03*
Y20590000D03*
Y20690000D03*
Y20890000D03*
Y20790000D03*
X8700000Y6890000D03*
Y6990000D03*
Y7090000D03*
Y7190000D03*
Y7290000D03*
Y7390000D03*
Y7490000D03*
Y7590000D03*
Y7690000D03*
Y7790000D03*
Y7890000D03*
Y7990000D03*
Y8090000D03*
Y8190000D03*
Y8290000D03*
Y8390000D03*
Y8490000D03*
Y8590000D03*
Y8690000D03*
Y8790000D03*
Y8890000D03*
Y8990000D03*
Y9090000D03*
Y9190000D03*
Y9290000D03*
Y9390000D03*
Y9490000D03*
Y9590000D03*
Y9690000D03*
Y9790000D03*
Y9890000D03*
Y9990000D03*
Y10090000D03*
Y10190000D03*
Y10290000D03*
Y10390000D03*
Y10490000D03*
Y10590000D03*
Y10690000D03*
Y10790000D03*
Y10890000D03*
Y10990000D03*
Y11090000D03*
Y11190000D03*
Y11290000D03*
Y11390000D03*
Y11490000D03*
Y11590000D03*
Y11690000D03*
Y11790000D03*
Y11890000D03*
Y15990000D03*
Y15890000D03*
Y16090000D03*
Y16190000D03*
Y16290000D03*
Y16490000D03*
Y16390000D03*
Y16590000D03*
Y16690000D03*
Y16890000D03*
Y16790000D03*
Y16990000D03*
Y17090000D03*
Y17190000D03*
Y17390000D03*
Y17290000D03*
Y17490000D03*
Y17590000D03*
Y17790000D03*
Y17690000D03*
Y17890000D03*
Y17990000D03*
Y18090000D03*
Y18290000D03*
Y18190000D03*
Y18390000D03*
Y18490000D03*
Y18690000D03*
Y18590000D03*
Y18790000D03*
Y18890000D03*
Y19090000D03*
Y18990000D03*
Y19190000D03*
Y19290000D03*
Y19390000D03*
Y19590000D03*
Y19490000D03*
Y19690000D03*
Y19790000D03*
Y19990000D03*
Y19890000D03*
Y20090000D03*
Y20190000D03*
Y20290000D03*
Y20490000D03*
Y20390000D03*
Y20590000D03*
Y20690000D03*
Y20890000D03*
Y20790000D03*
X8800000Y6890000D03*
X8900000D03*
X8800000Y6990000D03*
X8900000D03*
X8800000Y7090000D03*
Y7190000D03*
X8900000Y7090000D03*
Y7190000D03*
X8800000Y7290000D03*
X8900000D03*
X8800000Y7390000D03*
X8900000D03*
X8800000Y7490000D03*
X8900000D03*
X8800000Y7590000D03*
Y7690000D03*
X8900000Y7590000D03*
Y7690000D03*
X8800000Y7790000D03*
X8900000D03*
X8800000Y7890000D03*
X8900000D03*
X8800000Y7990000D03*
Y8090000D03*
X8900000Y7990000D03*
Y8090000D03*
X8800000Y8190000D03*
X8900000D03*
X8800000Y8290000D03*
X8900000D03*
X8800000Y8390000D03*
X8900000D03*
X8800000Y8490000D03*
Y8590000D03*
X8900000Y8490000D03*
Y8590000D03*
X8800000Y8690000D03*
X8900000D03*
X8800000Y8790000D03*
X8900000D03*
X8800000Y8890000D03*
Y8990000D03*
X8900000Y8890000D03*
Y8990000D03*
X8800000Y9090000D03*
X8900000D03*
X8800000Y9190000D03*
X8900000D03*
X8800000Y9290000D03*
Y9390000D03*
X8900000Y9290000D03*
Y9390000D03*
X8800000Y9490000D03*
X8900000D03*
X8800000Y9590000D03*
X8900000D03*
X8800000Y9690000D03*
X8900000D03*
X8800000Y9790000D03*
Y9890000D03*
X8900000Y9790000D03*
Y9890000D03*
X8800000Y9990000D03*
X8900000D03*
X8800000Y10090000D03*
X8900000D03*
X8800000Y10190000D03*
Y10290000D03*
X8900000Y10190000D03*
Y10290000D03*
X8800000Y10390000D03*
X8900000D03*
X8800000Y10490000D03*
X8900000D03*
X8800000Y10590000D03*
X8900000D03*
X8800000Y10690000D03*
Y10790000D03*
X8900000Y10690000D03*
Y10790000D03*
X8800000Y10890000D03*
X8900000D03*
X8800000Y10990000D03*
X8900000D03*
X8800000Y11090000D03*
Y11190000D03*
X8900000Y11090000D03*
Y11190000D03*
X8800000Y11290000D03*
X8900000D03*
X8800000Y11390000D03*
X8900000D03*
X8800000Y11490000D03*
Y11590000D03*
X8900000Y11490000D03*
Y11590000D03*
X8800000Y11690000D03*
X8900000D03*
X8800000Y11790000D03*
X8900000D03*
X8800000Y11890000D03*
X8900000D03*
Y15990000D03*
Y15890000D03*
X8800000Y15990000D03*
Y15890000D03*
X8900000Y16090000D03*
X8800000D03*
X8900000Y16190000D03*
X8800000D03*
X8900000Y16290000D03*
X8800000D03*
X8900000Y16490000D03*
Y16390000D03*
X8800000Y16490000D03*
Y16390000D03*
X8900000Y16590000D03*
X8800000D03*
X8900000Y16690000D03*
X8800000D03*
X8900000Y16890000D03*
Y16790000D03*
X8800000Y16890000D03*
Y16790000D03*
X8900000Y16990000D03*
X8800000D03*
X8900000Y17090000D03*
X8800000D03*
X8900000Y17190000D03*
X8800000D03*
X8900000Y17390000D03*
Y17290000D03*
X8800000Y17390000D03*
Y17290000D03*
X8900000Y17490000D03*
X8800000D03*
X8900000Y17590000D03*
X8800000D03*
X8900000Y17790000D03*
Y17690000D03*
X8800000Y17790000D03*
Y17690000D03*
X8900000Y17890000D03*
X8800000D03*
X8900000Y17990000D03*
X8800000D03*
X8900000Y18090000D03*
X8800000D03*
X8900000Y18290000D03*
Y18190000D03*
X8800000Y18290000D03*
Y18190000D03*
X8900000Y18390000D03*
X8800000D03*
X8900000Y18490000D03*
X8800000D03*
X8900000Y18690000D03*
Y18590000D03*
X8800000Y18690000D03*
Y18590000D03*
X8900000Y18790000D03*
X8800000D03*
X8900000Y18890000D03*
X8800000D03*
X8900000Y19090000D03*
Y18990000D03*
X8800000Y19090000D03*
Y18990000D03*
X8900000Y19190000D03*
X8800000D03*
X8900000Y19290000D03*
X8800000D03*
X8900000Y19390000D03*
X8800000D03*
X8900000Y19590000D03*
Y19490000D03*
X8800000Y19590000D03*
Y19490000D03*
X8900000Y19690000D03*
X8800000D03*
X8900000Y19790000D03*
X8800000D03*
X8900000Y19990000D03*
Y19890000D03*
X8800000Y19990000D03*
Y19890000D03*
X8900000Y20090000D03*
X8800000D03*
X8900000Y20190000D03*
X8800000D03*
X8900000Y20290000D03*
X8800000D03*
X8900000Y20490000D03*
Y20390000D03*
X8800000Y20490000D03*
Y20390000D03*
X8900000Y20590000D03*
X8800000D03*
X8900000Y20690000D03*
X8800000D03*
X8900000Y20890000D03*
Y20790000D03*
X8800000Y20890000D03*
Y20790000D03*
X9000000Y6890000D03*
Y6990000D03*
Y7090000D03*
Y7190000D03*
Y7290000D03*
Y7390000D03*
Y7490000D03*
Y7590000D03*
Y7690000D03*
Y7790000D03*
Y7890000D03*
Y7990000D03*
Y8090000D03*
Y8190000D03*
Y8290000D03*
Y8390000D03*
Y8490000D03*
Y8590000D03*
Y8690000D03*
Y8790000D03*
Y8890000D03*
Y8990000D03*
Y9090000D03*
Y9190000D03*
Y9290000D03*
Y9390000D03*
Y9490000D03*
Y9590000D03*
Y9690000D03*
Y9790000D03*
Y9890000D03*
Y9990000D03*
Y10090000D03*
Y10190000D03*
Y10290000D03*
Y10390000D03*
Y10490000D03*
Y10590000D03*
Y10690000D03*
Y10790000D03*
Y10890000D03*
Y10990000D03*
Y11090000D03*
Y11190000D03*
Y11290000D03*
Y11390000D03*
Y11490000D03*
Y11590000D03*
Y11690000D03*
Y11790000D03*
Y11890000D03*
Y15990000D03*
Y15890000D03*
Y16090000D03*
Y16190000D03*
Y16290000D03*
Y16490000D03*
Y16390000D03*
Y16590000D03*
Y16690000D03*
Y16890000D03*
Y16790000D03*
Y16990000D03*
Y17090000D03*
Y17190000D03*
Y17390000D03*
Y17290000D03*
Y17490000D03*
Y17590000D03*
Y17790000D03*
Y17690000D03*
Y17890000D03*
Y17990000D03*
Y18090000D03*
Y18290000D03*
Y18190000D03*
Y18390000D03*
Y18490000D03*
Y18690000D03*
Y18590000D03*
Y18790000D03*
Y18890000D03*
Y19090000D03*
Y18990000D03*
Y19190000D03*
Y19290000D03*
Y19390000D03*
Y19590000D03*
Y19490000D03*
Y19690000D03*
Y19790000D03*
Y19990000D03*
Y19890000D03*
Y20090000D03*
Y20190000D03*
Y20290000D03*
Y20490000D03*
Y20390000D03*
Y20590000D03*
Y20690000D03*
Y20890000D03*
Y20790000D03*
X9100000Y6890000D03*
Y6990000D03*
Y7090000D03*
Y7190000D03*
Y7290000D03*
Y7390000D03*
Y7490000D03*
Y7590000D03*
Y7690000D03*
Y7790000D03*
Y7890000D03*
Y7990000D03*
Y8090000D03*
Y8190000D03*
Y8290000D03*
Y8390000D03*
Y8490000D03*
Y8590000D03*
Y8690000D03*
Y8790000D03*
Y8890000D03*
Y8990000D03*
Y9090000D03*
Y9190000D03*
Y9290000D03*
Y9390000D03*
Y9490000D03*
Y9590000D03*
Y9690000D03*
Y9790000D03*
Y9890000D03*
Y9990000D03*
Y10090000D03*
Y10190000D03*
Y10290000D03*
Y10390000D03*
Y10490000D03*
Y10590000D03*
Y10690000D03*
Y10790000D03*
Y10890000D03*
Y10990000D03*
Y11090000D03*
Y11190000D03*
Y11290000D03*
Y11390000D03*
Y11490000D03*
Y11590000D03*
Y11690000D03*
Y11790000D03*
Y11890000D03*
Y15990000D03*
Y15890000D03*
Y16090000D03*
Y16190000D03*
Y16290000D03*
Y16490000D03*
Y16390000D03*
Y16590000D03*
Y16690000D03*
Y16890000D03*
Y16790000D03*
Y16990000D03*
Y17090000D03*
Y17190000D03*
Y17390000D03*
Y17290000D03*
Y17490000D03*
Y17590000D03*
Y17790000D03*
Y17690000D03*
Y17890000D03*
Y17990000D03*
Y18090000D03*
Y18290000D03*
Y18190000D03*
Y18390000D03*
Y18490000D03*
Y18690000D03*
Y18590000D03*
Y18790000D03*
Y18890000D03*
Y19090000D03*
Y18990000D03*
Y19190000D03*
Y19290000D03*
Y19390000D03*
Y19590000D03*
Y19490000D03*
Y19690000D03*
Y19790000D03*
Y19990000D03*
Y19890000D03*
Y20090000D03*
Y20190000D03*
Y20290000D03*
Y20490000D03*
Y20390000D03*
Y20590000D03*
Y20690000D03*
Y20890000D03*
Y20790000D03*
X9200000Y6890000D03*
X9300000D03*
X9200000Y6990000D03*
X9300000D03*
X9200000Y7090000D03*
Y7190000D03*
X9300000Y7090000D03*
Y7190000D03*
X9200000Y7290000D03*
X9300000D03*
X9200000Y7390000D03*
X9300000D03*
X9200000Y7490000D03*
X9300000D03*
X9200000Y7590000D03*
Y7690000D03*
X9300000Y7590000D03*
Y7690000D03*
X9200000Y7790000D03*
X9300000D03*
X9200000Y7890000D03*
X9300000D03*
X9200000Y7990000D03*
Y8090000D03*
X9300000Y7990000D03*
Y8090000D03*
X9200000Y8190000D03*
X9300000D03*
X9200000Y8290000D03*
X9300000D03*
X9200000Y8390000D03*
X9300000D03*
X9200000Y8490000D03*
Y8590000D03*
X9300000Y8490000D03*
Y8590000D03*
X9200000Y8690000D03*
X9300000D03*
X9200000Y8790000D03*
X9300000D03*
X9200000Y8890000D03*
Y8990000D03*
X9300000Y8890000D03*
Y8990000D03*
X9200000Y9090000D03*
X9300000D03*
X9200000Y9190000D03*
X9300000D03*
X9200000Y9290000D03*
Y9390000D03*
X9300000Y9290000D03*
Y9390000D03*
X9200000Y9490000D03*
X9300000D03*
X9200000Y9590000D03*
X9300000D03*
X9200000Y9690000D03*
X9300000D03*
X9200000Y9790000D03*
Y9890000D03*
X9300000Y9790000D03*
Y9890000D03*
X9200000Y9990000D03*
X9300000D03*
X9200000Y10090000D03*
X9300000D03*
X9200000Y10190000D03*
Y10290000D03*
X9300000Y10190000D03*
Y10290000D03*
X9200000Y10390000D03*
X9300000D03*
X9200000Y10490000D03*
X9300000D03*
X9200000Y10590000D03*
X9300000D03*
X9200000Y10690000D03*
Y10790000D03*
X9300000Y10690000D03*
Y10790000D03*
X9200000Y10890000D03*
X9300000D03*
X9200000Y10990000D03*
X9300000D03*
X9200000Y11090000D03*
Y11190000D03*
X9300000Y11090000D03*
Y11190000D03*
X9200000Y11290000D03*
X9300000D03*
X9200000Y11390000D03*
X9300000D03*
X9200000Y11490000D03*
Y11590000D03*
X9300000Y11490000D03*
Y11590000D03*
X9200000Y11690000D03*
X9300000D03*
X9200000Y11790000D03*
X9300000D03*
X9200000Y11890000D03*
X9300000D03*
Y15990000D03*
Y15890000D03*
X9200000Y15990000D03*
Y15890000D03*
X9300000Y16090000D03*
X9200000D03*
X9300000Y16190000D03*
X9200000D03*
X9300000Y16290000D03*
X9200000D03*
X9300000Y16490000D03*
Y16390000D03*
X9200000Y16490000D03*
Y16390000D03*
X9300000Y16590000D03*
X9200000D03*
X9300000Y16690000D03*
X9200000D03*
X9300000Y16890000D03*
Y16790000D03*
X9200000Y16890000D03*
Y16790000D03*
X9300000Y16990000D03*
X9200000D03*
X9300000Y17090000D03*
X9200000D03*
X9300000Y17190000D03*
X9200000D03*
X9300000Y17390000D03*
Y17290000D03*
X9200000Y17390000D03*
Y17290000D03*
X9300000Y17490000D03*
X9200000D03*
X9300000Y17590000D03*
X9200000D03*
X9300000Y17790000D03*
Y17690000D03*
X9200000Y17790000D03*
Y17690000D03*
X9300000Y17890000D03*
X9200000D03*
X9300000Y17990000D03*
X9200000D03*
X9300000Y18090000D03*
X9200000D03*
X9300000Y18290000D03*
Y18190000D03*
X9200000Y18290000D03*
Y18190000D03*
X9300000Y18390000D03*
X9200000D03*
X9300000Y18490000D03*
X9200000D03*
X9300000Y18690000D03*
Y18590000D03*
X9200000Y18690000D03*
Y18590000D03*
X9300000Y18790000D03*
X9200000D03*
X9300000Y18890000D03*
X9200000D03*
X9300000Y19090000D03*
Y18990000D03*
X9200000Y19090000D03*
Y18990000D03*
X9300000Y19190000D03*
X9200000D03*
X9300000Y19290000D03*
X9200000D03*
X9300000Y19390000D03*
X9200000D03*
X9300000Y19590000D03*
Y19490000D03*
X9200000Y19590000D03*
Y19490000D03*
X9300000Y19690000D03*
X9200000D03*
X9300000Y19790000D03*
X9200000D03*
X9300000Y19990000D03*
Y19890000D03*
X9200000Y19990000D03*
Y19890000D03*
X9300000Y20090000D03*
X9200000D03*
X9300000Y20190000D03*
X9200000D03*
X9300000Y20290000D03*
X9200000D03*
X9300000Y20490000D03*
Y20390000D03*
X9200000Y20490000D03*
Y20390000D03*
X9300000Y20590000D03*
X9200000D03*
X9300000Y20690000D03*
X9200000D03*
X9300000Y20890000D03*
Y20790000D03*
X9200000Y20890000D03*
Y20790000D03*
X9400000Y6890000D03*
Y6990000D03*
Y7090000D03*
Y7190000D03*
Y7290000D03*
Y7390000D03*
Y7490000D03*
Y7590000D03*
Y7690000D03*
Y7790000D03*
Y7890000D03*
Y7990000D03*
Y8090000D03*
Y8190000D03*
Y8290000D03*
Y8390000D03*
Y8490000D03*
Y8590000D03*
Y8690000D03*
Y8790000D03*
Y8890000D03*
Y8990000D03*
Y9090000D03*
Y9190000D03*
Y9290000D03*
Y9390000D03*
Y9490000D03*
Y9590000D03*
Y9690000D03*
Y9790000D03*
Y9890000D03*
Y9990000D03*
Y10090000D03*
Y10190000D03*
Y10290000D03*
Y10390000D03*
Y10490000D03*
Y10590000D03*
Y10690000D03*
Y10790000D03*
Y10890000D03*
Y10990000D03*
Y11090000D03*
Y11190000D03*
Y11290000D03*
Y11390000D03*
Y11490000D03*
Y11590000D03*
Y11690000D03*
Y11790000D03*
Y11890000D03*
Y15990000D03*
Y15890000D03*
Y16090000D03*
Y16190000D03*
Y16290000D03*
Y16490000D03*
Y16390000D03*
Y16590000D03*
Y16690000D03*
Y16890000D03*
Y16790000D03*
Y16990000D03*
Y17090000D03*
Y17190000D03*
Y17390000D03*
Y17290000D03*
Y17490000D03*
Y17590000D03*
Y17790000D03*
Y17690000D03*
Y17890000D03*
Y17990000D03*
Y18090000D03*
Y18290000D03*
Y18190000D03*
Y18390000D03*
Y18490000D03*
Y18690000D03*
Y18590000D03*
Y18790000D03*
Y18890000D03*
Y19090000D03*
Y18990000D03*
Y19190000D03*
Y19290000D03*
Y19390000D03*
Y19590000D03*
Y19490000D03*
Y19690000D03*
Y19790000D03*
Y19990000D03*
Y19890000D03*
Y20090000D03*
Y20190000D03*
Y20290000D03*
Y20490000D03*
Y20390000D03*
Y20590000D03*
Y20690000D03*
Y20890000D03*
Y20790000D03*
X9500000Y6890000D03*
Y6990000D03*
Y7090000D03*
Y7190000D03*
Y7290000D03*
Y7390000D03*
Y7490000D03*
Y7590000D03*
Y7690000D03*
Y7790000D03*
Y7890000D03*
Y7990000D03*
Y8090000D03*
Y8190000D03*
Y8290000D03*
Y8390000D03*
Y8490000D03*
Y8590000D03*
Y8690000D03*
Y8790000D03*
Y8890000D03*
Y8990000D03*
Y9090000D03*
Y9190000D03*
Y9290000D03*
Y9390000D03*
Y9490000D03*
Y9590000D03*
Y9690000D03*
Y9790000D03*
Y9890000D03*
Y9990000D03*
Y10090000D03*
Y10190000D03*
Y10290000D03*
Y10390000D03*
Y10490000D03*
Y10590000D03*
Y10690000D03*
Y10790000D03*
Y10890000D03*
Y10990000D03*
Y11090000D03*
Y11190000D03*
Y11290000D03*
Y11390000D03*
Y11490000D03*
Y11590000D03*
Y11690000D03*
Y11790000D03*
Y11890000D03*
Y15990000D03*
Y15890000D03*
Y16090000D03*
Y16190000D03*
Y16290000D03*
Y16490000D03*
Y16390000D03*
Y16590000D03*
Y16690000D03*
Y16890000D03*
Y16790000D03*
Y16990000D03*
Y17090000D03*
Y17190000D03*
Y17390000D03*
Y17290000D03*
Y17490000D03*
Y17590000D03*
Y17790000D03*
Y17690000D03*
Y17890000D03*
Y17990000D03*
Y18090000D03*
Y18290000D03*
Y18190000D03*
Y18390000D03*
Y18490000D03*
Y18690000D03*
Y18590000D03*
Y18790000D03*
Y18890000D03*
Y19090000D03*
Y18990000D03*
Y19190000D03*
Y19290000D03*
Y19390000D03*
Y19590000D03*
Y19490000D03*
Y19690000D03*
Y19790000D03*
Y19990000D03*
Y19890000D03*
Y20090000D03*
Y20190000D03*
Y20290000D03*
Y20490000D03*
Y20390000D03*
Y20590000D03*
Y20690000D03*
Y20890000D03*
Y20790000D03*
X9600000Y6890000D03*
X9700000D03*
X9600000Y6990000D03*
X9700000D03*
X9600000Y7090000D03*
Y7190000D03*
X9700000Y7090000D03*
Y7190000D03*
X9600000Y7290000D03*
X9700000D03*
X9600000Y7390000D03*
X9700000D03*
X9600000Y7490000D03*
X9700000D03*
X9600000Y7590000D03*
Y7690000D03*
X9700000Y7590000D03*
Y7690000D03*
X9600000Y7790000D03*
X9700000D03*
X9600000Y7890000D03*
X9700000D03*
X9600000Y7990000D03*
Y8090000D03*
X9700000Y7990000D03*
Y8090000D03*
X9600000Y8190000D03*
X9700000D03*
X9600000Y8290000D03*
X9700000D03*
X9600000Y8390000D03*
X9700000D03*
X9600000Y8490000D03*
Y8590000D03*
X9700000Y8490000D03*
Y8590000D03*
X9600000Y8690000D03*
X9700000D03*
X9600000Y8790000D03*
X9700000D03*
X9600000Y8890000D03*
Y8990000D03*
X9700000Y8890000D03*
Y8990000D03*
X9600000Y9090000D03*
X9700000D03*
X9600000Y9190000D03*
X9700000D03*
X9600000Y9290000D03*
Y9390000D03*
X9700000Y9290000D03*
Y9390000D03*
X9600000Y9490000D03*
X9700000D03*
X9600000Y9590000D03*
X9700000D03*
X9600000Y9690000D03*
X9700000D03*
X9600000Y9790000D03*
Y9890000D03*
X9700000Y9790000D03*
Y9890000D03*
X9600000Y9990000D03*
X9700000D03*
X9600000Y10090000D03*
X9700000D03*
X9600000Y10190000D03*
Y10290000D03*
X9700000Y10190000D03*
Y10290000D03*
X9600000Y10390000D03*
X9700000D03*
X9600000Y10490000D03*
X9700000D03*
X9600000Y10590000D03*
X9700000D03*
X9600000Y10690000D03*
Y10790000D03*
X9700000Y10690000D03*
Y10790000D03*
X9600000Y10890000D03*
X9700000D03*
X9600000Y10990000D03*
X9700000D03*
X9600000Y11090000D03*
Y11190000D03*
X9700000Y11090000D03*
Y11190000D03*
X9600000Y11290000D03*
X9700000D03*
X9600000Y11390000D03*
X9700000D03*
X9600000Y11490000D03*
Y11590000D03*
X9700000Y11490000D03*
Y11590000D03*
X9600000Y11690000D03*
X9700000D03*
X9600000Y11790000D03*
X9700000D03*
X9600000Y11890000D03*
X9700000D03*
Y15990000D03*
Y15890000D03*
X9600000Y15990000D03*
Y15890000D03*
X9700000Y16090000D03*
X9600000D03*
X9700000Y16190000D03*
X9600000D03*
X9700000Y16290000D03*
X9600000D03*
X9700000Y16490000D03*
Y16390000D03*
X9600000Y16490000D03*
Y16390000D03*
X9700000Y16590000D03*
X9600000D03*
X9700000Y16690000D03*
X9600000D03*
X9700000Y16890000D03*
Y16790000D03*
X9600000Y16890000D03*
Y16790000D03*
X9700000Y16990000D03*
X9600000D03*
X9700000Y17090000D03*
X9600000D03*
X9700000Y17190000D03*
X9600000D03*
X9700000Y17390000D03*
Y17290000D03*
X9600000Y17390000D03*
Y17290000D03*
X9700000Y17490000D03*
X9600000D03*
X9700000Y17590000D03*
X9600000D03*
X9700000Y17790000D03*
Y17690000D03*
X9600000Y17790000D03*
Y17690000D03*
X9700000Y17890000D03*
X9600000D03*
X9700000Y17990000D03*
X9600000D03*
X9700000Y18090000D03*
X9600000D03*
X9700000Y18290000D03*
Y18190000D03*
X9600000Y18290000D03*
Y18190000D03*
X9700000Y18390000D03*
X9600000D03*
X9700000Y18490000D03*
X9600000D03*
X9700000Y18690000D03*
Y18590000D03*
X9600000Y18690000D03*
Y18590000D03*
X9700000Y18790000D03*
X9600000D03*
X9700000Y18890000D03*
X9600000D03*
X9700000Y19090000D03*
Y18990000D03*
X9600000Y19090000D03*
Y18990000D03*
X9700000Y19190000D03*
X9600000D03*
X9700000Y19290000D03*
X9600000D03*
X9700000Y19390000D03*
X9600000D03*
X9700000Y19590000D03*
Y19490000D03*
X9600000Y19590000D03*
Y19490000D03*
X9700000Y19690000D03*
X9600000D03*
X9700000Y19790000D03*
X9600000D03*
X9700000Y19990000D03*
Y19890000D03*
X9600000Y19990000D03*
Y19890000D03*
X9700000Y20090000D03*
X9600000D03*
X9700000Y20190000D03*
X9600000D03*
X9700000Y20290000D03*
X9600000D03*
X9700000Y20490000D03*
Y20390000D03*
X9600000Y20490000D03*
Y20390000D03*
X9700000Y20590000D03*
X9600000D03*
X9700000Y20690000D03*
X9600000D03*
X9700000Y20890000D03*
Y20790000D03*
X9600000Y20890000D03*
Y20790000D03*
X9800000Y6890000D03*
Y6990000D03*
Y7090000D03*
Y7190000D03*
Y7290000D03*
Y7390000D03*
Y7490000D03*
Y7590000D03*
Y7690000D03*
Y7790000D03*
Y7890000D03*
Y7990000D03*
Y8090000D03*
Y8190000D03*
Y8290000D03*
Y8390000D03*
Y8490000D03*
Y8590000D03*
Y8690000D03*
Y8790000D03*
Y8890000D03*
Y8990000D03*
Y9090000D03*
Y9190000D03*
Y9290000D03*
Y9390000D03*
Y9490000D03*
Y9590000D03*
Y9690000D03*
Y9790000D03*
Y9890000D03*
Y9990000D03*
Y10090000D03*
Y10190000D03*
Y10290000D03*
Y10390000D03*
Y10490000D03*
Y10590000D03*
Y10690000D03*
Y10790000D03*
Y10890000D03*
Y10990000D03*
Y11090000D03*
Y11190000D03*
Y11290000D03*
Y11390000D03*
Y11490000D03*
Y11590000D03*
Y11690000D03*
Y11790000D03*
Y11890000D03*
Y15990000D03*
Y15890000D03*
Y16090000D03*
Y16190000D03*
Y16290000D03*
Y16490000D03*
Y16390000D03*
Y16590000D03*
Y16690000D03*
Y16890000D03*
Y16790000D03*
Y16990000D03*
Y17090000D03*
Y17190000D03*
Y17390000D03*
Y17290000D03*
Y17490000D03*
Y17590000D03*
Y17790000D03*
Y17690000D03*
Y17890000D03*
Y17990000D03*
Y18090000D03*
Y18290000D03*
Y18190000D03*
Y18390000D03*
Y18490000D03*
Y18690000D03*
Y18590000D03*
Y18790000D03*
Y18890000D03*
Y19090000D03*
Y18990000D03*
Y19190000D03*
Y19290000D03*
Y19390000D03*
Y19590000D03*
Y19490000D03*
Y19690000D03*
Y19790000D03*
Y19990000D03*
Y19890000D03*
Y20090000D03*
Y20190000D03*
Y20290000D03*
Y20490000D03*
Y20390000D03*
Y20590000D03*
Y20690000D03*
Y20890000D03*
Y20790000D03*
X9900000Y6890000D03*
Y6990000D03*
Y7090000D03*
Y7190000D03*
Y7290000D03*
Y7390000D03*
Y7490000D03*
Y7590000D03*
Y7690000D03*
Y7790000D03*
Y7890000D03*
Y7990000D03*
Y8090000D03*
Y8190000D03*
Y8290000D03*
Y8390000D03*
Y8490000D03*
Y8590000D03*
Y8690000D03*
Y8790000D03*
Y8890000D03*
Y8990000D03*
Y9090000D03*
Y9190000D03*
Y9290000D03*
Y9390000D03*
Y9490000D03*
Y9590000D03*
Y9690000D03*
Y9790000D03*
Y9890000D03*
Y9990000D03*
Y10090000D03*
Y10190000D03*
Y10290000D03*
Y10390000D03*
Y10490000D03*
Y10590000D03*
Y10690000D03*
Y10790000D03*
Y10890000D03*
Y10990000D03*
Y11090000D03*
Y11190000D03*
Y11290000D03*
Y11390000D03*
Y11490000D03*
Y11590000D03*
Y11690000D03*
Y11790000D03*
Y11890000D03*
Y15990000D03*
Y15890000D03*
Y16090000D03*
Y16190000D03*
Y16290000D03*
Y16490000D03*
Y16390000D03*
Y16590000D03*
Y16690000D03*
Y16890000D03*
Y16790000D03*
Y16990000D03*
Y17090000D03*
Y17190000D03*
Y17390000D03*
Y17290000D03*
Y17490000D03*
Y17590000D03*
Y17790000D03*
Y17690000D03*
Y17890000D03*
Y17990000D03*
Y18090000D03*
Y18290000D03*
Y18190000D03*
Y18390000D03*
Y18490000D03*
Y18690000D03*
Y18590000D03*
Y18790000D03*
Y18890000D03*
Y19090000D03*
Y18990000D03*
Y19190000D03*
Y19290000D03*
Y19390000D03*
Y19590000D03*
Y19490000D03*
Y19690000D03*
Y19790000D03*
Y19990000D03*
Y19890000D03*
Y20090000D03*
Y20190000D03*
Y20290000D03*
Y20490000D03*
Y20390000D03*
Y20590000D03*
Y20690000D03*
Y20890000D03*
Y20790000D03*
X10000000Y6890000D03*
Y6990000D03*
Y7090000D03*
Y7190000D03*
Y7290000D03*
Y7390000D03*
Y7490000D03*
Y7590000D03*
Y7690000D03*
Y7790000D03*
Y7890000D03*
Y7990000D03*
Y8090000D03*
Y8190000D03*
Y8290000D03*
Y8390000D03*
Y8490000D03*
Y8590000D03*
Y8690000D03*
Y8790000D03*
Y8890000D03*
Y8990000D03*
Y9090000D03*
Y9190000D03*
Y9290000D03*
Y9390000D03*
Y9490000D03*
Y9590000D03*
Y9690000D03*
Y9790000D03*
Y9890000D03*
Y9990000D03*
Y10090000D03*
Y10190000D03*
Y10290000D03*
Y10390000D03*
Y10490000D03*
Y10590000D03*
Y10690000D03*
Y10790000D03*
Y10890000D03*
Y10990000D03*
Y11090000D03*
Y11190000D03*
Y11290000D03*
Y11390000D03*
Y11490000D03*
Y11590000D03*
Y11690000D03*
Y11790000D03*
Y11890000D03*
Y15990000D03*
Y15890000D03*
Y16090000D03*
Y16190000D03*
Y16290000D03*
Y16490000D03*
Y16390000D03*
Y16590000D03*
Y16690000D03*
Y16890000D03*
Y16790000D03*
Y16990000D03*
Y17090000D03*
Y17190000D03*
Y17390000D03*
Y17290000D03*
Y17490000D03*
Y17590000D03*
Y17790000D03*
Y17690000D03*
Y17890000D03*
Y17990000D03*
Y18090000D03*
Y18290000D03*
Y18190000D03*
Y18390000D03*
Y18490000D03*
Y18690000D03*
Y18590000D03*
Y18790000D03*
Y18890000D03*
Y19090000D03*
Y18990000D03*
Y19190000D03*
Y19290000D03*
Y19390000D03*
Y19590000D03*
Y19490000D03*
Y19690000D03*
Y19790000D03*
Y19990000D03*
Y19890000D03*
Y20090000D03*
Y20190000D03*
Y20290000D03*
Y20490000D03*
Y20390000D03*
Y20590000D03*
Y20690000D03*
Y20890000D03*
Y20790000D03*
X10100000Y6890000D03*
X10200000D03*
X10100000Y6990000D03*
X10200000D03*
X10100000Y7090000D03*
Y7190000D03*
X10200000Y7090000D03*
Y7190000D03*
X10100000Y7290000D03*
X10200000D03*
X10100000Y7390000D03*
X10200000D03*
X10100000Y7490000D03*
X10200000D03*
X10100000Y7590000D03*
Y7690000D03*
X10200000Y7590000D03*
Y7690000D03*
X10100000Y7790000D03*
X10200000D03*
X10100000Y7890000D03*
X10200000D03*
X10100000Y7990000D03*
Y8090000D03*
X10200000Y7990000D03*
Y8090000D03*
X10100000Y8190000D03*
X10200000D03*
X10100000Y8290000D03*
X10200000D03*
X10100000Y8390000D03*
X10200000D03*
X10100000Y8490000D03*
Y8590000D03*
X10200000Y8490000D03*
Y8590000D03*
X10100000Y8690000D03*
X10200000D03*
X10100000Y8790000D03*
X10200000D03*
X10100000Y8890000D03*
Y8990000D03*
X10200000Y8890000D03*
Y8990000D03*
X10100000Y9090000D03*
X10200000D03*
X10100000Y9190000D03*
X10200000D03*
X10100000Y9290000D03*
Y9390000D03*
X10200000Y9290000D03*
Y9390000D03*
X10100000Y9490000D03*
X10200000D03*
X10100000Y9590000D03*
X10200000D03*
X10100000Y9690000D03*
X10200000D03*
X10100000Y9790000D03*
Y9890000D03*
X10200000Y9790000D03*
Y9890000D03*
X10100000Y9990000D03*
X10200000D03*
X10100000Y10090000D03*
X10200000D03*
X10100000Y10190000D03*
Y10290000D03*
X10200000Y10190000D03*
Y10290000D03*
X10100000Y10390000D03*
X10200000D03*
X10100000Y10490000D03*
X10200000D03*
X10100000Y10590000D03*
X10200000D03*
X10100000Y10690000D03*
Y10790000D03*
X10200000Y10690000D03*
Y10790000D03*
X10100000Y10890000D03*
X10200000D03*
X10100000Y10990000D03*
X10200000D03*
X10100000Y11090000D03*
Y11190000D03*
X10200000Y11090000D03*
Y11190000D03*
X10100000Y11290000D03*
X10200000D03*
X10100000Y11390000D03*
X10200000D03*
X10100000Y11490000D03*
Y11590000D03*
X10200000Y11490000D03*
Y11590000D03*
X10100000Y11690000D03*
X10200000D03*
X10100000Y11790000D03*
X10200000D03*
X10100000Y11890000D03*
X10200000D03*
Y15990000D03*
Y15890000D03*
X10100000Y15990000D03*
Y15890000D03*
X10200000Y16090000D03*
X10100000D03*
X10200000Y16190000D03*
X10100000D03*
X10200000Y16290000D03*
X10100000D03*
X10200000Y16490000D03*
Y16390000D03*
X10100000Y16490000D03*
Y16390000D03*
X10200000Y16590000D03*
X10100000D03*
X10200000Y16690000D03*
X10100000D03*
X10200000Y16890000D03*
Y16790000D03*
X10100000Y16890000D03*
Y16790000D03*
X10200000Y16990000D03*
X10100000D03*
X10200000Y17090000D03*
X10100000D03*
X10200000Y17190000D03*
X10100000D03*
X10200000Y17390000D03*
Y17290000D03*
X10100000Y17390000D03*
Y17290000D03*
X10200000Y17490000D03*
X10100000D03*
X10200000Y17590000D03*
X10100000D03*
X10200000Y17790000D03*
Y17690000D03*
X10100000Y17790000D03*
Y17690000D03*
X10200000Y17890000D03*
X10100000D03*
X10200000Y17990000D03*
X10100000D03*
X10200000Y18090000D03*
X10100000D03*
X10200000Y18290000D03*
Y18190000D03*
X10100000Y18290000D03*
Y18190000D03*
X10200000Y18390000D03*
X10100000D03*
X10200000Y18490000D03*
X10100000D03*
X10200000Y18690000D03*
Y18590000D03*
X10100000Y18690000D03*
Y18590000D03*
X10200000Y18790000D03*
X10100000D03*
X10200000Y18890000D03*
X10100000D03*
X10200000Y19090000D03*
Y18990000D03*
X10100000Y19090000D03*
Y18990000D03*
X10200000Y19190000D03*
X10100000D03*
X10200000Y19290000D03*
X10100000D03*
X10200000Y19390000D03*
X10100000D03*
X10200000Y19590000D03*
Y19490000D03*
X10100000Y19590000D03*
Y19490000D03*
X10200000Y19690000D03*
X10100000D03*
X10200000Y19790000D03*
X10100000D03*
X10200000Y19990000D03*
Y19890000D03*
X10100000Y19990000D03*
Y19890000D03*
X10200000Y20090000D03*
X10100000D03*
X10200000Y20190000D03*
X10100000D03*
X10200000Y20290000D03*
X10100000D03*
X10200000Y20490000D03*
Y20390000D03*
X10100000Y20490000D03*
Y20390000D03*
X10200000Y20590000D03*
X10100000D03*
X10200000Y20690000D03*
X10100000D03*
X10200000Y20890000D03*
Y20790000D03*
X10100000Y20890000D03*
Y20790000D03*
X10300000Y6890000D03*
Y6990000D03*
Y7090000D03*
Y7190000D03*
Y7290000D03*
Y7390000D03*
Y7490000D03*
Y7590000D03*
Y7690000D03*
Y7790000D03*
Y7890000D03*
Y7990000D03*
Y8090000D03*
Y8190000D03*
Y8290000D03*
Y8390000D03*
Y8490000D03*
Y8590000D03*
Y8690000D03*
Y8790000D03*
Y8890000D03*
Y8990000D03*
Y9090000D03*
Y9190000D03*
Y9290000D03*
Y9390000D03*
Y9490000D03*
Y9590000D03*
Y9690000D03*
Y9790000D03*
Y9890000D03*
Y9990000D03*
Y10090000D03*
Y10190000D03*
Y10290000D03*
Y10390000D03*
Y10490000D03*
Y10590000D03*
Y10690000D03*
Y10790000D03*
Y10890000D03*
Y10990000D03*
Y11090000D03*
Y11190000D03*
Y11290000D03*
Y11390000D03*
Y11490000D03*
Y11590000D03*
Y11690000D03*
Y11790000D03*
Y11890000D03*
Y15990000D03*
Y15890000D03*
Y16090000D03*
Y16190000D03*
Y16290000D03*
Y16490000D03*
Y16390000D03*
Y16590000D03*
Y16690000D03*
Y16890000D03*
Y16790000D03*
Y16990000D03*
Y17090000D03*
Y17190000D03*
Y17390000D03*
Y17290000D03*
Y17490000D03*
Y17590000D03*
Y17790000D03*
Y17690000D03*
Y17890000D03*
Y17990000D03*
Y18090000D03*
Y18290000D03*
Y18190000D03*
Y18390000D03*
Y18490000D03*
Y18690000D03*
Y18590000D03*
Y18790000D03*
Y18890000D03*
Y19090000D03*
Y18990000D03*
Y19190000D03*
Y19290000D03*
Y19390000D03*
Y19590000D03*
Y19490000D03*
Y19690000D03*
Y19790000D03*
Y19990000D03*
Y19890000D03*
Y20090000D03*
Y20190000D03*
Y20290000D03*
Y20490000D03*
Y20390000D03*
Y20590000D03*
Y20690000D03*
Y20890000D03*
Y20790000D03*
X10400000Y6890000D03*
Y6990000D03*
Y7090000D03*
Y7190000D03*
Y7290000D03*
Y7390000D03*
Y7490000D03*
Y7590000D03*
Y7690000D03*
Y7790000D03*
Y7890000D03*
Y7990000D03*
Y8090000D03*
Y8190000D03*
Y8290000D03*
Y8390000D03*
Y8490000D03*
Y8590000D03*
Y8690000D03*
Y8790000D03*
Y8890000D03*
Y8990000D03*
Y9090000D03*
Y9190000D03*
Y9290000D03*
Y9390000D03*
Y9490000D03*
Y9590000D03*
Y9690000D03*
Y9790000D03*
Y9890000D03*
Y9990000D03*
Y10090000D03*
Y10190000D03*
Y10290000D03*
Y10390000D03*
Y10490000D03*
Y10590000D03*
Y10690000D03*
Y10790000D03*
Y10890000D03*
Y10990000D03*
Y11090000D03*
Y11190000D03*
Y11290000D03*
Y11390000D03*
Y11490000D03*
Y11590000D03*
Y11690000D03*
Y11790000D03*
Y11890000D03*
Y15990000D03*
Y15890000D03*
Y16090000D03*
Y16190000D03*
Y16290000D03*
Y16490000D03*
Y16390000D03*
Y16590000D03*
Y16690000D03*
Y16890000D03*
Y16790000D03*
Y16990000D03*
Y17090000D03*
Y17190000D03*
Y17390000D03*
Y17290000D03*
Y17490000D03*
Y17590000D03*
Y17790000D03*
Y17690000D03*
Y17890000D03*
Y17990000D03*
Y18090000D03*
Y18290000D03*
Y18190000D03*
Y18390000D03*
Y18490000D03*
Y18690000D03*
Y18590000D03*
Y18790000D03*
Y18890000D03*
Y19090000D03*
Y18990000D03*
Y19190000D03*
Y19290000D03*
Y19390000D03*
Y19590000D03*
Y19490000D03*
Y19690000D03*
Y19790000D03*
Y19990000D03*
Y19890000D03*
Y20090000D03*
Y20190000D03*
Y20290000D03*
Y20490000D03*
Y20390000D03*
Y20590000D03*
Y20690000D03*
Y20890000D03*
Y20790000D03*
X10500000Y6890000D03*
X10600000D03*
X10500000Y6990000D03*
X10600000D03*
X10500000Y7090000D03*
Y7190000D03*
X10600000Y7090000D03*
Y7190000D03*
X10500000Y7290000D03*
X10600000D03*
X10500000Y7390000D03*
X10600000D03*
X10500000Y7490000D03*
X10600000D03*
X10500000Y7590000D03*
Y7690000D03*
X10600000Y7590000D03*
Y7690000D03*
X10500000Y7790000D03*
X10600000D03*
X10500000Y7890000D03*
X10600000D03*
X10500000Y7990000D03*
Y8090000D03*
X10600000Y7990000D03*
Y8090000D03*
X10500000Y8190000D03*
X10600000D03*
X10500000Y8290000D03*
X10600000D03*
X10500000Y8390000D03*
X10600000D03*
X10500000Y8490000D03*
Y8590000D03*
X10600000Y8490000D03*
Y8590000D03*
X10500000Y8690000D03*
X10600000D03*
X10500000Y8790000D03*
X10600000D03*
X10500000Y8890000D03*
Y8990000D03*
X10600000Y8890000D03*
Y8990000D03*
X10500000Y9090000D03*
X10600000D03*
X10500000Y9190000D03*
X10600000D03*
X10500000Y9290000D03*
Y9390000D03*
X10600000Y9290000D03*
Y9390000D03*
X10500000Y9490000D03*
X10600000D03*
X10500000Y9590000D03*
X10600000D03*
X10500000Y9690000D03*
X10600000D03*
X10500000Y9790000D03*
Y9890000D03*
X10600000Y9790000D03*
Y9890000D03*
X10500000Y9990000D03*
X10600000D03*
X10500000Y10090000D03*
X10600000D03*
X10500000Y10190000D03*
Y10290000D03*
X10600000Y10190000D03*
Y10290000D03*
X10500000Y10390000D03*
X10600000D03*
X10500000Y10490000D03*
X10600000D03*
X10500000Y10590000D03*
X10600000D03*
X10500000Y10690000D03*
Y10790000D03*
X10600000Y10690000D03*
Y10790000D03*
X10500000Y10890000D03*
X10600000D03*
X10500000Y10990000D03*
X10600000D03*
X10500000Y11090000D03*
Y11190000D03*
X10600000Y11090000D03*
Y11190000D03*
X10500000Y11290000D03*
X10600000D03*
X10500000Y11390000D03*
X10600000D03*
X10500000Y11490000D03*
Y11590000D03*
X10600000Y11490000D03*
Y11590000D03*
X10500000Y11690000D03*
X10600000D03*
X10500000Y11790000D03*
X10600000D03*
X10500000Y11890000D03*
X10600000D03*
Y15990000D03*
Y15890000D03*
X10500000Y15990000D03*
Y15890000D03*
X10600000Y16090000D03*
X10500000D03*
X10600000Y16190000D03*
X10500000D03*
X10600000Y16290000D03*
X10500000D03*
X10600000Y16490000D03*
Y16390000D03*
X10500000Y16490000D03*
Y16390000D03*
X10600000Y16590000D03*
X10500000D03*
X10600000Y16690000D03*
X10500000D03*
X10600000Y16890000D03*
Y16790000D03*
X10500000Y16890000D03*
Y16790000D03*
X10600000Y16990000D03*
X10500000D03*
X10600000Y17090000D03*
X10500000D03*
X10600000Y17190000D03*
X10500000D03*
X10600000Y17390000D03*
Y17290000D03*
X10500000Y17390000D03*
Y17290000D03*
X10600000Y17490000D03*
X10500000D03*
X10600000Y17590000D03*
X10500000D03*
X10600000Y17790000D03*
Y17690000D03*
X10500000Y17790000D03*
Y17690000D03*
X10600000Y17890000D03*
X10500000D03*
X10600000Y17990000D03*
X10500000D03*
X10600000Y18090000D03*
X10500000D03*
X10600000Y18290000D03*
Y18190000D03*
X10500000Y18290000D03*
Y18190000D03*
X10600000Y18390000D03*
X10500000D03*
X10600000Y18490000D03*
X10500000D03*
X10600000Y18690000D03*
Y18590000D03*
X10500000Y18690000D03*
Y18590000D03*
X10600000Y18790000D03*
X10500000D03*
X10600000Y18890000D03*
X10500000D03*
X10600000Y19090000D03*
Y18990000D03*
X10500000Y19090000D03*
Y18990000D03*
X10600000Y19190000D03*
X10500000D03*
X10600000Y19290000D03*
X10500000D03*
X10600000Y19390000D03*
X10500000D03*
X10600000Y19590000D03*
Y19490000D03*
X10500000Y19590000D03*
Y19490000D03*
X10600000Y19690000D03*
X10500000D03*
X10600000Y19790000D03*
X10500000D03*
X10600000Y19990000D03*
Y19890000D03*
X10500000Y19990000D03*
Y19890000D03*
X10600000Y20090000D03*
X10500000D03*
X10600000Y20190000D03*
X10500000D03*
X10600000Y20290000D03*
X10500000D03*
X10600000Y20490000D03*
Y20390000D03*
X10500000Y20490000D03*
Y20390000D03*
X10600000Y20590000D03*
X10500000D03*
X10600000Y20690000D03*
X10500000D03*
X10600000Y20890000D03*
Y20790000D03*
X10500000Y20890000D03*
Y20790000D03*
X10700000Y6890000D03*
Y6990000D03*
Y7090000D03*
Y7190000D03*
Y7290000D03*
Y7390000D03*
Y7490000D03*
Y7590000D03*
Y7690000D03*
Y7790000D03*
Y7890000D03*
Y7990000D03*
Y8090000D03*
Y8190000D03*
Y8290000D03*
Y8390000D03*
Y8490000D03*
Y8590000D03*
Y8690000D03*
Y8790000D03*
Y8890000D03*
Y8990000D03*
Y9090000D03*
Y9190000D03*
Y9290000D03*
Y9390000D03*
Y9490000D03*
Y9590000D03*
Y9690000D03*
Y9790000D03*
Y9890000D03*
Y9990000D03*
Y10090000D03*
Y10190000D03*
Y10290000D03*
Y10390000D03*
Y10490000D03*
Y10590000D03*
Y10690000D03*
Y10790000D03*
Y10890000D03*
Y10990000D03*
Y11090000D03*
Y11190000D03*
Y11290000D03*
Y11390000D03*
Y11490000D03*
Y11590000D03*
Y11690000D03*
Y11790000D03*
Y11890000D03*
Y15990000D03*
Y15890000D03*
Y16090000D03*
Y16190000D03*
Y16290000D03*
Y16490000D03*
Y16390000D03*
Y16590000D03*
Y16690000D03*
Y16890000D03*
Y16790000D03*
Y16990000D03*
Y17090000D03*
Y17190000D03*
Y17390000D03*
Y17290000D03*
Y17490000D03*
Y17590000D03*
Y17790000D03*
Y17690000D03*
Y17890000D03*
Y17990000D03*
Y18090000D03*
Y18290000D03*
Y18190000D03*
Y18390000D03*
Y18490000D03*
Y18690000D03*
Y18590000D03*
Y18790000D03*
Y18890000D03*
Y19090000D03*
Y18990000D03*
Y19190000D03*
Y19290000D03*
Y19390000D03*
Y19590000D03*
Y19490000D03*
Y19690000D03*
Y19790000D03*
Y19990000D03*
Y19890000D03*
Y20090000D03*
Y20190000D03*
Y20290000D03*
Y20490000D03*
Y20390000D03*
Y20590000D03*
Y20690000D03*
Y20890000D03*
Y20790000D03*
X10800000Y6890000D03*
Y6990000D03*
Y7090000D03*
Y7190000D03*
Y7290000D03*
Y7390000D03*
Y7490000D03*
Y7590000D03*
Y7690000D03*
Y7790000D03*
Y7890000D03*
Y7990000D03*
Y8090000D03*
Y8190000D03*
Y8290000D03*
Y8390000D03*
Y8490000D03*
Y8590000D03*
Y8690000D03*
Y8790000D03*
Y8890000D03*
Y8990000D03*
Y9090000D03*
Y9190000D03*
Y9290000D03*
Y9390000D03*
Y9490000D03*
Y9590000D03*
Y9690000D03*
Y9790000D03*
Y9890000D03*
Y9990000D03*
Y10090000D03*
Y10190000D03*
Y10290000D03*
Y10390000D03*
Y10490000D03*
Y10590000D03*
Y10690000D03*
Y10790000D03*
Y10890000D03*
Y10990000D03*
Y11090000D03*
Y11190000D03*
Y11290000D03*
Y11390000D03*
Y11490000D03*
Y11590000D03*
Y11690000D03*
Y11790000D03*
Y11890000D03*
Y15990000D03*
Y15890000D03*
Y16090000D03*
Y16190000D03*
Y16290000D03*
Y16490000D03*
Y16390000D03*
Y16590000D03*
Y16690000D03*
Y16890000D03*
Y16790000D03*
Y16990000D03*
Y17090000D03*
Y17190000D03*
Y17390000D03*
Y17290000D03*
Y17490000D03*
Y17590000D03*
Y17790000D03*
Y17690000D03*
Y17890000D03*
Y17990000D03*
Y18090000D03*
Y18290000D03*
Y18190000D03*
Y18390000D03*
Y18490000D03*
Y18690000D03*
Y18590000D03*
Y18790000D03*
Y18890000D03*
Y19090000D03*
Y18990000D03*
Y19190000D03*
Y19290000D03*
Y19390000D03*
Y19590000D03*
Y19490000D03*
Y19690000D03*
Y19790000D03*
Y19990000D03*
Y19890000D03*
Y20090000D03*
Y20190000D03*
Y20290000D03*
Y20490000D03*
Y20390000D03*
Y20590000D03*
Y20690000D03*
Y20890000D03*
Y20790000D03*
X10900000Y6890000D03*
Y6990000D03*
Y7090000D03*
Y7190000D03*
Y7290000D03*
Y7390000D03*
Y7490000D03*
Y7590000D03*
Y7690000D03*
Y7790000D03*
Y7890000D03*
Y7990000D03*
Y8090000D03*
Y8190000D03*
Y8290000D03*
Y8390000D03*
Y8490000D03*
Y8590000D03*
Y8690000D03*
Y8790000D03*
Y8890000D03*
Y8990000D03*
Y9090000D03*
Y9190000D03*
Y9290000D03*
Y9390000D03*
Y9490000D03*
Y9590000D03*
Y9690000D03*
Y9790000D03*
Y9890000D03*
Y9990000D03*
Y10090000D03*
Y10190000D03*
Y10290000D03*
Y10390000D03*
Y10490000D03*
Y10590000D03*
Y10690000D03*
Y10790000D03*
Y10890000D03*
Y10990000D03*
Y11090000D03*
Y11190000D03*
Y11290000D03*
Y11390000D03*
Y11490000D03*
Y11590000D03*
Y11690000D03*
Y11790000D03*
Y11890000D03*
Y15990000D03*
Y15890000D03*
Y16090000D03*
Y16190000D03*
Y16290000D03*
Y16490000D03*
Y16390000D03*
Y16590000D03*
Y16690000D03*
Y16890000D03*
Y16790000D03*
Y16990000D03*
Y17090000D03*
Y17190000D03*
Y17390000D03*
Y17290000D03*
Y17490000D03*
Y17590000D03*
Y17790000D03*
Y17690000D03*
Y17890000D03*
Y17990000D03*
Y18090000D03*
Y18290000D03*
Y18190000D03*
Y18390000D03*
Y18490000D03*
Y18690000D03*
Y18590000D03*
Y18790000D03*
Y18890000D03*
Y19090000D03*
Y18990000D03*
Y19190000D03*
Y19290000D03*
Y19390000D03*
Y19590000D03*
Y19490000D03*
Y19690000D03*
Y19790000D03*
Y19990000D03*
Y19890000D03*
Y20090000D03*
Y20190000D03*
Y20290000D03*
Y20490000D03*
Y20390000D03*
Y20590000D03*
Y20690000D03*
Y20890000D03*
Y20790000D03*
X11000000Y6890000D03*
X11100000D03*
X11000000Y6990000D03*
X11100000D03*
X11000000Y7090000D03*
Y7190000D03*
X11100000Y7090000D03*
Y7190000D03*
X11000000Y7290000D03*
X11100000D03*
X11000000Y7390000D03*
X11100000D03*
X11000000Y7490000D03*
X11100000D03*
X11000000Y7590000D03*
Y7690000D03*
X11100000Y7590000D03*
Y7690000D03*
X11000000Y7790000D03*
X11100000D03*
X11000000Y7890000D03*
X11100000D03*
X11000000Y7990000D03*
Y8090000D03*
X11100000Y7990000D03*
Y8090000D03*
X11000000Y8190000D03*
X11100000D03*
X11000000Y8290000D03*
X11100000D03*
X11000000Y8390000D03*
X11100000D03*
X11000000Y8490000D03*
Y8590000D03*
X11100000Y8490000D03*
Y8590000D03*
X11000000Y8690000D03*
X11100000D03*
X11000000Y8790000D03*
X11100000D03*
X11000000Y8890000D03*
Y8990000D03*
X11100000Y8890000D03*
Y8990000D03*
X11000000Y9090000D03*
X11100000D03*
X11000000Y9190000D03*
X11100000D03*
X11000000Y9290000D03*
Y9390000D03*
X11100000Y9290000D03*
Y9390000D03*
X11000000Y9490000D03*
X11100000D03*
X11000000Y9590000D03*
X11100000D03*
X11000000Y9690000D03*
X11100000D03*
X11000000Y9790000D03*
Y9890000D03*
X11100000Y9790000D03*
Y9890000D03*
X11000000Y9990000D03*
X11100000D03*
X11000000Y10090000D03*
X11100000D03*
X11000000Y10190000D03*
Y10290000D03*
X11100000Y10190000D03*
Y10290000D03*
X11000000Y10390000D03*
X11100000D03*
X11000000Y10490000D03*
X11100000D03*
X11000000Y10590000D03*
X11100000D03*
X11000000Y10690000D03*
Y10790000D03*
X11100000Y10690000D03*
Y10790000D03*
X11000000Y10890000D03*
X11100000D03*
X11000000Y10990000D03*
X11100000D03*
X11000000Y11090000D03*
Y11190000D03*
X11100000Y11090000D03*
Y11190000D03*
X11000000Y11290000D03*
X11100000D03*
X11000000Y11390000D03*
X11100000D03*
X11000000Y11490000D03*
Y11590000D03*
X11100000Y11490000D03*
Y11590000D03*
X11000000Y11690000D03*
X11100000D03*
X11000000Y11790000D03*
X11100000D03*
X11000000Y11890000D03*
X11100000D03*
Y15990000D03*
Y15890000D03*
X11000000Y15990000D03*
Y15890000D03*
X11100000Y16090000D03*
X11000000D03*
X11100000Y16190000D03*
X11000000D03*
X11100000Y16290000D03*
X11000000D03*
X11100000Y16490000D03*
Y16390000D03*
X11000000Y16490000D03*
Y16390000D03*
X11100000Y16590000D03*
X11000000D03*
X11100000Y16690000D03*
X11000000D03*
X11100000Y16890000D03*
Y16790000D03*
X11000000Y16890000D03*
Y16790000D03*
X11100000Y16990000D03*
X11000000D03*
X11100000Y17090000D03*
X11000000D03*
X11100000Y17190000D03*
X11000000D03*
X11100000Y17390000D03*
Y17290000D03*
X11000000Y17390000D03*
Y17290000D03*
X11100000Y17490000D03*
X11000000D03*
X11100000Y17590000D03*
X11000000D03*
X11100000Y17790000D03*
Y17690000D03*
X11000000Y17790000D03*
Y17690000D03*
X11100000Y17890000D03*
X11000000D03*
X11100000Y17990000D03*
X11000000D03*
X11100000Y18090000D03*
X11000000D03*
X11100000Y18290000D03*
Y18190000D03*
X11000000Y18290000D03*
Y18190000D03*
X11100000Y18390000D03*
X11000000D03*
X11100000Y18490000D03*
X11000000D03*
X11100000Y18690000D03*
Y18590000D03*
X11000000Y18690000D03*
Y18590000D03*
X11100000Y18790000D03*
X11000000D03*
X11100000Y18890000D03*
X11000000D03*
X11100000Y19090000D03*
Y18990000D03*
X11000000Y19090000D03*
Y18990000D03*
X11100000Y19190000D03*
X11000000D03*
X11100000Y19290000D03*
X11000000D03*
X11100000Y19390000D03*
X11000000D03*
X11100000Y19590000D03*
Y19490000D03*
X11000000Y19590000D03*
Y19490000D03*
X11100000Y19690000D03*
X11000000D03*
X11100000Y19790000D03*
X11000000D03*
X11100000Y19990000D03*
Y19890000D03*
X11000000Y19990000D03*
Y19890000D03*
X11100000Y20090000D03*
X11000000D03*
X11100000Y20190000D03*
X11000000D03*
X11100000Y20290000D03*
X11000000D03*
X11100000Y20490000D03*
Y20390000D03*
X11000000Y20490000D03*
Y20390000D03*
X11100000Y20590000D03*
X11000000D03*
X11100000Y20690000D03*
X11000000D03*
X11100000Y20890000D03*
Y20790000D03*
X11000000Y20890000D03*
Y20790000D03*
X11200000Y6890000D03*
Y6990000D03*
Y7090000D03*
Y7190000D03*
Y7290000D03*
Y7390000D03*
Y7490000D03*
Y7590000D03*
Y7690000D03*
Y7790000D03*
Y7890000D03*
Y7990000D03*
Y8090000D03*
Y8190000D03*
Y8290000D03*
Y8390000D03*
Y8490000D03*
Y8590000D03*
Y8690000D03*
Y8790000D03*
Y8890000D03*
Y8990000D03*
Y9090000D03*
Y9190000D03*
Y9290000D03*
Y9390000D03*
Y9490000D03*
Y9590000D03*
Y9690000D03*
Y9790000D03*
Y9890000D03*
Y9990000D03*
Y10090000D03*
Y10190000D03*
Y10290000D03*
Y10390000D03*
Y10490000D03*
Y10590000D03*
Y10690000D03*
Y10790000D03*
Y10890000D03*
Y10990000D03*
Y11090000D03*
Y11190000D03*
Y11290000D03*
Y11390000D03*
Y11490000D03*
Y11590000D03*
Y11690000D03*
Y11790000D03*
Y11890000D03*
Y15990000D03*
Y15890000D03*
Y16090000D03*
Y16190000D03*
Y16290000D03*
Y16490000D03*
Y16390000D03*
Y16590000D03*
Y16690000D03*
Y16890000D03*
Y16790000D03*
Y16990000D03*
Y17090000D03*
Y17190000D03*
Y17390000D03*
Y17290000D03*
Y17490000D03*
Y17590000D03*
Y17790000D03*
Y17690000D03*
Y17890000D03*
Y17990000D03*
Y18090000D03*
Y18290000D03*
Y18190000D03*
Y18390000D03*
Y18490000D03*
Y18690000D03*
Y18590000D03*
Y18790000D03*
Y18890000D03*
Y19090000D03*
Y18990000D03*
Y19190000D03*
Y19290000D03*
Y19390000D03*
Y19590000D03*
Y19490000D03*
Y19690000D03*
Y19790000D03*
Y19990000D03*
Y19890000D03*
Y20090000D03*
Y20190000D03*
Y20290000D03*
Y20490000D03*
Y20390000D03*
Y20590000D03*
Y20690000D03*
Y20890000D03*
Y20790000D03*
X11300000Y6890000D03*
Y6990000D03*
Y7090000D03*
Y7190000D03*
Y7290000D03*
Y7390000D03*
Y7490000D03*
Y7590000D03*
Y7690000D03*
Y7790000D03*
Y7890000D03*
Y7990000D03*
Y8090000D03*
Y8190000D03*
Y8290000D03*
Y8390000D03*
Y8490000D03*
Y8590000D03*
Y8690000D03*
Y8790000D03*
Y8890000D03*
Y8990000D03*
Y9090000D03*
Y9190000D03*
Y9290000D03*
Y9390000D03*
Y9490000D03*
Y9590000D03*
Y9690000D03*
Y9790000D03*
Y9890000D03*
Y9990000D03*
Y10090000D03*
Y10190000D03*
Y10290000D03*
Y10390000D03*
Y10490000D03*
Y10590000D03*
Y10690000D03*
Y10790000D03*
Y10890000D03*
Y10990000D03*
Y11090000D03*
Y11190000D03*
Y11290000D03*
Y11390000D03*
Y11490000D03*
Y11590000D03*
Y11690000D03*
Y11790000D03*
Y11890000D03*
Y15990000D03*
Y15890000D03*
Y16090000D03*
Y16190000D03*
Y16290000D03*
Y16490000D03*
Y16390000D03*
Y16590000D03*
Y16690000D03*
Y16890000D03*
Y16790000D03*
Y16990000D03*
Y17090000D03*
Y17190000D03*
Y17390000D03*
Y17290000D03*
Y17490000D03*
Y17590000D03*
Y17790000D03*
Y17690000D03*
Y17890000D03*
Y17990000D03*
Y18090000D03*
Y18290000D03*
Y18190000D03*
Y18390000D03*
Y18490000D03*
Y18690000D03*
Y18590000D03*
Y18790000D03*
Y18890000D03*
Y19090000D03*
Y18990000D03*
Y19190000D03*
Y19290000D03*
Y19390000D03*
Y19590000D03*
Y19490000D03*
Y19690000D03*
Y19790000D03*
Y19990000D03*
Y19890000D03*
Y20090000D03*
Y20190000D03*
Y20290000D03*
Y20490000D03*
Y20390000D03*
Y20590000D03*
Y20690000D03*
Y20890000D03*
Y20790000D03*
X11400000Y6890000D03*
X11500000D03*
X11400000Y6990000D03*
X11500000D03*
X11400000Y7090000D03*
Y7190000D03*
X11500000Y7090000D03*
Y7190000D03*
X11400000Y7290000D03*
X11500000D03*
X11400000Y7390000D03*
X11500000D03*
X11400000Y7490000D03*
X11500000D03*
X11400000Y7590000D03*
Y7690000D03*
X11500000Y7590000D03*
Y7690000D03*
X11400000Y7790000D03*
X11500000D03*
X11400000Y7890000D03*
X11500000D03*
X11400000Y7990000D03*
Y8090000D03*
X11500000Y7990000D03*
Y8090000D03*
X11400000Y8190000D03*
X11500000D03*
X11400000Y8290000D03*
X11500000D03*
X11400000Y8390000D03*
X11500000D03*
X11400000Y8490000D03*
Y8590000D03*
X11500000Y8490000D03*
Y8590000D03*
X11400000Y8690000D03*
X11500000D03*
X11400000Y8790000D03*
X11500000D03*
X11400000Y8890000D03*
Y8990000D03*
X11500000Y8890000D03*
Y8990000D03*
X11400000Y9090000D03*
X11500000D03*
X11400000Y9190000D03*
X11500000D03*
X11400000Y9290000D03*
Y9390000D03*
X11500000Y9290000D03*
Y9390000D03*
X11400000Y9490000D03*
X11500000D03*
X11400000Y9590000D03*
X11500000D03*
X11400000Y9690000D03*
X11500000D03*
X11400000Y9790000D03*
Y9890000D03*
X11500000Y9790000D03*
Y9890000D03*
X11400000Y9990000D03*
X11500000D03*
X11400000Y10090000D03*
X11500000D03*
X11400000Y10190000D03*
Y10290000D03*
X11500000Y10190000D03*
Y10290000D03*
X11400000Y10390000D03*
X11500000D03*
X11400000Y10490000D03*
X11500000D03*
X11400000Y10590000D03*
X11500000D03*
X11400000Y10690000D03*
Y10790000D03*
X11500000Y10690000D03*
Y10790000D03*
X11400000Y10890000D03*
X11500000D03*
X11400000Y10990000D03*
X11500000D03*
X11400000Y11090000D03*
Y11190000D03*
X11500000Y11090000D03*
Y11190000D03*
X11400000Y11290000D03*
X11500000D03*
X11400000Y11390000D03*
X11500000D03*
X11400000Y11490000D03*
Y11590000D03*
X11500000Y11490000D03*
Y11590000D03*
X11400000Y11690000D03*
X11500000D03*
X11400000Y11790000D03*
X11500000D03*
X11400000Y11890000D03*
X11500000D03*
Y15990000D03*
Y15890000D03*
X11400000Y15990000D03*
Y15890000D03*
X11500000Y16090000D03*
X11400000D03*
X11500000Y16190000D03*
X11400000D03*
X11500000Y16290000D03*
X11400000D03*
X11500000Y16490000D03*
Y16390000D03*
X11400000Y16490000D03*
Y16390000D03*
X11500000Y16590000D03*
X11400000D03*
X11500000Y16690000D03*
X11400000D03*
X11500000Y16890000D03*
Y16790000D03*
X11400000Y16890000D03*
Y16790000D03*
X11500000Y16990000D03*
X11400000D03*
X11500000Y17090000D03*
X11400000D03*
X11500000Y17190000D03*
X11400000D03*
X11500000Y17390000D03*
Y17290000D03*
X11400000Y17390000D03*
Y17290000D03*
X11500000Y17490000D03*
X11400000D03*
X11500000Y17590000D03*
X11400000D03*
X11500000Y17790000D03*
Y17690000D03*
X11400000Y17790000D03*
Y17690000D03*
X11500000Y17890000D03*
X11400000D03*
X11500000Y17990000D03*
X11400000D03*
X11500000Y18090000D03*
X11400000D03*
X11500000Y18290000D03*
Y18190000D03*
X11400000Y18290000D03*
Y18190000D03*
X11500000Y18390000D03*
X11400000D03*
X11500000Y18490000D03*
X11400000D03*
X11500000Y18690000D03*
Y18590000D03*
X11400000Y18690000D03*
Y18590000D03*
X11500000Y18790000D03*
X11400000D03*
X11500000Y18890000D03*
X11400000D03*
X11500000Y19090000D03*
Y18990000D03*
X11400000Y19090000D03*
Y18990000D03*
X11500000Y19190000D03*
X11400000D03*
X11500000Y19290000D03*
X11400000D03*
X11500000Y19390000D03*
X11400000D03*
X11500000Y19590000D03*
Y19490000D03*
X11400000Y19590000D03*
Y19490000D03*
X11500000Y19690000D03*
X11400000D03*
X11500000Y19790000D03*
X11400000D03*
X11500000Y19990000D03*
Y19890000D03*
X11400000Y19990000D03*
Y19890000D03*
X11500000Y20090000D03*
X11400000D03*
X11500000Y20190000D03*
X11400000D03*
X11500000Y20290000D03*
X11400000D03*
X11500000Y20490000D03*
Y20390000D03*
X11400000Y20490000D03*
Y20390000D03*
X11500000Y20590000D03*
X11400000D03*
X11500000Y20690000D03*
X11400000D03*
X11500000Y20890000D03*
Y20790000D03*
X11400000Y20890000D03*
Y20790000D03*
X11600000Y6890000D03*
Y6990000D03*
Y7090000D03*
Y7190000D03*
Y7290000D03*
Y7390000D03*
Y7490000D03*
Y7590000D03*
Y7690000D03*
Y7790000D03*
Y7890000D03*
Y7990000D03*
Y8090000D03*
Y8190000D03*
Y8290000D03*
Y8390000D03*
Y8490000D03*
Y8590000D03*
Y8690000D03*
Y8790000D03*
Y8890000D03*
Y8990000D03*
Y9090000D03*
Y9190000D03*
Y9290000D03*
Y9390000D03*
Y9490000D03*
Y9590000D03*
Y9690000D03*
Y9790000D03*
Y9890000D03*
Y9990000D03*
Y10090000D03*
Y10190000D03*
Y10290000D03*
Y10390000D03*
Y10490000D03*
Y10590000D03*
Y10690000D03*
Y10790000D03*
Y10890000D03*
Y10990000D03*
Y11090000D03*
Y11190000D03*
Y11290000D03*
Y11390000D03*
Y11490000D03*
Y11590000D03*
Y11690000D03*
Y11790000D03*
Y11890000D03*
Y15990000D03*
Y15890000D03*
Y16090000D03*
Y16190000D03*
Y16290000D03*
Y16490000D03*
Y16390000D03*
Y16590000D03*
Y16690000D03*
Y16890000D03*
Y16790000D03*
Y16990000D03*
Y17090000D03*
Y17190000D03*
Y17390000D03*
Y17290000D03*
Y17490000D03*
Y17590000D03*
Y17790000D03*
Y17690000D03*
Y17890000D03*
Y17990000D03*
Y18090000D03*
Y18290000D03*
Y18190000D03*
Y18390000D03*
Y18490000D03*
Y18690000D03*
Y18590000D03*
Y18790000D03*
Y18890000D03*
Y19090000D03*
Y18990000D03*
Y19190000D03*
Y19290000D03*
Y19390000D03*
Y19590000D03*
Y19490000D03*
Y19690000D03*
Y19790000D03*
Y19990000D03*
Y19890000D03*
Y20090000D03*
Y20190000D03*
Y20290000D03*
Y20490000D03*
Y20390000D03*
Y20590000D03*
Y20690000D03*
Y20890000D03*
Y20790000D03*
X11700000Y6890000D03*
Y6990000D03*
Y7090000D03*
Y7190000D03*
Y7290000D03*
Y7390000D03*
Y7490000D03*
Y7590000D03*
Y7690000D03*
Y7790000D03*
Y7890000D03*
Y7990000D03*
Y8090000D03*
Y8190000D03*
Y8290000D03*
Y8390000D03*
Y8490000D03*
Y8590000D03*
Y8690000D03*
Y8790000D03*
Y8890000D03*
Y8990000D03*
Y9090000D03*
Y9190000D03*
Y9290000D03*
Y9390000D03*
Y9490000D03*
Y9590000D03*
Y9690000D03*
Y9790000D03*
Y9890000D03*
Y9990000D03*
Y10090000D03*
Y10190000D03*
Y10290000D03*
Y10390000D03*
Y10490000D03*
Y10590000D03*
Y10690000D03*
Y10790000D03*
Y10890000D03*
Y10990000D03*
Y11090000D03*
Y11190000D03*
Y11290000D03*
Y11390000D03*
Y11490000D03*
Y11590000D03*
Y11690000D03*
Y11790000D03*
Y11890000D03*
Y15990000D03*
Y15890000D03*
Y16090000D03*
Y16190000D03*
Y16290000D03*
Y16490000D03*
Y16390000D03*
Y16590000D03*
Y16690000D03*
Y16890000D03*
Y16790000D03*
Y16990000D03*
Y17090000D03*
Y17190000D03*
Y17390000D03*
Y17290000D03*
Y17490000D03*
Y17590000D03*
Y17790000D03*
Y17690000D03*
Y17890000D03*
Y17990000D03*
Y18090000D03*
Y18290000D03*
Y18190000D03*
Y18390000D03*
Y18490000D03*
Y18690000D03*
Y18590000D03*
Y18790000D03*
Y18890000D03*
Y19090000D03*
Y18990000D03*
Y19190000D03*
Y19290000D03*
Y19390000D03*
Y19590000D03*
Y19490000D03*
Y19690000D03*
Y19790000D03*
Y19990000D03*
Y19890000D03*
Y20090000D03*
Y20190000D03*
Y20290000D03*
Y20490000D03*
Y20390000D03*
Y20590000D03*
Y20690000D03*
Y20890000D03*
Y20790000D03*
X11800000Y6890000D03*
Y6990000D03*
Y7090000D03*
Y7190000D03*
Y7290000D03*
Y7390000D03*
Y7490000D03*
Y7590000D03*
Y7690000D03*
Y7790000D03*
Y7890000D03*
Y7990000D03*
Y8090000D03*
Y8190000D03*
Y8290000D03*
Y8390000D03*
Y8490000D03*
Y8590000D03*
Y8690000D03*
Y8790000D03*
Y8890000D03*
Y8990000D03*
Y9090000D03*
Y9190000D03*
Y9290000D03*
Y9390000D03*
Y9490000D03*
Y9590000D03*
Y9690000D03*
Y9790000D03*
Y9890000D03*
Y9990000D03*
Y10090000D03*
Y10190000D03*
Y10290000D03*
Y10390000D03*
Y10490000D03*
Y10590000D03*
Y10690000D03*
Y10790000D03*
Y10890000D03*
Y10990000D03*
Y11090000D03*
Y11190000D03*
Y11290000D03*
Y11390000D03*
Y11490000D03*
Y11590000D03*
Y11690000D03*
Y11790000D03*
Y11890000D03*
Y15990000D03*
Y15890000D03*
Y16090000D03*
Y16190000D03*
Y16290000D03*
Y16490000D03*
Y16390000D03*
Y16590000D03*
Y16690000D03*
Y16890000D03*
Y16790000D03*
Y16990000D03*
Y17090000D03*
Y17190000D03*
Y17390000D03*
Y17290000D03*
Y17490000D03*
Y17590000D03*
Y17790000D03*
Y17690000D03*
Y17890000D03*
Y17990000D03*
Y18090000D03*
Y18290000D03*
Y18190000D03*
Y18390000D03*
Y18490000D03*
Y18690000D03*
Y18590000D03*
Y18790000D03*
Y18890000D03*
Y19090000D03*
Y18990000D03*
Y19190000D03*
Y19290000D03*
Y19390000D03*
Y19590000D03*
Y19490000D03*
Y19690000D03*
Y19790000D03*
Y19990000D03*
Y19890000D03*
Y20090000D03*
Y20190000D03*
Y20290000D03*
Y20490000D03*
Y20390000D03*
Y20590000D03*
Y20690000D03*
Y20890000D03*
Y20790000D03*
X11900000Y6890000D03*
Y6990000D03*
X12000000D03*
X11900000Y7090000D03*
Y7190000D03*
X12000000Y7090000D03*
Y7190000D03*
X11900000Y7290000D03*
X12000000D03*
X11900000Y7390000D03*
X12000000D03*
X11900000Y7490000D03*
X12000000D03*
X11900000Y7590000D03*
Y7690000D03*
X12000000Y7590000D03*
Y7690000D03*
X11900000Y7790000D03*
X12000000D03*
X11900000Y7890000D03*
X12000000D03*
X11900000Y7990000D03*
Y8090000D03*
X12000000Y7990000D03*
Y8090000D03*
X11900000Y8190000D03*
X12000000D03*
X11900000Y8290000D03*
X12000000D03*
X11900000Y8390000D03*
X12000000D03*
X11900000Y8490000D03*
Y8590000D03*
X12000000Y8490000D03*
Y8590000D03*
X11900000Y8690000D03*
X12000000D03*
X11900000Y8790000D03*
X12000000D03*
X11900000Y8890000D03*
Y8990000D03*
X12000000Y8890000D03*
Y8990000D03*
X11900000Y9090000D03*
X12000000D03*
X11900000Y9190000D03*
X12000000D03*
X11900000Y9290000D03*
Y9390000D03*
X12000000Y9290000D03*
Y9390000D03*
X11900000Y9490000D03*
X12000000D03*
X11900000Y9590000D03*
X12000000D03*
X11900000Y9690000D03*
X12000000D03*
X11900000Y9790000D03*
Y9890000D03*
X12000000Y9790000D03*
Y9890000D03*
X11900000Y9990000D03*
X12000000D03*
X11900000Y10090000D03*
X12000000D03*
X11900000Y10190000D03*
Y10290000D03*
X12000000Y10190000D03*
Y10290000D03*
X11900000Y10390000D03*
X12000000D03*
X11900000Y10490000D03*
X12000000D03*
X11900000Y10590000D03*
X12000000D03*
X11900000Y10690000D03*
Y10790000D03*
X12000000Y10690000D03*
Y10790000D03*
X11900000Y10890000D03*
X12000000D03*
X11900000Y10990000D03*
X12000000D03*
X11900000Y11090000D03*
Y11190000D03*
X12000000Y11090000D03*
Y11190000D03*
X11900000Y11290000D03*
X12000000D03*
X11900000Y11390000D03*
X12000000D03*
X11900000Y11490000D03*
Y11590000D03*
X12000000Y11490000D03*
Y11590000D03*
X11900000Y11690000D03*
X12000000D03*
X11900000Y11790000D03*
X12000000D03*
X11900000Y11890000D03*
X12000000Y15990000D03*
X11900000D03*
Y15890000D03*
X12000000Y16090000D03*
X11900000D03*
X12000000Y16190000D03*
X11900000D03*
X12000000Y16290000D03*
X11900000D03*
X12000000Y16490000D03*
Y16390000D03*
X11900000Y16490000D03*
Y16390000D03*
X12000000Y16590000D03*
X11900000D03*
X12000000Y16690000D03*
X11900000D03*
X12000000Y16890000D03*
Y16790000D03*
X11900000Y16890000D03*
Y16790000D03*
X12000000Y16990000D03*
X11900000D03*
X12000000Y17090000D03*
X11900000D03*
X12000000Y17190000D03*
X11900000D03*
X12000000Y17390000D03*
Y17290000D03*
X11900000Y17390000D03*
Y17290000D03*
X12000000Y17490000D03*
X11900000D03*
X12000000Y17590000D03*
X11900000D03*
X12000000Y17790000D03*
Y17690000D03*
X11900000Y17790000D03*
Y17690000D03*
X12000000Y17890000D03*
X11900000D03*
X12000000Y17990000D03*
X11900000D03*
X12000000Y18090000D03*
X11900000D03*
X12000000Y18290000D03*
Y18190000D03*
X11900000Y18290000D03*
Y18190000D03*
X12000000Y18390000D03*
X11900000D03*
X12000000Y18490000D03*
X11900000D03*
X12000000Y18690000D03*
Y18590000D03*
X11900000Y18690000D03*
Y18590000D03*
X12000000Y18790000D03*
X11900000D03*
X12000000Y18890000D03*
X11900000D03*
X12000000Y19090000D03*
Y18990000D03*
X11900000Y19090000D03*
Y18990000D03*
X12000000Y19190000D03*
X11900000D03*
X12000000Y19290000D03*
X11900000D03*
X12000000Y19390000D03*
X11900000D03*
X12000000Y19590000D03*
Y19490000D03*
X11900000Y19590000D03*
Y19490000D03*
X12000000Y19690000D03*
X11900000D03*
X12000000Y19790000D03*
X11900000D03*
X12000000Y19990000D03*
Y19890000D03*
X11900000Y19990000D03*
Y19890000D03*
X12000000Y20090000D03*
X11900000D03*
X12000000Y20190000D03*
X11900000D03*
X12000000Y20290000D03*
X11900000D03*
X12000000Y20490000D03*
Y20390000D03*
X11900000Y20490000D03*
Y20390000D03*
X12000000Y20590000D03*
X11900000D03*
X12000000Y20690000D03*
X11900000D03*
X12000000Y20790000D03*
X11900000Y20890000D03*
Y20790000D03*
X12100000Y7090000D03*
Y7190000D03*
Y7290000D03*
Y7390000D03*
Y7490000D03*
Y7590000D03*
Y7690000D03*
Y7790000D03*
Y7890000D03*
Y7990000D03*
Y8090000D03*
Y8190000D03*
Y8290000D03*
Y8390000D03*
Y8490000D03*
Y8590000D03*
Y8690000D03*
Y8790000D03*
Y8890000D03*
Y8990000D03*
Y9090000D03*
Y9190000D03*
Y9290000D03*
Y9390000D03*
Y9490000D03*
Y9590000D03*
Y9690000D03*
Y9790000D03*
Y9890000D03*
Y9990000D03*
Y10090000D03*
Y10190000D03*
Y10290000D03*
Y10390000D03*
Y10490000D03*
Y10590000D03*
Y10690000D03*
Y10790000D03*
Y10890000D03*
Y10990000D03*
Y11090000D03*
Y11190000D03*
Y11290000D03*
Y11390000D03*
Y11490000D03*
Y11590000D03*
Y11690000D03*
Y16090000D03*
Y16190000D03*
Y16290000D03*
Y16490000D03*
Y16390000D03*
Y16590000D03*
Y16690000D03*
Y16890000D03*
Y16790000D03*
Y16990000D03*
Y17090000D03*
Y17190000D03*
Y17390000D03*
Y17290000D03*
Y17490000D03*
Y17590000D03*
Y17790000D03*
Y17690000D03*
Y17890000D03*
Y17990000D03*
Y18090000D03*
Y18290000D03*
Y18190000D03*
Y18390000D03*
Y18490000D03*
Y18690000D03*
Y18590000D03*
Y18790000D03*
Y18890000D03*
Y19090000D03*
Y18990000D03*
Y19190000D03*
Y19290000D03*
Y19390000D03*
Y19590000D03*
Y19490000D03*
Y19690000D03*
Y19790000D03*
Y19990000D03*
Y19890000D03*
Y20090000D03*
Y20190000D03*
Y20290000D03*
Y20490000D03*
Y20390000D03*
Y20590000D03*
Y20690000D03*
X12200000Y7190000D03*
Y7290000D03*
Y7390000D03*
Y7490000D03*
Y7590000D03*
Y7690000D03*
Y7790000D03*
Y7890000D03*
Y7990000D03*
Y8090000D03*
Y8190000D03*
Y8290000D03*
Y8390000D03*
Y8490000D03*
Y8590000D03*
Y8690000D03*
Y8790000D03*
Y8890000D03*
Y8990000D03*
Y9090000D03*
Y9190000D03*
Y9290000D03*
Y9390000D03*
Y9490000D03*
Y9590000D03*
Y9690000D03*
Y9790000D03*
Y9890000D03*
Y9990000D03*
Y10090000D03*
Y10190000D03*
Y10290000D03*
Y10390000D03*
Y10490000D03*
Y10590000D03*
Y10690000D03*
Y10790000D03*
Y10890000D03*
Y10990000D03*
Y11090000D03*
Y11190000D03*
Y11290000D03*
Y11390000D03*
Y11490000D03*
Y11590000D03*
Y16190000D03*
Y16290000D03*
Y16490000D03*
Y16390000D03*
Y16590000D03*
Y16690000D03*
Y16890000D03*
Y16790000D03*
Y16990000D03*
Y17090000D03*
Y17190000D03*
Y17390000D03*
Y17290000D03*
Y17490000D03*
Y17590000D03*
Y17790000D03*
Y17690000D03*
Y17890000D03*
Y17990000D03*
Y18090000D03*
Y18290000D03*
Y18190000D03*
Y18390000D03*
Y18490000D03*
Y18690000D03*
Y18590000D03*
Y18790000D03*
Y18890000D03*
Y19090000D03*
Y18990000D03*
Y19190000D03*
Y19290000D03*
Y19390000D03*
Y19590000D03*
Y19490000D03*
Y19690000D03*
Y19790000D03*
Y19990000D03*
Y19890000D03*
Y20090000D03*
Y20190000D03*
Y20290000D03*
Y20490000D03*
Y20390000D03*
Y20590000D03*
G54D85*
X13257500Y17685000D03*
X13347500Y9580000D03*
G54D49*
X3101000Y1825500D03*
Y3125500D03*
Y4425500D03*
Y5725500D03*
Y7025500D03*
Y8325500D03*
Y9625500D03*
Y10925500D03*
Y12225500D03*
Y13525500D03*
Y15225500D03*
Y16525500D03*
Y17825500D03*
Y19125500D03*
Y20425500D03*
Y21725500D03*
Y23025500D03*
Y24325500D03*
Y25625500D03*
Y26925500D03*
G54D76*
X9075000Y1436000D03*
Y1690000D03*
Y1944000D03*
X9495000Y1436000D03*
Y1690000D03*
Y1944000D03*
G54D58*
X6450000Y6140000D03*
Y12640000D03*
Y15140000D03*
Y21640000D03*
X10150000Y380000D03*
Y27390000D03*
X12950000Y6140000D03*
Y12640000D03*
Y15140000D03*
Y21640000D03*
X17150000Y380000D03*
Y27390000D03*
G54D67*
X7550000Y23898560D03*
Y24081440D03*
X7750000Y23898560D03*
Y24081440D03*
X7950000Y23898560D03*
Y24081440D03*
X8150000Y23898560D03*
Y24081440D03*
X8800000Y23898560D03*
Y24081440D03*
X9000000Y23898560D03*
Y24081440D03*
X9200000Y23898560D03*
Y24081440D03*
X9400000Y23898560D03*
Y24081440D03*
X9600000Y23898560D03*
Y24081440D03*
X9800000Y23898560D03*
Y24081440D03*
X10000000Y23898560D03*
Y24081440D03*
X10200000Y23898560D03*
Y24081440D03*
X13800000Y13798560D03*
Y13981440D03*
Y14198560D03*
Y14381440D03*
Y17598560D03*
Y17781440D03*
Y17998560D03*
Y18181440D03*
Y21398560D03*
Y21581440D03*
Y21798560D03*
Y21981440D03*
Y25198560D03*
Y25381440D03*
Y25598560D03*
Y25781440D03*
X14050000Y13798560D03*
Y13981440D03*
Y14198560D03*
Y14381440D03*
Y17598560D03*
Y17781440D03*
Y17998560D03*
Y18181440D03*
Y21398560D03*
Y21581440D03*
Y21798560D03*
Y21981440D03*
Y25198560D03*
Y25381440D03*
Y25598560D03*
Y25781440D03*
X14300000Y13798560D03*
Y13981440D03*
Y14198560D03*
Y14381440D03*
Y17598560D03*
Y17781440D03*
Y17998560D03*
Y18181440D03*
Y21398560D03*
Y21581440D03*
Y21798560D03*
Y21981440D03*
Y25198560D03*
Y25381440D03*
Y25598560D03*
Y25781440D03*
X14550000Y9698560D03*
Y9881440D03*
Y10098560D03*
Y10281440D03*
X14800000Y9698560D03*
Y9881440D03*
Y10098560D03*
Y10281440D03*
X15050000Y9698560D03*
Y9881440D03*
Y10098560D03*
Y10281440D03*
X15250000Y2648560D03*
Y2831440D03*
Y3048560D03*
Y3231440D03*
Y6198560D03*
Y6381440D03*
Y6598560D03*
Y6781440D03*
X15500000Y2648560D03*
Y2831440D03*
Y3048560D03*
Y3231440D03*
Y6198560D03*
Y6381440D03*
Y6598560D03*
Y6781440D03*
X15750000Y2648560D03*
Y2831440D03*
Y3048560D03*
Y3231440D03*
Y6198560D03*
Y6381440D03*
Y6598560D03*
Y6781440D03*
G54D94*
X16707000Y19730000D03*
Y20030000D03*
Y20280000D03*
Y20580000D03*
X16957000Y19730000D03*
Y20030000D03*
Y20280000D03*
Y20580000D03*
X17049000Y21097000D03*
Y21351000D03*
Y21605000D03*
Y21859000D03*
Y22113000D03*
Y22367000D03*
Y22621000D03*
Y22875000D03*
X17207000Y19730000D03*
Y20030000D03*
Y20280000D03*
Y20580000D03*
X17303000Y21097000D03*
Y21351000D03*
Y21605000D03*
Y21859000D03*
Y22113000D03*
Y22367000D03*
Y22621000D03*
Y22875000D03*
X17457000Y19730000D03*
Y20030000D03*
Y20280000D03*
Y20580000D03*
X17557000Y21097000D03*
Y21351000D03*
Y21605000D03*
Y21859000D03*
Y22113000D03*
Y22367000D03*
Y22621000D03*
Y22875000D03*
X17707000Y19730000D03*
Y20030000D03*
Y20280000D03*
Y20580000D03*
G54D59*
X6400000Y3944000D03*
Y4236000D03*
Y22844000D03*
Y23136000D03*
X13850000Y13144000D03*
Y13436000D03*
Y14744000D03*
Y15036000D03*
Y16944000D03*
Y17236000D03*
Y18544000D03*
Y18836000D03*
Y20744000D03*
Y21036000D03*
Y22344000D03*
Y22636000D03*
Y24544000D03*
Y24836000D03*
Y26144000D03*
Y26436000D03*
X14250000Y13144000D03*
Y13436000D03*
Y14744000D03*
Y15036000D03*
Y16944000D03*
Y17236000D03*
Y18544000D03*
Y18836000D03*
Y20744000D03*
Y21036000D03*
Y22344000D03*
Y22636000D03*
Y24544000D03*
Y24836000D03*
Y26144000D03*
Y26436000D03*
X14600000Y9044000D03*
Y9336000D03*
Y10644000D03*
Y10936000D03*
X15000000Y9044000D03*
Y9336000D03*
Y10644000D03*
Y10936000D03*
X15300000Y1994000D03*
Y2286000D03*
Y3594000D03*
Y3886000D03*
Y5544000D03*
Y5836000D03*
Y7144000D03*
Y7436000D03*
X15700000Y1994000D03*
Y2286000D03*
Y3594000D03*
Y3886000D03*
Y5544000D03*
Y5836000D03*
Y7144000D03*
Y7436000D03*
G54D68*
X7656020Y27290000D03*
Y27490000D03*
X7843980Y27290000D03*
Y27490000D03*
G54D86*
X13490000Y9530000D03*
X13400000Y17635000D03*
G54D77*
X9075000Y26690000D03*
X9325000D03*
G54D95*
X16744590Y18167280D03*
X16955410D03*
G54D69*
X7804000Y4190000D03*
Y23090000D03*
X8096000Y4190000D03*
Y23090000D03*
G54D87*
X13905000Y11115000D03*
Y11165000D03*
Y11215000D03*
Y11265000D03*
Y11315000D03*
Y11365000D03*
Y11865000D03*
Y11915000D03*
Y11965000D03*
Y12015000D03*
Y12065000D03*
Y12115000D03*
Y15565000D03*
Y15615000D03*
Y15665000D03*
Y15715000D03*
Y15765000D03*
Y15815000D03*
Y16315000D03*
Y16365000D03*
Y16415000D03*
Y16465000D03*
Y16515000D03*
Y16565000D03*
Y19365000D03*
Y19415000D03*
Y19465000D03*
Y19515000D03*
Y19565000D03*
Y19615000D03*
Y20165000D03*
Y20215000D03*
Y20265000D03*
Y20315000D03*
Y20365000D03*
Y20415000D03*
X14295000Y11165000D03*
Y11115000D03*
Y11315000D03*
Y11265000D03*
Y11215000D03*
Y11365000D03*
Y11965000D03*
Y11915000D03*
Y11865000D03*
Y12065000D03*
Y12015000D03*
Y12115000D03*
Y15565000D03*
Y15715000D03*
Y15665000D03*
Y15615000D03*
Y15815000D03*
Y15765000D03*
Y16365000D03*
Y16315000D03*
Y16465000D03*
Y16415000D03*
Y16565000D03*
Y16515000D03*
Y19465000D03*
Y19415000D03*
Y19365000D03*
Y19565000D03*
Y19515000D03*
Y19615000D03*
Y20215000D03*
Y20165000D03*
Y20365000D03*
Y20315000D03*
Y20265000D03*
Y20415000D03*
X14555000Y7615000D03*
Y7665000D03*
Y7715000D03*
Y7765000D03*
Y7815000D03*
Y7865000D03*
Y8415000D03*
Y8465000D03*
Y8515000D03*
Y8565000D03*
Y8615000D03*
Y8665000D03*
X14945000Y7665000D03*
Y7615000D03*
Y7815000D03*
Y7765000D03*
Y7715000D03*
Y7865000D03*
Y8465000D03*
Y8415000D03*
Y8565000D03*
Y8515000D03*
Y8665000D03*
Y8615000D03*
G54D96*
X16744590Y18400960D03*
X16955410D03*
G54D78*
X10183960Y22280780D03*
X10433960D03*
G54D88*
X14075000Y11045000D03*
X14025000D03*
X13975000D03*
Y11435000D03*
X14025000D03*
X14075000D03*
Y11795000D03*
X14025000D03*
X13975000D03*
Y12185000D03*
X14025000D03*
X14075000D03*
Y15495000D03*
X14025000D03*
X13975000D03*
Y15885000D03*
X14025000D03*
X14075000D03*
Y16245000D03*
X14025000D03*
X13975000D03*
Y16635000D03*
X14025000D03*
X14075000D03*
Y19295000D03*
X14025000D03*
X13975000D03*
Y19685000D03*
X14025000D03*
X14075000D03*
Y20095000D03*
X14025000D03*
X13975000D03*
Y20485000D03*
X14025000D03*
X14075000D03*
X14175000Y11045000D03*
X14125000D03*
Y11435000D03*
X14175000D03*
Y11795000D03*
X14125000D03*
Y12185000D03*
X14175000D03*
Y15495000D03*
X14125000D03*
Y15885000D03*
X14175000D03*
Y16245000D03*
X14125000D03*
Y16635000D03*
X14175000D03*
Y19295000D03*
X14125000D03*
Y19685000D03*
X14175000D03*
Y20095000D03*
X14125000D03*
Y20485000D03*
X14175000D03*
X14225000Y11045000D03*
Y11435000D03*
Y11795000D03*
Y12185000D03*
Y15495000D03*
Y15885000D03*
Y16245000D03*
Y16635000D03*
Y19295000D03*
Y19685000D03*
Y20095000D03*
Y20485000D03*
X14725000Y7545000D03*
X14675000D03*
X14625000D03*
Y7935000D03*
X14675000D03*
X14725000D03*
Y8345000D03*
X14675000D03*
X14625000D03*
Y8735000D03*
X14675000D03*
X14725000D03*
X14825000Y7545000D03*
X14775000D03*
Y7935000D03*
X14825000D03*
Y8345000D03*
X14775000D03*
Y8735000D03*
X14825000D03*
X14875000Y7545000D03*
Y7935000D03*
Y8345000D03*
Y8735000D03*
G54D97*
X17207000Y19180000D03*
Y23456000D03*
G54D79*
X10183960Y22499220D03*
X10316040Y22280780D03*
X10250000D03*
X10316040Y22499220D03*
X10433960D03*
X10566040Y22280780D03*
X10500000D03*
X10566040Y22499220D03*
G54D89*
X14100000Y11240000D03*
Y11990000D03*
Y15690000D03*
Y16440000D03*
Y19490000D03*
Y20290000D03*
X14750000Y7740000D03*
Y8540000D03*
G54D98*
X17227000Y10520000D03*
Y12285000D03*
Y24410000D03*
Y26175000D03*
G54D99*
X17627000Y10520000D03*
Y12285000D03*
Y24410000D03*
Y26175000D03*
M02*
